<?xml version="1.0" ?>
<svg height="40.0542mm" version="1.1" viewBox="-0.05 -40.1042 94.3086 40.0542" width="94.3086mm" xmlns="http://www.w3.org/2000/svg" xmlns:xlink="http://www.w3.org/1999/xlink">
	<g transform="scale(1,-1)">
		<path d="M -0.05,39.8525999969 L -0.05,0.101600003117 L -0.0499849407819,0.100372935463 L -0.0499397726573,0.0991466131702 L -0.0494505413461,0.089188081054 L -0.0492700036487,0.0867405953595 L -0.0489695928132,0.0843049286519 L -0.0475066109021,0.0744423057283 L -0.0470870469959,0.0720243011432 L -0.0465493456336,0.0696298082395 L -0.0441267022852,0.0599580738443 L -0.0434721527944,0.057592837051 L -0.0427023392689,0.0552625782505 L -0.0393433658629,0.045874876473 L -0.0384601344567,0.0435851860022 L -0.0374656224934,0.0413416029635 L -0.0332026677799,0.0323283425037 L -0.0320992604696,0.0301362493489 L -0.0308896277522,0.0280009489806 L -0.0257637463156,0.0194489324638 L -0.024450789517,0.0173755476755 L -0.0230376854696,0.0153690940923 L -0.0170982423501,0.00736068211263 L -0.0155883805472,0.00542597350653 L -0.013985414142,0.00356768996653 L -0.00728960942371,-0.00381999209081 L -0.00559738341475,-0.00559739220832 L -0.00381999209081,-0.00728960942371 L 0.00356768996653,-0.013985414142 L 0.0054259831349,-0.015588388449 L 0.00736068211263,-0.0170982423501 L 0.0153690940923,-0.0230376854696 L 0.0173755580224,-0.0244507964306 L 0.0194489324638,-0.0257637463156 L 0.0280009489806,-0.0308896277522 L 0.0301362603393,-0.032099266344 L 0.0323283425037,-0.0332026677799 L 0.0413416029635,-0.0374656224934 L 0.0435851975325,-0.0384601392327 L 0.045874876473,-0.0393433658629 L 0.0552625782505,-0.0427023392689 L 0.0575928489735,-0.0434721564111 L 0.0599580738443,-0.0441267022852 L 0.0696298082395,-0.0465493456336 L 0.0720243133587,-0.0470870494257 L 0.0744423057283,-0.0475066109021 L 0.0843049286519,-0.0489695928132 L 0.0867406077552,-0.0492700048696 L 0.089188081054,-0.0494505413461 L 0.0991466131702,-0.0499397726573 L 0.100372941694,-0.0499849409349 L 0.101600003117,-0.05 L 94.1069999969,-0.05 L 94.1082270641,-0.0499849407937 L 94.1094533868,-0.0499397726573 L 94.1194119189,-0.0494505413461 L 94.1218594061,-0.0492700035094 L 94.1242950713,-0.0489695928132 L 94.1341576943,-0.0475066109021 L 94.1365757041,-0.0470870459521 L 94.1389701918,-0.0465493456336 L 94.1486419262,-0.0441267022852 L 94.1510071608,-0.0434721534568 L 94.1533374217,-0.0427023392689 L 94.1627251235,-0.0393433658629 L 94.1650148261,-0.0384601294366 L 94.167258397,-0.0374656224934 L 94.1762716575,-0.0332026677799 L 94.1784637648,-0.0320992529038 L 94.180599051,-0.0308896277522 L 94.1891510675,-0.0257637463155 L 94.1912244669,-0.0244507797634 L 94.1932309059,-0.0230376854696 L 94.2012393179,-0.0170982423501 L 94.2031740417,-0.0155883680999 L 94.20503231,-0.013985414142 L 94.2124199921,-0.00728960942374 L 94.2141973731,-0.00559740248789 L 94.2158896094,-0.00381999209078 L 94.2225854141,0.00356768996657 L 94.2241883756,0.00542596742899 L 94.2256982424,0.00736068211261 L 94.2316376855,0.0153690940923 L 94.2330508081,0.0173755754964 L 94.2343637463,0.0194489324638 L 94.2394896278,0.0280009489806 L 94.2406992654,0.0301362585941 L 94.2418026678,0.0323283425037 L 94.2460656225,0.0413416029635 L 94.2470601289,0.0435851725311 L 94.2479433659,0.0458748764729 L 94.2513023393,0.0552625782506 L 94.2520721514,0.0575928323189 L 94.2527267023,0.0599580738442 L 94.2551493456,0.0696298082395 L 94.2556870502,0.072024317396 L 94.2561066109,0.0744423057283 L 94.2575695928,0.084304928652 L 94.2578700016,0.0867405741725 L 94.2580505413,0.089188081054 L 94.2585397727,0.0991466131701 L 94.2585849418,0.100372977857 L 94.2586,0.101600003117 L 94.2586,39.8525999969 L 94.2585849417,39.8538270282 L 94.2585397727,39.8550533868 L 94.2580505413,39.8650119189 L 94.2578700006,39.8674594354 L 94.2575695928,39.8698950713 L 94.2561066109,39.8797576943 L 94.255687046,39.8821757037 L 94.2551493456,39.8845701918 L 94.2527267023,39.8942419262 L 94.2520721431,39.8966071948 L 94.2513023393,39.8989374217 L 94.2479433659,39.9083251235 L 94.2470601244,39.9106148382 L 94.2460656225,39.912858397 L 94.2418026678,39.9218716575 L 94.2406992682,39.9240637363 L 94.2394896278,39.926199051 L 94.2343637463,39.9347510675 L 94.233050813,39.9368244172 L 94.2316376855,39.9388309059 L 94.2256982423,39.9468393179 L 94.2241883766,39.9487740313 L 94.2225854141,39.95063231 L 94.2158896094,39.9580199921 L 94.2141973977,39.959797378 L 94.2124199921,39.9614896094 L 94.20503231,39.9681854141 L 94.2031740059,39.9697883974 L 94.2012393179,39.9712982424 L 94.1932309059,39.9772376855 L 94.1912244527,39.9786507893 L 94.1891510675,39.9799637463 L 94.180599051,39.9850896278 L 94.1784637295,39.9862992718 L 94.1762716575,39.9874026678 L 94.167258397,39.9916656225 L 94.1650148059,39.9926601378 L 94.1627251235,39.9935433659 L 94.1533374217,39.9969023393 L 94.1510071503,39.9976721566 L 94.1486419262,39.9983267023 L 94.1389701918,40.0007493456 L 94.1365756742,40.0012870519 L 94.1341576943,40.0017066109 L 94.1242950713,40.0031695928 L 94.1218593817,40.0034700059 L 94.1194119189,40.0036505413 L 94.1094533868,40.0041397727 L 94.108227022,40.0041849418 L 94.1069999969,40.0042 L 0.101600003117,40.0042 L 0.100372971626,40.0041849417 L 0.0991466131701,40.0041397727 L 0.089188081054,40.0036505413 L 0.0867405900314,40.0034700031 L 0.084304928652,40.0031695928 L 0.0744423057283,40.0017066109 L 0.0720242777424,40.0012870423 L 0.0696298082395,40.0007493456 L 0.0599580738442,39.9983267023 L 0.057592844716,39.9976721551 L 0.0552625782505,39.9969023393 L 0.045874876473,39.9935433659 L 0.0435851929568,39.9926601373 L 0.0413416029634,39.9916656225 L 0.0323283425037,39.9874026678 L 0.0301362572436,39.9862992647 L 0.0280009489805,39.9850896278 L 0.0194489324639,39.9799637463 L 0.0173755448602,39.9786507876 L 0.0153690940923,39.9772376855 L 0.00736068211266,39.9712982424 L 0.00542596002755,39.9697883695 L 0.00356768996656,39.9681854141 L -0.00381999209079,39.9614896094 L -0.00559740289047,39.9597973727 L -0.00728960942368,39.9580199921 L -0.013985414142,39.95063231 L -0.0155883898304,39.9487740152 L -0.0170982423501,39.9468393179 L -0.0230376854696,39.9388309059 L -0.024450797673,39.9368244401 L -0.0257637463156,39.9347510675 L -0.0308896277522,39.926199051 L -0.0320992632784,39.9240637454 L -0.0332026677799,39.9218716575 L -0.0374656224934,39.912858397 L -0.0384601425573,39.9106147944 L -0.0393433658629,39.9083251235 L -0.0427023392689,39.8989374217 L -0.0434721547252,39.8966071566 L -0.0441267022852,39.8942419262 L -0.0465493456336,39.8845701918 L -0.0470870490347,39.8821756886 L -0.0475066109021,39.8797576943 L -0.0489695928132,39.8698950713 L -0.0492700047753,39.8674593932 L -0.0494505413461,39.8650119189 L -0.0499397726573,39.8550533868 L -0.0499849409467,39.8538270578 L -0.05,39.8525999969 z M 0.253200228814,39.7009999999 L 0.25320000029,0.253200253865 L 93.9553997463,0.253200000135 L 93.9553999997,39.7009997461 L 0.253200228814,39.7009999999 z" fill="#66cc99" fill-rule="evenodd" opacity="0.6" stroke="#555555" stroke-width="0.1"/>
	</g>
	 
</svg>
