999
dxfrw 0.6.3
  0
SECTION
  2
HEADER
  9
$ACADVER
  1
AC1021
  9
$DWGCODEPAGE
  3
ANSI_1252
  9
$INSBASE
 10
0
 20
0
 30
0
  9
$EXTMIN
 10
0.85
 20
0.85
 30
0
  9
$EXTMAX
 10
251.15
 20
336.469
 30
0
  9
$LIMMIN
 10
0
 20
0
  9
$LIMMAX
 10
420
 20
297
  9
$ORTHOMODE
 70
    0
  9
$REGENMODE
 70
    1
  9
$FILLMODE
 70
    1
  9
$QTEXTMODE
 70
    0
  9
$MIRRTEXT
 70
    0
  9
$LTSCALE
 40
1
  9
$ATTMODE
 70
    0
  9
$TEXTSIZE
 40
2.5
  9
$TRACEWID
 40
15.68
  9
$TEXTSTYLE
  7
STANDARD
  9
$CLAYER
  8
0
  9
$CELTYPE
  6
BYLAYER
  9
$CECOLOR
 62
  256
  9
$CELTSCALE
 40
1
  9
$DISPSILH
 70
    0
  9
$DIMSCALE
 40
2.5
  9
$DIMASZ
 40
2.5
  9
$DIMEXO
 40
0.625
  9
$DIMDLI
 40
3.75
  9
$DIMRND
 40
0
  9
$DIMDLE
 40
0
  9
$DIMEXE
 40
1.25
  9
$DIMTP
 40
0
  9
$DIMTM
 40
0
  9
$DIMTXT
 40
2.5
  9
$DIMCEN
 40
2.5
  9
$DIMTSZ
 40
0
  9
$DIMTOL
 70
    0
  9
$DIMLIM
 70
    0
  9
$DIMTIH
 70
    0
  9
$DIMTOH
 70
    0
  9
$DIMSE1
 70
    0
  9
$DIMSE2
 70
    0
  9
$DIMTAD
 70
    1
  9
$DIMZIN
 70
    8
  9
$DIMBLK
  1

  9
$DIMASO
 70
    1
  9
$DIMSHO
 70
    1
  9
$DIMPOST
  1

  9
$DIMAPOST
  1

  9
$DIMALT
 70
    0
  9
$DIMALTD
 70
    3
  9
$DIMALTF
 40
0.03937
  9
$DIMLFAC
 40
1
  9
$DIMTOFL
 70
    1
  9
$DIMTVP
 40
0
  9
$DIMTIX
 70
    0
  9
$DIMSOXD
 70
    0
  9
$DIMSAH
 70
    0
  9
$DIMBLK1
  1

  9
$DIMBLK2
  1

  9
$DIMSTYLE
  2
Standard
  9
$DIMCLRD
 70
    0
  9
$DIMCLRE
 70
    0
  9
$DIMCLRT
 70
    0
  9
$DIMTFAC
 40
1
  9
$DIMGAP
 40
0.625
  9
$DIMJUST
 70
    0
  9
$DIMSD1
 70
    0
  9
$DIMSD2
 70
    0
  9
$DIMTOLJ
 70
    0
  9
$DIMTZIN
 70
    8
  9
$DIMALTZ
 70
    0
  9
$DIMALTTZ
 70
    0
  9
$DIMUPT
 70
    0
  9
$DIMDEC
 70
    2
  9
$DIMTDEC
 70
    2
  9
$DIMALTU
 70
    2
  9
$DIMALTTD
 70
    3
  9
$DIMTXSTY
  7
STANDARD
  9
$DIMAUNIT
 70
    0
  9
$DIMADEC
 70
    0
  9
$DIMALTRND
 40
0
  9
$DIMAZIN
 70
    0
  9
$DIMDSEP
 70
   44
  9
$DIMATFIT
 70
    3
  9
$DIMFRAC
 70
    0
  9
$DIMLDRBLK
  1
STANDARD
  9
$DIMLUNIT
 70
    2
  9
$DIMLWD
 70
   -2
  9
$DIMLWE
 70
   -2
  9
$DIMTMOVE
 70
    0
  9
$DIMFXL
 40
1
  9
$DIMFXLON
 70
    0
  9
$DIMJOGANG
 40
0.7854
  9
$DIMTFILL
 70
    0
  9
$DIMTFILLCLR
 70
    0
  9
$DIMARCSYM
 70
    0
  9
$DIMLTYPE
  6

  9
$DIMLTEX1
  6

  9
$DIMLTEX2
  6

  9
$LUNITS
 70
    2
  9
$LUPREC
 70
    4
  9
$SKETCHINC
 40
1
  9
$FILLETRAD
 40
0
  9
$AUNITS
 70
    0
  9
$AUPREC
 70
    2
  9
$MENU
  1
.
  9
$ELEVATION
 40
0
  9
$PELEVATION
 40
0
  9
$THICKNESS
 40
0
  9
$LIMCHECK
 70
    0
  9
$CHAMFERA
 40
0
  9
$CHAMFERB
 40
0
  9
$CHAMFERC
 40
0
  9
$CHAMFERD
 40
0
  9
$SKPOLY
 70
    0
  9
$USRTIMER
 70
    1
  9
$ANGBASE
 50
0
  9
$ANGDIR
 70
    0
  9
$PDMODE
 70
   34
  9
$PDSIZE
 40
0
  9
$PLINEWID
 40
0
  9
$SPLFRAME
 70
    0
  9
$SPLINETYPE
 70
    2
  9
$SPLINESEGS
 70
    8
  9
$HANDSEED
  5
20000
  9
$SURFTAB1
 70
    6
  9
$SURFTAB2
 70
    6
  9
$SURFTYPE
 70
    6
  9
$SURFU
 70
    6
  9
$SURFV
 70
    6
  9
$UCSBASE
  2

  9
$UCSNAME
  2

  9
$UCSORG
 10
0
 20
0
 30
0
  9
$UCSXDIR
 10
1
 20
0
 30
0
  9
$UCSYDIR
 10
0
 20
1
 30
0
  9
$UCSORTHOREF
  2

  9
$UCSORTHOVIEW
 70
    0
  9
$UCSORGTOP
 10
0
 20
0
 30
0
  9
$UCSORGBOTTOM
 10
0
 20
0
 30
0
  9
$UCSORGLEFT
 10
0
 20
0
 30
0
  9
$UCSORGRIGHT
 10
0
 20
0
 30
0
  9
$UCSORGFRONT
 10
0
 20
0
 30
0
  9
$UCSORGBACK
 10
0
 20
0
 30
0
  9
$PUCSBASE
  2

  9
$PUCSNAME
  2

  9
$PUCSORG
 10
0
 20
0
 30
0
  9
$PUCSXDIR
 10
1
 20
0
 30
0
  9
$PUCSYDIR
 10
0
 20
1
 30
0
  9
$PUCSORTHOREF
  2

  9
$PUCSORTHOVIEW
 70
    0
  9
$PUCSORGTOP
 10
0
 20
0
 30
0
  9
$PUCSORGBOTTOM
 10
0
 20
0
 30
0
  9
$PUCSORGLEFT
 10
0
 20
0
 30
0
  9
$PUCSORGRIGHT
 10
0
 20
0
 30
0
  9
$PUCSORGFRONT
 10
0
 20
0
 30
0
  9
$PUCSORGBACK
 10
0
 20
0
 30
0
  9
$USERI1
 70
    0
  9
$USERI2
 70
    0
  9
$USERI3
 70
    0
  9
$USERI4
 70
    0
  9
$USERI5
 70
    0
  9
$USERR1
 40
0
  9
$USERR2
 40
0
  9
$USERR3
 40
0
  9
$USERR4
 40
0
  9
$USERR5
 40
0
  9
$WORLDVIEW
 70
    1
  9
$SHADEDGE
 70
    3
  9
$SHADEDIF
 70
   70
  9
$TILEMODE
 70
    1
  9
$MAXACTVP
 70
   64
  9
$PINSBASE
 10
0
 20
0
 30
0
  9
$PLIMCHECK
 70
    0
  9
$PEXTMIN
 10
0
 20
0
 30
0
  9
$PEXTMAX
 10
0
 20
0
 30
0
  9
$SNAPSTYLE
 70
    0
  9
$PLIMMIN
 10
0
 20
0
  9
$PLIMMAX
 10
210
 20
297
  9
$UNITMODE
 70
    0
  9
$VISRETAIN
 70
    1
  9
$PLINEGEN
 70
    0
  9
$PSLTSCALE
 70
    1
  9
$TREEDEPTH
 70
 3020
  9
$CMLSTYLE
  2
Standard
  9
$CMLJUST
 70
    0
  9
$CMLSCALE
 40
20
  9
$PROXYGRAPHICS
 70
    1
  9
$MEASUREMENT
 70
    1
  9
$CELWEIGHT
370
   -1
  9
$ENDCAPS
280
    0
  9
$JOINSTYLE
280
    0
  9
$LWDISPLAY
290
    0
  9
$INSUNITS
 70
    4
  9
$HYPERLINKBASE
  1

  9
$STYLESHEET
  1

  9
$XEDIT
290
    1
  9
$CEPSNTYPE
380
    0
  9
$PSTYLEMODE
290
    1
  9
$EXTNAMES
290
    1
  9
$PSVPSCALE
 40
1
  9
$OLESTARTUP
290
    0
  9
$SORTENTS
280
  127
  9
$INDEXCTL
280
    0
  9
$HIDETEXT
280
    1
  9
$XCLIPFRAME
290
    0
  9
$HALOGAP
280
    0
  9
$OBSCOLOR
 70
  257
  9
$OBSLTYPE
280
    0
  9
$INTERSECTIONDISPLAY
280
    0
  9
$INTERSECTIONCOLOR
 70
  257
  9
$DIMASSOC
280
    1
  9
$PROJECTNAME
  1

  9
$CAMERADISPLAY
290
    0
  9
$LENSLENGTH
 40
50
  9
$CAMERAHEIGHT
 40
0
  9
$STEPSPERSEC
 40
2
  9
$STEPSIZE
 40
50
  9
$3DDWFPREC
 40
2
  9
$PSOLWIDTH
 40
5
  9
$PSOLHEIGHT
 40
80
  9
$LOFTANG1
 40
1.570796326794897
  9
$LOFTANG2
 40
1.570796326794897
  9
$LOFTMAG1
 40
0
  9
$LOFTMAG2
 40
0
  9
$LOFTPARAM
 70
    7
  9
$LOFTNORMALS
280
    1
  9
$LATITUDE
 40
1
  9
$LONGITUDE
 40
1
  9
$NORTHDIRECTION
 40
0
  9
$TIMEZONE
 70
-8000
  9
$LIGHTGLYPHDISPLAY
280
    1
  9
$TILEMODELIGHTSYNCH
280
    1
  9
$SOLIDHIST
280
    1
  9
$SHOWHIST
280
    1
  9
$DWFFRAME
280
    2
  9
$DGNFRAME
280
    0
  9
$REALWORLDSCALE
290
    1
  9
$INTERFERECOLOR
 62
    1
  9
$CSHADOW
280
    0
  9
$SHADOWPLANELOCATION
 40
0
  0
ENDSEC
  0
SECTION
  2
CLASSES
  0
ENDSEC
  0
SECTION
  2
TABLES
  0
TABLE
  2
VPORT
  5
8
330
0
100
AcDbSymbolTable
 70
    1
  0
VPORT
  5
31
330
2
100
AcDbSymbolTableRecord
100
AcDbViewportTableRecord
  2
*ACTIVE
 70
    0
 10
0
 20
0
 11
1
 21
1
 12
291.4031525068522
 22
188.5073220109201
 13
0
 23
0
 14
10
 24
10
 15
10
 25
10
 16
0
 26
0
 36
1
 17
0
 27
0
 37
0
 40
396.4595253754022
 41
2.025885558583106
 42
50
 43
0
 44
0
 50
0
 51
0
 71
    0
 72
  100
 73
    1
 74
    3
 75
    0
 76
    1
 77
    0
 78
    0
281
    0
 65
    1
110
0
120
0
130
0
111
1
121
0
131
0
112
0
122
1
132
0
 79
    0
146
0
348
10020
 60
    7
 61
    5
292
1
282
    1
141
0
142
0
 63
  250
421
3358443
  0
ENDTAB
  0
TABLE
  2
LTYPE
  5
5
330
0
100
AcDbSymbolTable
 70
    4
  0
LTYPE
  5
14
330
5
100
AcDbSymbolTableRecord
100
AcDbLinetypeTableRecord
  2
ByBlock
 70
    0
  3

 72
   65
 73
    0
 40
0
  0
LTYPE
  5
15
330
5
100
AcDbSymbolTableRecord
100
AcDbLinetypeTableRecord
  2
ByLayer
 70
    0
  3

 72
   65
 73
    0
 40
0
  0
LTYPE
  5
16
330
5
100
AcDbSymbolTableRecord
100
AcDbLinetypeTableRecord
  2
Continuous
 70
    0
  3
Solid line
 72
   65
 73
    0
 40
0
  0
LTYPE
  5
32
330
5
100
AcDbSymbolTableRecord
100
AcDbLinetypeTableRecord
  2
DOT
 70
    0
  3
Dot . . . . . . . . . . . . . . . . . . . . . .
 72
   65
 73
    2
 40
6.35
 49
0
 74
    0
 49
-6.35
 74
    0
  0
LTYPE
  5
33
330
5
100
AcDbSymbolTableRecord
100
AcDbLinetypeTableRecord
  2
DOTTINY
 70
    0
  3
Dot (.15x) .....................................
 72
   65
 73
    2
 40
0.9525
 49
0
 74
    0
 49
-0.9525
 74
    0
  0
LTYPE
  5
34
330
5
100
AcDbSymbolTableRecord
100
AcDbLinetypeTableRecord
  2
DOT2
 70
    0
  3
Dot (.5x) .....................................
 72
   65
 73
    2
 40
3.175
 49
0
 74
    0
 49
-3.175
 74
    0
  0
LTYPE
  5
35
330
5
100
AcDbSymbolTableRecord
100
AcDbLinetypeTableRecord
  2
DOTX2
 70
    0
  3
Dot (2x) .  .  .  .  .  .  .  .  .  .  .  .  .
 72
   65
 73
    2
 40
12.7
 49
0
 74
    0
 49
-12.7
 74
    0
  0
LTYPE
  5
36
330
5
100
AcDbSymbolTableRecord
100
AcDbLinetypeTableRecord
  2
DASHED
 70
    0
  3
Dashed _ _ _ _ _ _ _ _ _ _ _ _ _ _ _ _ _
 72
   65
 73
    2
 40
19.05
 49
12.7
 74
    0
 49
-6.35
 74
    0
  0
LTYPE
  5
37
330
5
100
AcDbSymbolTableRecord
100
AcDbLinetypeTableRecord
  2
DASHEDTINY
 70
    0
  3
Dashed (.15x) _ _ _ _ _ _ _ _ _ _ _ _ _ _ _ _ _
 72
   65
 73
    2
 40
2.8575
 49
1.905
 74
    0
 49
-0.9525
 74
    0
  0
LTYPE
  5
38
330
5
100
AcDbSymbolTableRecord
100
AcDbLinetypeTableRecord
  2
DASHED2
 70
    0
  3
Dashed (.5x) _ _ _ _ _ _ _ _ _ _ _ _ _ _ _ _ _
 72
   65
 73
    2
 40
9.524999999999999
 49
6.35
 74
    0
 49
-3.175
 74
    0
  0
LTYPE
  5
39
330
5
100
AcDbSymbolTableRecord
100
AcDbLinetypeTableRecord
  2
DASHEDX2
 70
    0
  3
Dashed (2x) ____  ____  ____  ____  ____  ___
 72
   65
 73
    2
 40
38.09999999999999
 49
25.4
 74
    0
 49
-12.7
 74
    0
  0
LTYPE
  5
3A
330
5
100
AcDbSymbolTableRecord
100
AcDbLinetypeTableRecord
  2
DASHDOT
 70
    0
  3
Dash dot __ . __ . __ . __ . __ . __ . __ . __
 72
   65
 73
    4
 40
25.4
 49
12.7
 74
    0
 49
-6.35
 74
    0
 49
0
 74
    0
 49
-6.35
 74
    0
  0
LTYPE
  5
3B
330
5
100
AcDbSymbolTableRecord
100
AcDbLinetypeTableRecord
  2
DASHDOTTINY
 70
    0
  3
Dash dot (.15x) _._._._._._._._._._._._._._._.
 72
   65
 73
    4
 40
3.81
 49
1.905
 74
    0
 49
-0.9525
 74
    0
 49
0
 74
    0
 49
-0.9525
 74
    0
  0
LTYPE
  5
3C
330
5
100
AcDbSymbolTableRecord
100
AcDbLinetypeTableRecord
  2
DASHDOT2
 70
    0
  3
Dash dot (.5x) _._._._._._._._._._._._._._._.
 72
   65
 73
    4
 40
12.7
 49
6.35
 74
    0
 49
-3.175
 74
    0
 49
0
 74
    0
 49
-3.175
 74
    0
  0
LTYPE
  5
3D
330
5
100
AcDbSymbolTableRecord
100
AcDbLinetypeTableRecord
  2
DASHDOTX2
 70
    0
  3
Dash dot (2x) ____  .  ____  .  ____  .  ___
 72
   65
 73
    4
 40
50.8
 49
25.4
 74
    0
 49
-12.7
 74
    0
 49
0
 74
    0
 49
-12.7
 74
    0
  0
LTYPE
  5
3E
330
5
100
AcDbSymbolTableRecord
100
AcDbLinetypeTableRecord
  2
DIVIDE
 70
    0
  3
Divide ____ . . ____ . . ____ . . ____ . . ____
 72
   65
 73
    6
 40
31.75
 49
12.7
 74
    0
 49
-6.35
 74
    0
 49
0
 74
    0
 49
-6.35
 74
    0
 49
0
 74
    0
 49
-6.35
 74
    0
  0
LTYPE
  5
3F
330
5
100
AcDbSymbolTableRecord
100
AcDbLinetypeTableRecord
  2
DIVIDETINY
 70
    0
  3
Divide (.15x) __..__..__..__..__..__..__..__.._
 72
   65
 73
    6
 40
4.7625
 49
1.905
 74
    0
 49
-0.9525
 74
    0
 49
0
 74
    0
 49
-0.9525
 74
    0
 49
0
 74
    0
 49
-0.9525
 74
    0
  0
LTYPE
  5
40
330
5
100
AcDbSymbolTableRecord
100
AcDbLinetypeTableRecord
  2
DIVIDE2
 70
    0
  3
Divide (.5x) __..__..__..__..__..__..__..__.._
 72
   65
 73
    6
 40
15.875
 49
6.35
 74
    0
 49
-3.175
 74
    0
 49
0
 74
    0
 49
-3.175
 74
    0
 49
0
 74
    0
 49
-3.175
 74
    0
  0
LTYPE
  5
41
330
5
100
AcDbSymbolTableRecord
100
AcDbLinetypeTableRecord
  2
DIVIDEX2
 70
    0
  3
Divide (2x) ________  .  .  ________  .  .  _
 72
   65
 73
    6
 40
63.5
 49
25.4
 74
    0
 49
-12.7
 74
    0
 49
0
 74
    0
 49
-12.7
 74
    0
 49
0
 74
    0
 49
-12.7
 74
    0
  0
LTYPE
  5
42
330
5
100
AcDbSymbolTableRecord
100
AcDbLinetypeTableRecord
  2
BORDER
 70
    0
  3
Border __ __ . __ __ . __ __ . __ __ . __ __ .
 72
   65
 73
    6
 40
44.45
 49
12.7
 74
    0
 49
-6.35
 74
    0
 49
12.7
 74
    0
 49
-6.35
 74
    0
 49
0
 74
    0
 49
-6.35
 74
    0
  0
LTYPE
  5
43
330
5
100
AcDbSymbolTableRecord
100
AcDbLinetypeTableRecord
  2
BORDERTINY
 70
    0
  3
Border (.15x) __.__.__.__.__.__.__.__.__.__.__.
 72
   65
 73
    6
 40
6.6675
 49
1.905
 74
    0
 49
-0.9525
 74
    0
 49
1.905
 74
    0
 49
-0.9525
 74
    0
 49
0
 74
    0
 49
-0.9525
 74
    0
  0
LTYPE
  5
44
330
5
100
AcDbSymbolTableRecord
100
AcDbLinetypeTableRecord
  2
BORDER2
 70
    0
  3
Border (.5x) __.__.__.__.__.__.__.__.__.__.__.
 72
   65
 73
    6
 40
22.225
 49
6.35
 74
    0
 49
-3.175
 74
    0
 49
6.35
 74
    0
 49
-3.175
 74
    0
 49
0
 74
    0
 49
-3.175
 74
    0
  0
LTYPE
  5
45
330
5
100
AcDbSymbolTableRecord
100
AcDbLinetypeTableRecord
  2
BORDERX2
 70
    0
  3
Border (2x) ____  ____  .  ____  ____  .  ___
 72
   65
 73
    6
 40
88.89999999999999
 49
25.4
 74
    0
 49
-12.7
 74
    0
 49
25.4
 74
    0
 49
-12.7
 74
    0
 49
0
 74
    0
 49
-12.7
 74
    0
  0
LTYPE
  5
46
330
5
100
AcDbSymbolTableRecord
100
AcDbLinetypeTableRecord
  2
CENTER
 70
    0
  3
Center ____ _ ____ _ ____ _ ____ _ ____ _ ____
 72
   65
 73
    4
 40
50.8
 49
31.75
 74
    0
 49
-6.35
 74
    0
 49
6.35
 74
    0
 49
-6.35
 74
    0
  0
LTYPE
  5
47
330
5
100
AcDbSymbolTableRecord
100
AcDbLinetypeTableRecord
  2
CENTERTINY
 70
    0
  3
Center (.15x) ___ _ ___ _ ___ _ ___ _ ___ _ ___
 72
   65
 73
    4
 40
7.62
 49
4.7625
 74
    0
 49
-0.9525
 74
    0
 49
0.9525
 74
    0
 49
-0.9525
 74
    0
  0
LTYPE
  5
48
330
5
100
AcDbSymbolTableRecord
100
AcDbLinetypeTableRecord
  2
CENTER2
 70
    0
  3
Center (.5x) ___ _ ___ _ ___ _ ___ _ ___ _ ___
 72
   65
 73
    4
 40
28.575
 49
19.05
 74
    0
 49
-3.175
 74
    0
 49
3.175
 74
    0
 49
-3.175
 74
    0
  0
LTYPE
  5
49
330
5
100
AcDbSymbolTableRecord
100
AcDbLinetypeTableRecord
  2
CENTERX2
 70
    0
  3
Center (2x) ________  __  ________  __  _____
 72
   65
 73
    4
 40
101.6
 49
63.5
 74
    0
 49
-12.7
 74
    0
 49
12.7
 74
    0
 49
-12.7
 74
    0
  0
ENDTAB
  0
TABLE
  2
LAYER
  5
2
330
0
100
AcDbSymbolTable
 70
    1
  0
LAYER
  5
10
330
2
100
AcDbSymbolTableRecord
100
AcDbLayerTableRecord
  2
0
 70
    0
 62
    7
  6
CONTINUOUS
370
    0
390
F
  0
ENDTAB
  0
TABLE
  2
STYLE
  5
3
330
0
100
AcDbSymbolTable
 70
    3
  0
STYLE
  5
4A
330
2
100
AcDbSymbolTableRecord
100
AcDbTextStyleTableRecord
  2
Standard
 70
    0
 40
0
 41
1
 50
0
 71
    0
 42
1
  3
txt
  4

  0
ENDTAB
  0
TABLE
  2
VIEW
  5
6
330
0
100
AcDbSymbolTable
 70
    0
  0
ENDTAB
  0
TABLE
  2
UCS
  5
7
330
0
100
AcDbSymbolTable
 70
    0
  0
ENDTAB
  0
TABLE
  2
APPID
  5
9
330
0
100
AcDbSymbolTable
 70
    1
  0
APPID
  5
12
330
9
100
AcDbSymbolTableRecord
100
AcDbRegAppTableRecord
  2
ACAD
 70
    0
  0
APPID
  5
4B
330
9
100
AcDbSymbolTableRecord
100
AcDbRegAppTableRecord
  2
LibreCad
 70
    0
  0
ENDTAB
  0
TABLE
  2
DIMSTYLE
  5
A
330
0
100
AcDbSymbolTable
 70
    1
100
AcDbDimStyleTable
 71
    1
  0
DIMSTYLE
105
4C
330
A
100
AcDbSymbolTableRecord
100
AcDbDimStyleTableRecord
  2
Standard
 70
    0
 40
1
 41
2.5
 42
0.625
 43
0.38
 44
1.25
 45
0
 46
0
 47
0
 48
0
 49
1
140
2.5
141
0.09
142
2.5
143
25.4
144
1
145
0
146
1
147
0.625
148
0
 71
    0
 72
    0
 73
    0
 74
    1
 75
    0
 76
    0
 77
    0
 78
    1
 79
    0
170
    0
171
    2
172
    0
173
    0
174
    0
175
    0
176
    0
177
    0
178
    0
179
    0
271
    2
272
    4
273
    2
274
    2
275
    0
276
    0
277
    2
278
    0
279
    0
280
    0
281
    0
282
    0
283
    1
284
    0
285
    0
286
    0
288
    0
289
    3
340
standard
341

371
   -2
372
   -2
  0
ENDTAB
  0
TABLE
  2
BLOCK_RECORD
  5
1
330
0
100
AcDbSymbolTable
 70
    2
  0
BLOCK_RECORD
  5
1F
330
1
100
AcDbSymbolTableRecord
100
AcDbBlockTableRecord
  2
*Model_Space
 70
    0
280
    1
281
    0
  0
BLOCK_RECORD
  5
1E
330
1
100
AcDbSymbolTableRecord
100
AcDbBlockTableRecord
  2
*Paper_Space
 70
    0
280
    1
281
    0
  0
ENDTAB
  0
ENDSEC
  0
SECTION
  2
BLOCKS
  0
BLOCK
  5
20
330
1F
100
AcDbEntity
  8
0
100
AcDbBlockBegin
  2
*Model_Space
 70
    0
 10
0
 20
0
 30
0
  3
*Model_Space
  1

  0
ENDBLK
  5
21
330
1F
100
AcDbEntity
  8
0
100
AcDbBlockEnd
  0
BLOCK
  5
1C
330
1B
100
AcDbEntity
  8
0
100
AcDbBlockBegin
  2
*Paper_Space
 70
    0
 10
0
 20
0
 30
0
  3
*Paper_Space
  1

  0
ENDBLK
  5
1D
330
1F
100
AcDbEntity
  8
0
100
AcDbBlockEnd
  0
ENDSEC
  0
SECTION
  2
ENTITIES
  0
LINE
  5
4D
100
AcDbEntity
  8
0
  6
ByLayer
 62
    1
370
   -1
100
AcDbLine
 10
162.15
 20
264.157
 11
162.15
 21
265.85
  0
LINE
  5
4E
100
AcDbEntity
  8
0
  6
ByLayer
 62
    1
370
   -1
100
AcDbLine
 10
162.15
 20
265.85
 11
105.65
 21
265.85
  0
LINE
  5
4F
100
AcDbEntity
  8
0
  6
ByLayer
 62
    1
370
   -1
100
AcDbLine
 10
105.65
 20
265.85
 11
105.65
 21
244.15
  0
LINE
  5
50
100
AcDbEntity
  8
0
  6
ByLayer
 62
    1
370
   -1
100
AcDbLine
 10
105.65
 20
244.15
 11
162.15
 21
244.15
  0
LINE
  5
51
100
AcDbEntity
  8
0
  6
ByLayer
 62
    1
370
   -1
100
AcDbLine
 10
162.15
 20
244.15
 11
162.15
 21
244.59
  0
LINE
  5
52
100
AcDbEntity
  8
0
  6
ByLayer
 62
    1
370
   -1
100
AcDbLine
 10
92.358
 20
244.15
 11
93.55
 21
244.15
  0
LINE
  5
53
100
AcDbEntity
  8
0
  6
ByLayer
 62
    1
370
   -1
100
AcDbLine
 10
93.55
 20
244.15
 11
93.55
 21
265.85
  0
LINE
  5
54
100
AcDbEntity
  8
0
  6
ByLayer
 62
    1
370
   -1
100
AcDbLine
 10
93.55
 20
265.85
 11
86.15000000000001
 21
265.85
  0
LINE
  5
55
100
AcDbEntity
  8
0
  6
ByLayer
 62
    1
370
   -1
100
AcDbLine
 10
86.15000000000001
 20
265.85
 11
86.15000000000001
 21
244.15
  0
LINE
  5
56
100
AcDbEntity
  8
0
  6
ByLayer
 62
    1
370
   -1
100
AcDbLine
 10
86.15000000000001
 20
244.15
 11
92.358
 21
244.15
  0
LINE
  5
57
100
AcDbEntity
  8
0
  6
ByLayer
 62
    1
370
   -1
100
AcDbLine
 10
70.072
 20
217.46
 11
70.072
 21
218.954
  0
LINE
  5
58
100
AcDbEntity
  8
0
  6
ByLayer
 62
    1
370
   -1
100
AcDbLine
 10
70.072
 20
218.954
 11
70.072
 21
219.254
  0
LINE
  5
59
100
AcDbEntity
  8
0
  6
ByLayer
 62
    1
370
   -1
100
AcDbLine
 10
70.072
 20
219.254
 11
27.372
 21
219.254
  0
LINE
  5
5A
100
AcDbEntity
  8
0
  6
ByLayer
 62
    1
370
   -1
100
AcDbLine
 10
27.372
 20
219.254
 11
27.372
 21
121.554
  0
LINE
  5
5B
100
AcDbEntity
  8
0
  6
ByLayer
 62
    1
370
   -1
100
AcDbLine
 10
27.372
 20
121.554
 11
70.072
 21
121.554
  0
LINE
  5
5C
100
AcDbEntity
  8
0
  6
ByLayer
 62
    1
370
   -1
100
AcDbLine
 10
70.072
 20
121.554
 11
70.072
 21
217.46
  0
LINE
  5
5D
100
AcDbEntity
  8
0
  6
ByLayer
 62
    1
370
   -1
100
AcDbLine
 10
187.3
 20
264.007
 11
162.45
 21
264.007
  0
LINE
  5
5E
100
AcDbEntity
  8
0
  6
ByLayer
 62
    1
370
   -1
100
AcDbLine
 10
162.45
 20
264.007
 11
162.45
 21
244.74
  0
LINE
  5
5F
100
AcDbEntity
  8
0
  6
ByLayer
 62
    1
370
   -1
100
AcDbLine
 10
162.45
 20
244.74
 11
187.3
 21
244.74
  0
ARC
  5
60
100
AcDbEntity
  8
0
  6
ByLayer
 62
    1
370
   -1
100
AcDbCircle
 10
126
 20
286.32
 40
10.85
100
AcDbArc
 50
0
 51
180
  0
ARC
  5
61
100
AcDbEntity
  8
0
  6
ByLayer
 62
    1
370
   -1
100
AcDbCircle
 10
126
 20
286.32
 40
10.85
100
AcDbArc
 50
180
 51
0
  0
ARC
  5
62
100
AcDbEntity
  8
0
  6
ByLayer
 62
    1
370
   -1
100
AcDbCircle
 10
7
 20
32.677
 40
1.45
100
AcDbArc
 50
90
 51
-90
  0
ARC
  5
63
100
AcDbEntity
  8
0
  6
ByLayer
 62
    1
370
   -1
100
AcDbCircle
 10
7
 20
32.677
 40
1.45
100
AcDbArc
 50
-90
 51
90
  0
ARC
  5
64
100
AcDbEntity
  8
0
  6
ByLayer
 62
    1
370
   -1
100
AcDbCircle
 10
7
 20
142.677
 40
1.45
100
AcDbArc
 50
-10.971709
 51
169.028291
  0
ARC
  5
65
100
AcDbEntity
  8
0
  6
ByLayer
 62
    1
370
   -1
100
AcDbCircle
 10
7
 20
142.677
 40
1.45
100
AcDbArc
 50
169.028291
 51
-10.971709
  0
ARC
  5
66
100
AcDbEntity
  8
0
  6
ByLayer
 62
    1
370
   -1
100
AcDbCircle
 10
33.25
 20
237.912
 40
2.4
100
AcDbArc
 50
161.619697
 51
-18.380303
  0
ARC
  5
67
100
AcDbEntity
  8
0
  6
ByLayer
 62
    1
370
   -1
100
AcDbCircle
 10
33.25
 20
237.912
 40
2.4
100
AcDbArc
 50
-18.380303
 51
161.619697
  0
ARC
  5
68
100
AcDbEntity
  8
0
  6
ByLayer
 62
    1
370
   -1
100
AcDbCircle
 10
33.25
 20
253.75
 40
5.7
100
AcDbArc
 50
-129.740573
 51
50.259427
  0
ARC
  5
69
100
AcDbEntity
  8
0
  6
ByLayer
 62
    1
370
   -1
100
AcDbCircle
 10
33.25
 20
253.75
 40
5.7
100
AcDbArc
 50
50.259427
 51
-129.740573
  0
ARC
  5
6A
100
AcDbEntity
  8
0
  6
ByLayer
 62
    1
370
   -1
100
AcDbCircle
 10
7
 20
252.677
 40
1.45
100
AcDbArc
 50
0
 51
180
  0
ARC
  5
6B
100
AcDbEntity
  8
0
  6
ByLayer
 62
    1
370
   -1
100
AcDbCircle
 10
7
 20
252.677
 40
1.45
100
AcDbArc
 50
180
 51
0
  0
ARC
  5
6C
100
AcDbEntity
  8
0
  6
ByLayer
 62
    1
370
   -1
100
AcDbCircle
 10
126
 20
286.32
 40
3.85
100
AcDbArc
 50
-90
 51
90
  0
ARC
  5
6D
100
AcDbEntity
  8
0
  6
ByLayer
 62
    1
370
   -1
100
AcDbCircle
 10
126
 20
286.32
 40
3.85
100
AcDbArc
 50
90
 51
-90
  0
LINE
  5
6E
100
AcDbEntity
  8
0
  6
ByLayer
 62
    1
370
   -1
100
AcDbLine
 10
187.45
 20
267.257
 11
187.45
 21
237.743
  0
LINE
  5
6F
100
AcDbEntity
  8
0
  6
ByLayer
 62
    1
370
   -1
100
AcDbLine
 10
187.45
 20
237.743
 11
187.447
 21
237.714
  0
LINE
  5
70
100
AcDbEntity
  8
0
  6
ByLayer
 62
    1
370
   -1
100
AcDbLine
 10
187.447
 20
237.714
 11
187.439
 21
237.686
  0
LINE
  5
71
100
AcDbEntity
  8
0
  6
ByLayer
 62
    1
370
   -1
100
AcDbLine
 10
187.439
 20
237.686
 11
187.425
 21
237.66
  0
LINE
  5
72
100
AcDbEntity
  8
0
  6
ByLayer
 62
    1
370
   -1
100
AcDbLine
 10
187.425
 20
237.66
 11
187.406
 21
237.637
  0
ARC
  5
73
100
AcDbEntity
  8
0
  6
ByLayer
 62
    1
370
   -1
100
AcDbCircle
 10
189.421
 20
235.621
 40
2.85
100
AcDbArc
 50
134.98677
 51
-134.999892
  0
ARC
  5
74
100
AcDbEntity
  8
0
  6
ByLayer
 62
    1
370
   -1
100
AcDbCircle
 10
189.421
 20
235.621
 40
2.85
100
AcDbArc
 50
-134.999892
 51
-44.986553
  0
LINE
  5
75
100
AcDbEntity
  8
0
  6
ByLayer
 62
    1
370
   -1
100
AcDbLine
 10
191.437
 20
233.606
 11
191.46
 21
233.625
  0
LINE
  5
76
100
AcDbEntity
  8
0
  6
ByLayer
 62
    1
370
   -1
100
AcDbLine
 10
191.46
 20
233.625
 11
191.486
 21
233.639
  0
LINE
  5
77
100
AcDbEntity
  8
0
  6
ByLayer
 62
    1
370
   -1
100
AcDbLine
 10
191.486
 20
233.639
 11
191.514
 21
233.647
  0
LINE
  5
78
100
AcDbEntity
  8
0
  6
ByLayer
 62
    1
370
   -1
100
AcDbLine
 10
191.514
 20
233.647
 11
191.543
 21
233.65
  0
LINE
  5
79
100
AcDbEntity
  8
0
  6
ByLayer
 62
    1
370
   -1
100
AcDbLine
 10
191.543
 20
233.65
 11
230.957
 21
233.65
  0
LINE
  5
7A
100
AcDbEntity
  8
0
  6
ByLayer
 62
    1
370
   -1
100
AcDbLine
 10
230.957
 20
233.65
 11
230.986
 21
233.647
  0
LINE
  5
7B
100
AcDbEntity
  8
0
  6
ByLayer
 62
    1
370
   -1
100
AcDbLine
 10
230.986
 20
233.647
 11
231.014
 21
233.639
  0
LINE
  5
7C
100
AcDbEntity
  8
0
  6
ByLayer
 62
    1
370
   -1
100
AcDbLine
 10
231.014
 20
233.639
 11
231.04
 21
233.625
  0
LINE
  5
7D
100
AcDbEntity
  8
0
  6
ByLayer
 62
    1
370
   -1
100
AcDbLine
 10
231.04
 20
233.625
 11
231.063
 21
233.606
  0
ARC
  5
7E
100
AcDbEntity
  8
0
  6
ByLayer
 62
    1
370
   -1
100
AcDbCircle
 10
233.079
 20
235.621
 40
2.85
100
AcDbArc
 50
-135.013447
 51
-45.000108
  0
ARC
  5
7F
100
AcDbEntity
  8
0
  6
ByLayer
 62
    1
370
   -1
100
AcDbCircle
 10
233.079
 20
235.621
 40
2.85
100
AcDbArc
 50
-45.000108
 51
45.01323
  0
LINE
  5
80
100
AcDbEntity
  8
0
  6
ByLayer
 62
    1
370
   -1
100
AcDbLine
 10
235.094
 20
237.637
 11
235.075
 21
237.66
  0
LINE
  5
81
100
AcDbEntity
  8
0
  6
ByLayer
 62
    1
370
   -1
100
AcDbLine
 10
235.075
 20
237.66
 11
235.061
 21
237.686
  0
LINE
  5
82
100
AcDbEntity
  8
0
  6
ByLayer
 62
    1
370
   -1
100
AcDbLine
 10
235.061
 20
237.686
 11
235.053
 21
237.714
  0
LINE
  5
83
100
AcDbEntity
  8
0
  6
ByLayer
 62
    1
370
   -1
100
AcDbLine
 10
235.053
 20
237.714
 11
235.05
 21
237.743
  0
LINE
  5
84
100
AcDbEntity
  8
0
  6
ByLayer
 62
    1
370
   -1
100
AcDbLine
 10
235.05
 20
237.743
 11
235.05
 21
272.257
  0
LINE
  5
85
100
AcDbEntity
  8
0
  6
ByLayer
 62
    1
370
   -1
100
AcDbLine
 10
235.05
 20
272.257
 11
235.053
 21
272.286
  0
LINE
  5
86
100
AcDbEntity
  8
0
  6
ByLayer
 62
    1
370
   -1
100
AcDbLine
 10
235.053
 20
272.286
 11
235.061
 21
272.314
  0
LINE
  5
87
100
AcDbEntity
  8
0
  6
ByLayer
 62
    1
370
   -1
100
AcDbLine
 10
235.061
 20
272.314
 11
235.075
 21
272.34
  0
LINE
  5
88
100
AcDbEntity
  8
0
  6
ByLayer
 62
    1
370
   -1
100
AcDbLine
 10
235.075
 20
272.34
 11
235.094
 21
272.363
  0
ARC
  5
89
100
AcDbEntity
  8
0
  6
ByLayer
 62
    1
370
   -1
100
AcDbCircle
 10
233.079
 20
274.379
 40
2.85
100
AcDbArc
 50
-45.01323
 51
45.000108
  0
ARC
  5
8A
100
AcDbEntity
  8
0
  6
ByLayer
 62
    1
370
   -1
100
AcDbCircle
 10
233.079
 20
274.379
 40
2.85
100
AcDbArc
 50
45.000108
 51
135.013447
  0
LINE
  5
8B
100
AcDbEntity
  8
0
  6
ByLayer
 62
    1
370
   -1
100
AcDbLine
 10
231.063
 20
276.394
 11
231.04
 21
276.375
  0
LINE
  5
8C
100
AcDbEntity
  8
0
  6
ByLayer
 62
    1
370
   -1
100
AcDbLine
 10
231.04
 20
276.375
 11
231.014
 21
276.361
  0
LINE
  5
8D
100
AcDbEntity
  8
0
  6
ByLayer
 62
    1
370
   -1
100
AcDbLine
 10
231.014
 20
276.361
 11
230.986
 21
276.353
  0
LINE
  5
8E
100
AcDbEntity
  8
0
  6
ByLayer
 62
    1
370
   -1
100
AcDbLine
 10
230.986
 20
276.353
 11
230.957
 21
276.35
  0
LINE
  5
8F
100
AcDbEntity
  8
0
  6
ByLayer
 62
    1
370
   -1
100
AcDbLine
 10
230.957
 20
276.35
 11
191.543
 21
276.35
  0
LINE
  5
90
100
AcDbEntity
  8
0
  6
ByLayer
 62
    1
370
   -1
100
AcDbLine
 10
191.543
 20
276.35
 11
191.514
 21
276.353
  0
LINE
  5
91
100
AcDbEntity
  8
0
  6
ByLayer
 62
    1
370
   -1
100
AcDbLine
 10
191.514
 20
276.353
 11
191.486
 21
276.361
  0
LINE
  5
92
100
AcDbEntity
  8
0
  6
ByLayer
 62
    1
370
   -1
100
AcDbLine
 10
191.486
 20
276.361
 11
191.46
 21
276.375
  0
LINE
  5
93
100
AcDbEntity
  8
0
  6
ByLayer
 62
    1
370
   -1
100
AcDbLine
 10
191.46
 20
276.375
 11
191.437
 21
276.394
  0
ARC
  5
94
100
AcDbEntity
  8
0
  6
ByLayer
 62
    1
370
   -1
100
AcDbCircle
 10
189.421
 20
274.379
 40
2.85
100
AcDbArc
 50
44.986553
 51
134.999892
  0
ARC
  5
95
100
AcDbEntity
  8
0
  6
ByLayer
 62
    1
370
   -1
100
AcDbCircle
 10
189.421
 20
274.379
 40
2.85
100
AcDbArc
 50
134.999892
 51
-134.98677
  0
LINE
  5
96
100
AcDbEntity
  8
0
  6
ByLayer
 62
    1
370
   -1
100
AcDbLine
 10
187.406
 20
272.363
 11
187.425
 21
272.34
  0
LINE
  5
97
100
AcDbEntity
  8
0
  6
ByLayer
 62
    1
370
   -1
100
AcDbLine
 10
187.425
 20
272.34
 11
187.439
 21
272.314
  0
LINE
  5
98
100
AcDbEntity
  8
0
  6
ByLayer
 62
    1
370
   -1
100
AcDbLine
 10
187.439
 20
272.314
 11
187.447
 21
272.286
  0
LINE
  5
99
100
AcDbEntity
  8
0
  6
ByLayer
 62
    1
370
   -1
100
AcDbLine
 10
187.447
 20
272.286
 11
187.45
 21
272.257
  0
LINE
  5
9A
100
AcDbEntity
  8
0
  6
ByLayer
 62
    1
370
   -1
100
AcDbLine
 10
187.45
 20
272.257
 11
187.45
 21
267.257
  0
ARC
  5
9B
100
AcDbEntity
  8
0
  6
ByLayer
 62
    1
370
   -1
100
AcDbCircle
 10
245
 20
252.677
 40
1.45
100
AcDbArc
 50
-140.485624
 51
39.514376
  0
ARC
  5
9C
100
AcDbEntity
  8
0
  6
ByLayer
 62
    1
370
   -1
100
AcDbCircle
 10
245
 20
252.677
 40
1.45
100
AcDbArc
 50
39.514376
 51
-140.485624
  0
ARC
  5
9D
100
AcDbEntity
  8
0
  6
ByLayer
 62
    1
370
   -1
100
AcDbCircle
 10
245
 20
142.677
 40
1.45
100
AcDbArc
 50
-100.971153
 51
79.028847
  0
ARC
  5
9E
100
AcDbEntity
  8
0
  6
ByLayer
 62
    1
370
   -1
100
AcDbCircle
 10
245
 20
142.677
 40
1.45
100
AcDbArc
 50
79.028847
 51
-100.971153
  0
ARC
  5
9F
100
AcDbEntity
  8
0
  6
ByLayer
 62
    1
370
   -1
100
AcDbCircle
 10
245
 20
32.677
 40
1.45
100
AcDbArc
 50
90
 51
-90
  0
ARC
  5
A0
100
AcDbEntity
  8
0
  6
ByLayer
 62
    1
370
   -1
100
AcDbCircle
 10
245
 20
32.677
 40
1.45
100
AcDbArc
 50
-90
 51
90
  0
LINE
  5
A1
100
AcDbEntity
  8
0
  6
ByLayer
 62
    1
370
   -1
100
AcDbLine
 10
251.15
 20
34.127
 11
251.15
 21
1
  0
LINE
  5
A2
100
AcDbEntity
  8
0
  6
ByLayer
 62
    1
370
   -1
100
AcDbLine
 10
251.15
 20
1
 11
251.146
 21
0.967
  0
LINE
  5
A3
100
AcDbEntity
  8
0
  6
ByLayer
 62
    1
370
   -1
100
AcDbLine
 10
251.146
 20
0.967
 11
251.135
 21
0.9350000000000001
  0
LINE
  5
A4
100
AcDbEntity
  8
0
  6
ByLayer
 62
    1
370
   -1
100
AcDbLine
 10
251.135
 20
0.9350000000000001
 11
251.117
 21
0.906
  0
LINE
  5
A5
100
AcDbEntity
  8
0
  6
ByLayer
 62
    1
370
   -1
100
AcDbLine
 10
251.117
 20
0.906
 11
251.094
 21
0.883
  0
LINE
  5
A6
100
AcDbEntity
  8
0
  6
ByLayer
 62
    1
370
   -1
100
AcDbLine
 10
251.094
 20
0.883
 11
251.065
 21
0.865
  0
LINE
  5
A7
100
AcDbEntity
  8
0
  6
ByLayer
 62
    1
370
   -1
100
AcDbLine
 10
251.065
 20
0.865
 11
251.033
 21
0.854
  0
LINE
  5
A8
100
AcDbEntity
  8
0
  6
ByLayer
 62
    1
370
   -1
100
AcDbLine
 10
251.033
 20
0.854
 11
251
 21
0.85
  0
LINE
  5
A9
100
AcDbEntity
  8
0
  6
ByLayer
 62
    1
370
   -1
100
AcDbLine
 10
251
 20
0.85
 11
1
 21
0.85
  0
LINE
  5
AA
100
AcDbEntity
  8
0
  6
ByLayer
 62
    1
370
   -1
100
AcDbLine
 10
1
 20
0.85
 11
0.967
 21
0.854
  0
LINE
  5
AB
100
AcDbEntity
  8
0
  6
ByLayer
 62
    1
370
   -1
100
AcDbLine
 10
0.967
 20
0.854
 11
0.9350000000000001
 21
0.865
  0
LINE
  5
AC
100
AcDbEntity
  8
0
  6
ByLayer
 62
    1
370
   -1
100
AcDbLine
 10
0.9350000000000001
 20
0.865
 11
0.906
 21
0.883
  0
LINE
  5
AD
100
AcDbEntity
  8
0
  6
ByLayer
 62
    1
370
   -1
100
AcDbLine
 10
0.906
 20
0.883
 11
0.883
 21
0.906
  0
LINE
  5
AE
100
AcDbEntity
  8
0
  6
ByLayer
 62
    1
370
   -1
100
AcDbLine
 10
0.883
 20
0.906
 11
0.865
 21
0.9350000000000001
  0
LINE
  5
AF
100
AcDbEntity
  8
0
  6
ByLayer
 62
    1
370
   -1
100
AcDbLine
 10
0.865
 20
0.9350000000000001
 11
0.854
 21
0.967
  0
LINE
  5
B0
100
AcDbEntity
  8
0
  6
ByLayer
 62
    1
370
   -1
100
AcDbLine
 10
0.854
 20
0.967
 11
0.85
 21
1
  0
LINE
  5
B1
100
AcDbEntity
  8
0
  6
ByLayer
 62
    1
370
   -1
100
AcDbLine
 10
0.85
 20
1
 11
0.85
 21
285.659
  0
LINE
  5
B2
100
AcDbEntity
  8
0
  6
ByLayer
 62
    1
370
   -1
100
AcDbLine
 10
0.85
 20
285.659
 11
0.853
 21
285.689
  0
LINE
  5
B3
100
AcDbEntity
  8
0
  6
ByLayer
 62
    1
370
   -1
100
AcDbLine
 10
0.853
 20
285.689
 11
0.862
 21
285.717
  0
LINE
  5
B4
100
AcDbEntity
  8
0
  6
ByLayer
 62
    1
370
   -1
100
AcDbLine
 10
0.862
 20
285.717
 11
0.876
 21
285.743
  0
LINE
  5
B5
100
AcDbEntity
  8
0
  6
ByLayer
 62
    1
370
   -1
100
AcDbLine
 10
0.876
 20
285.743
 11
0.895
 21
285.766
  0
LINE
  5
B6
100
AcDbEntity
  8
0
  6
ByLayer
 62
    1
370
   -1
100
AcDbLine
 10
0.895
 20
285.766
 11
0.918
 21
285.784
  0
LINE
  5
B7
100
AcDbEntity
  8
0
  6
ByLayer
 62
    1
370
   -1
100
AcDbLine
 10
0.918
 20
285.784
 11
0.944
 21
285.798
  0
LINE
  5
B8
100
AcDbEntity
  8
0
  6
ByLayer
 62
    1
370
   -1
100
AcDbLine
 10
0.944
 20
285.798
 11
90.699
 21
321.941
  0
LINE
  5
B9
100
AcDbEntity
  8
0
  6
ByLayer
 62
    1
370
   -1
100
AcDbLine
 10
90.699
 20
321.941
 11
91.151
 21
322.383
  0
LINE
  5
BA
100
AcDbEntity
  8
0
  6
ByLayer
 62
    1
370
   -1
100
AcDbLine
 10
91.151
 20
322.383
 11
91.608
 21
322.819
  0
LINE
  5
BB
100
AcDbEntity
  8
0
  6
ByLayer
 62
    1
370
   -1
100
AcDbLine
 10
91.608
 20
322.819
 11
92.06999999999999
 21
323.249
  0
LINE
  5
BC
100
AcDbEntity
  8
0
  6
ByLayer
 62
    1
370
   -1
100
AcDbLine
 10
92.06999999999999
 20
323.249
 11
92.538
 21
323.673
  0
LINE
  5
BD
100
AcDbEntity
  8
0
  6
ByLayer
 62
    1
370
   -1
100
AcDbLine
 10
92.538
 20
323.673
 11
93.011
 21
324.092
  0
LINE
  5
BE
100
AcDbEntity
  8
0
  6
ByLayer
 62
    1
370
   -1
100
AcDbLine
 10
93.011
 20
324.092
 11
93.489
 21
324.504
  0
LINE
  5
BF
100
AcDbEntity
  8
0
  6
ByLayer
 62
    1
370
   -1
100
AcDbLine
 10
93.489
 20
324.504
 11
93.973
 21
324.911
  0
LINE
  5
C0
100
AcDbEntity
  8
0
  6
ByLayer
 62
    1
370
   -1
100
AcDbLine
 10
93.973
 20
324.911
 11
94.462
 21
325.311
  0
LINE
  5
C1
100
AcDbEntity
  8
0
  6
ByLayer
 62
    1
370
   -1
100
AcDbLine
 10
94.462
 20
325.311
 11
94.955
 21
325.705
  0
LINE
  5
C2
100
AcDbEntity
  8
0
  6
ByLayer
 62
    1
370
   -1
100
AcDbLine
 10
94.955
 20
325.705
 11
95.45399999999999
 21
326.093
  0
LINE
  5
C3
100
AcDbEntity
  8
0
  6
ByLayer
 62
    1
370
   -1
100
AcDbLine
 10
95.45399999999999
 20
326.093
 11
95.95699999999999
 21
326.474
  0
LINE
  5
C4
100
AcDbEntity
  8
0
  6
ByLayer
 62
    1
370
   -1
100
AcDbLine
 10
95.95699999999999
 20
326.474
 11
96.465
 21
326.85
  0
LINE
  5
C5
100
AcDbEntity
  8
0
  6
ByLayer
 62
    1
370
   -1
100
AcDbLine
 10
96.465
 20
326.85
 11
96.97799999999999
 21
327.218
  0
LINE
  5
C6
100
AcDbEntity
  8
0
  6
ByLayer
 62
    1
370
   -1
100
AcDbLine
 10
96.97799999999999
 20
327.218
 11
97.495
 21
327.581
  0
LINE
  5
C7
100
AcDbEntity
  8
0
  6
ByLayer
 62
    1
370
   -1
100
AcDbLine
 10
97.495
 20
327.581
 11
98.017
 21
327.936
  0
LINE
  5
C8
100
AcDbEntity
  8
0
  6
ByLayer
 62
    1
370
   -1
100
AcDbLine
 10
98.017
 20
327.936
 11
98.544
 21
328.286
  0
LINE
  5
C9
100
AcDbEntity
  8
0
  6
ByLayer
 62
    1
370
   -1
100
AcDbLine
 10
98.544
 20
328.286
 11
99.074
 21
328.628
  0
LINE
  5
CA
100
AcDbEntity
  8
0
  6
ByLayer
 62
    1
370
   -1
100
AcDbLine
 10
99.074
 20
328.628
 11
99.60899999999999
 21
328.964
  0
LINE
  5
CB
100
AcDbEntity
  8
0
  6
ByLayer
 62
    1
370
   -1
100
AcDbLine
 10
99.60899999999999
 20
328.964
 11
100.148
 21
329.293
  0
LINE
  5
CC
100
AcDbEntity
  8
0
  6
ByLayer
 62
    1
370
   -1
100
AcDbLine
 10
100.148
 20
329.293
 11
100.692
 21
329.615
  0
LINE
  5
CD
100
AcDbEntity
  8
0
  6
ByLayer
 62
    1
370
   -1
100
AcDbLine
 10
100.692
 20
329.615
 11
101.239
 21
329.93
  0
LINE
  5
CE
100
AcDbEntity
  8
0
  6
ByLayer
 62
    1
370
   -1
100
AcDbLine
 10
101.239
 20
329.93
 11
101.79
 21
330.239
  0
LINE
  5
CF
100
AcDbEntity
  8
0
  6
ByLayer
 62
    1
370
   -1
100
AcDbLine
 10
101.79
 20
330.239
 11
102.345
 21
330.54
  0
LINE
  5
D0
100
AcDbEntity
  8
0
  6
ByLayer
 62
    1
370
   -1
100
AcDbLine
 10
102.345
 20
330.54
 11
102.904
 21
330.835
  0
LINE
  5
D1
100
AcDbEntity
  8
0
  6
ByLayer
 62
    1
370
   -1
100
AcDbLine
 10
102.904
 20
330.835
 11
103.467
 21
331.122
  0
LINE
  5
D2
100
AcDbEntity
  8
0
  6
ByLayer
 62
    1
370
   -1
100
AcDbLine
 10
103.467
 20
331.122
 11
104.033
 21
331.402
  0
LINE
  5
D3
100
AcDbEntity
  8
0
  6
ByLayer
 62
    1
370
   -1
100
AcDbLine
 10
104.033
 20
331.402
 11
104.602
 21
331.675
  0
LINE
  5
D4
100
AcDbEntity
  8
0
  6
ByLayer
 62
    1
370
   -1
100
AcDbLine
 10
104.602
 20
331.675
 11
105.175
 21
331.941
  0
LINE
  5
D5
100
AcDbEntity
  8
0
  6
ByLayer
 62
    1
370
   -1
100
AcDbLine
 10
105.175
 20
331.941
 11
105.751
 21
332.2
  0
LINE
  5
D6
100
AcDbEntity
  8
0
  6
ByLayer
 62
    1
370
   -1
100
AcDbLine
 10
105.751
 20
332.2
 11
106.331
 21
332.451
  0
LINE
  5
D7
100
AcDbEntity
  8
0
  6
ByLayer
 62
    1
370
   -1
100
AcDbLine
 10
106.331
 20
332.451
 11
106.913
 21
332.695
  0
LINE
  5
D8
100
AcDbEntity
  8
0
  6
ByLayer
 62
    1
370
   -1
100
AcDbLine
 10
106.913
 20
332.695
 11
107.499
 21
332.932
  0
LINE
  5
D9
100
AcDbEntity
  8
0
  6
ByLayer
 62
    1
370
   -1
100
AcDbLine
 10
107.499
 20
332.932
 11
108.087
 21
333.161
  0
LINE
  5
DA
100
AcDbEntity
  8
0
  6
ByLayer
 62
    1
370
   -1
100
AcDbLine
 10
108.087
 20
333.161
 11
108.679
 21
333.383
  0
LINE
  5
DB
100
AcDbEntity
  8
0
  6
ByLayer
 62
    1
370
   -1
100
AcDbLine
 10
108.679
 20
333.383
 11
109.273
 21
333.598
  0
LINE
  5
DC
100
AcDbEntity
  8
0
  6
ByLayer
 62
    1
370
   -1
100
AcDbLine
 10
109.273
 20
333.598
 11
109.87
 21
333.804
  0
LINE
  5
DD
100
AcDbEntity
  8
0
  6
ByLayer
 62
    1
370
   -1
100
AcDbLine
 10
109.87
 20
333.804
 11
110.469
 21
334.004
  0
LINE
  5
DE
100
AcDbEntity
  8
0
  6
ByLayer
 62
    1
370
   -1
100
AcDbLine
 10
110.469
 20
334.004
 11
111.071
 21
334.196
  0
LINE
  5
DF
100
AcDbEntity
  8
0
  6
ByLayer
 62
    1
370
   -1
100
AcDbLine
 10
111.071
 20
334.196
 11
111.675
 21
334.38
  0
LINE
  5
E0
100
AcDbEntity
  8
0
  6
ByLayer
 62
    1
370
   -1
100
AcDbLine
 10
111.675
 20
334.38
 11
112.281
 21
334.556
  0
LINE
  5
E1
100
AcDbEntity
  8
0
  6
ByLayer
 62
    1
370
   -1
100
AcDbLine
 10
112.281
 20
334.556
 11
112.89
 21
334.725
  0
LINE
  5
E2
100
AcDbEntity
  8
0
  6
ByLayer
 62
    1
370
   -1
100
AcDbLine
 10
112.89
 20
334.725
 11
113.501
 21
334.887
  0
LINE
  5
E3
100
AcDbEntity
  8
0
  6
ByLayer
 62
    1
370
   -1
100
AcDbLine
 10
113.501
 20
334.887
 11
114.113
 21
335.04
  0
LINE
  5
E4
100
AcDbEntity
  8
0
  6
ByLayer
 62
    1
370
   -1
100
AcDbLine
 10
114.113
 20
335.04
 11
114.728
 21
335.186
  0
LINE
  5
E5
100
AcDbEntity
  8
0
  6
ByLayer
 62
    1
370
   -1
100
AcDbLine
 10
114.728
 20
335.186
 11
115.344
 21
335.324
  0
LINE
  5
E6
100
AcDbEntity
  8
0
  6
ByLayer
 62
    1
370
   -1
100
AcDbLine
 10
115.344
 20
335.324
 11
115.962
 21
335.455
  0
LINE
  5
E7
100
AcDbEntity
  8
0
  6
ByLayer
 62
    1
370
   -1
100
AcDbLine
 10
115.962
 20
335.455
 11
116.582
 21
335.577
  0
LINE
  5
E8
100
AcDbEntity
  8
0
  6
ByLayer
 62
    1
370
   -1
100
AcDbLine
 10
116.582
 20
335.577
 11
117.203
 21
335.692
  0
LINE
  5
E9
100
AcDbEntity
  8
0
  6
ByLayer
 62
    1
370
   -1
100
AcDbLine
 10
117.203
 20
335.692
 11
117.825
 21
335.799
  0
LINE
  5
EA
100
AcDbEntity
  8
0
  6
ByLayer
 62
    1
370
   -1
100
AcDbLine
 10
117.825
 20
335.799
 11
118.449
 21
335.898
  0
LINE
  5
EB
100
AcDbEntity
  8
0
  6
ByLayer
 62
    1
370
   -1
100
AcDbLine
 10
118.449
 20
335.898
 11
119.074
 21
335.989
  0
LINE
  5
EC
100
AcDbEntity
  8
0
  6
ByLayer
 62
    1
370
   -1
100
AcDbLine
 10
119.074
 20
335.989
 11
119.7
 21
336.072
  0
LINE
  5
ED
100
AcDbEntity
  8
0
  6
ByLayer
 62
    1
370
   -1
100
AcDbLine
 10
119.7
 20
336.072
 11
120.327
 21
336.147
  0
LINE
  5
EE
100
AcDbEntity
  8
0
  6
ByLayer
 62
    1
370
   -1
100
AcDbLine
 10
120.327
 20
336.147
 11
120.955
 21
336.215
  0
LINE
  5
EF
100
AcDbEntity
  8
0
  6
ByLayer
 62
    1
370
   -1
100
AcDbLine
 10
120.955
 20
336.215
 11
121.584
 21
336.275
  0
LINE
  5
F0
100
AcDbEntity
  8
0
  6
ByLayer
 62
    1
370
   -1
100
AcDbLine
 10
121.584
 20
336.275
 11
122.214
 21
336.326
  0
LINE
  5
F1
100
AcDbEntity
  8
0
  6
ByLayer
 62
    1
370
   -1
100
AcDbLine
 10
122.214
 20
336.326
 11
122.844
 21
336.37
  0
LINE
  5
F2
100
AcDbEntity
  8
0
  6
ByLayer
 62
    1
370
   -1
100
AcDbLine
 10
122.844
 20
336.37
 11
123.474
 21
336.406
  0
LINE
  5
F3
100
AcDbEntity
  8
0
  6
ByLayer
 62
    1
370
   -1
100
AcDbLine
 10
123.474
 20
336.406
 11
124.105
 21
336.434
  0
LINE
  5
F4
100
AcDbEntity
  8
0
  6
ByLayer
 62
    1
370
   -1
100
AcDbLine
 10
124.105
 20
336.434
 11
124.737
 21
336.453
  0
LINE
  5
F5
100
AcDbEntity
  8
0
  6
ByLayer
 62
    1
370
   -1
100
AcDbLine
 10
124.737
 20
336.453
 11
125.368
 21
336.465
  0
LINE
  5
F6
100
AcDbEntity
  8
0
  6
ByLayer
 62
    1
370
   -1
100
AcDbLine
 10
125.368
 20
336.465
 11
126
 21
336.469
  0
LINE
  5
F7
100
AcDbEntity
  8
0
  6
ByLayer
 62
    1
370
   -1
100
AcDbLine
 10
126
 20
336.469
 11
126.631
 21
336.465
  0
LINE
  5
F8
100
AcDbEntity
  8
0
  6
ByLayer
 62
    1
370
   -1
100
AcDbLine
 10
126.631
 20
336.465
 11
127.263
 21
336.453
  0
LINE
  5
F9
100
AcDbEntity
  8
0
  6
ByLayer
 62
    1
370
   -1
100
AcDbLine
 10
127.263
 20
336.453
 11
127.894
 21
336.434
  0
LINE
  5
FA
100
AcDbEntity
  8
0
  6
ByLayer
 62
    1
370
   -1
100
AcDbLine
 10
127.894
 20
336.434
 11
128.525
 21
336.406
  0
LINE
  5
FB
100
AcDbEntity
  8
0
  6
ByLayer
 62
    1
370
   -1
100
AcDbLine
 10
128.525
 20
336.406
 11
129.156
 21
336.37
  0
LINE
  5
FC
100
AcDbEntity
  8
0
  6
ByLayer
 62
    1
370
   -1
100
AcDbLine
 10
129.156
 20
336.37
 11
129.786
 21
336.326
  0
LINE
  5
FD
100
AcDbEntity
  8
0
  6
ByLayer
 62
    1
370
   -1
100
AcDbLine
 10
129.786
 20
336.326
 11
130.415
 21
336.275
  0
LINE
  5
FE
100
AcDbEntity
  8
0
  6
ByLayer
 62
    1
370
   -1
100
AcDbLine
 10
130.415
 20
336.275
 11
131.044
 21
336.215
  0
LINE
  5
FF
100
AcDbEntity
  8
0
  6
ByLayer
 62
    1
370
   -1
100
AcDbLine
 10
131.044
 20
336.215
 11
131.672
 21
336.147
  0
LINE
  5
100
100
AcDbEntity
  8
0
  6
ByLayer
 62
    1
370
   -1
100
AcDbLine
 10
131.672
 20
336.147
 11
132.299
 21
336.072
  0
LINE
  5
101
100
AcDbEntity
  8
0
  6
ByLayer
 62
    1
370
   -1
100
AcDbLine
 10
132.299
 20
336.072
 11
132.925
 21
335.989
  0
LINE
  5
102
100
AcDbEntity
  8
0
  6
ByLayer
 62
    1
370
   -1
100
AcDbLine
 10
132.925
 20
335.989
 11
133.55
 21
335.898
  0
LINE
  5
103
100
AcDbEntity
  8
0
  6
ByLayer
 62
    1
370
   -1
100
AcDbLine
 10
133.55
 20
335.898
 11
134.174
 21
335.799
  0
LINE
  5
104
100
AcDbEntity
  8
0
  6
ByLayer
 62
    1
370
   -1
100
AcDbLine
 10
134.174
 20
335.799
 11
134.797
 21
335.692
  0
LINE
  5
105
100
AcDbEntity
  8
0
  6
ByLayer
 62
    1
370
   -1
100
AcDbLine
 10
134.797
 20
335.692
 11
135.418
 21
335.577
  0
LINE
  5
106
100
AcDbEntity
  8
0
  6
ByLayer
 62
    1
370
   -1
100
AcDbLine
 10
135.418
 20
335.577
 11
136.037
 21
335.455
  0
LINE
  5
107
100
AcDbEntity
  8
0
  6
ByLayer
 62
    1
370
   -1
100
AcDbLine
 10
136.037
 20
335.455
 11
136.656
 21
335.324
  0
LINE
  5
108
100
AcDbEntity
  8
0
  6
ByLayer
 62
    1
370
   -1
100
AcDbLine
 10
136.656
 20
335.324
 11
137.272
 21
335.186
  0
LINE
  5
109
100
AcDbEntity
  8
0
  6
ByLayer
 62
    1
370
   -1
100
AcDbLine
 10
137.272
 20
335.186
 11
137.886
 21
335.04
  0
LINE
  5
10A
100
AcDbEntity
  8
0
  6
ByLayer
 62
    1
370
   -1
100
AcDbLine
 10
137.886
 20
335.04
 11
138.499
 21
334.887
  0
LINE
  5
10B
100
AcDbEntity
  8
0
  6
ByLayer
 62
    1
370
   -1
100
AcDbLine
 10
138.499
 20
334.887
 11
139.11
 21
334.725
  0
LINE
  5
10C
100
AcDbEntity
  8
0
  6
ByLayer
 62
    1
370
   -1
100
AcDbLine
 10
139.11
 20
334.725
 11
139.718
 21
334.556
  0
LINE
  5
10D
100
AcDbEntity
  8
0
  6
ByLayer
 62
    1
370
   -1
100
AcDbLine
 10
139.718
 20
334.556
 11
140.325
 21
334.38
  0
LINE
  5
10E
100
AcDbEntity
  8
0
  6
ByLayer
 62
    1
370
   -1
100
AcDbLine
 10
140.325
 20
334.38
 11
140.929
 21
334.196
  0
LINE
  5
10F
100
AcDbEntity
  8
0
  6
ByLayer
 62
    1
370
   -1
100
AcDbLine
 10
140.929
 20
334.196
 11
141.531
 21
334.004
  0
LINE
  5
110
100
AcDbEntity
  8
0
  6
ByLayer
 62
    1
370
   -1
100
AcDbLine
 10
141.531
 20
334.004
 11
142.13
 21
333.804
  0
LINE
  5
111
100
AcDbEntity
  8
0
  6
ByLayer
 62
    1
370
   -1
100
AcDbLine
 10
142.13
 20
333.804
 11
142.727
 21
333.598
  0
LINE
  5
112
100
AcDbEntity
  8
0
  6
ByLayer
 62
    1
370
   -1
100
AcDbLine
 10
142.727
 20
333.598
 11
143.321
 21
333.383
  0
LINE
  5
113
100
AcDbEntity
  8
0
  6
ByLayer
 62
    1
370
   -1
100
AcDbLine
 10
143.321
 20
333.383
 11
143.912
 21
333.161
  0
LINE
  5
114
100
AcDbEntity
  8
0
  6
ByLayer
 62
    1
370
   -1
100
AcDbLine
 10
143.912
 20
333.161
 11
144.501
 21
332.932
  0
LINE
  5
115
100
AcDbEntity
  8
0
  6
ByLayer
 62
    1
370
   -1
100
AcDbLine
 10
144.501
 20
332.932
 11
145.086
 21
332.695
  0
LINE
  5
116
100
AcDbEntity
  8
0
  6
ByLayer
 62
    1
370
   -1
100
AcDbLine
 10
145.086
 20
332.695
 11
145.669
 21
332.451
  0
LINE
  5
117
100
AcDbEntity
  8
0
  6
ByLayer
 62
    1
370
   -1
100
AcDbLine
 10
145.669
 20
332.451
 11
146.248
 21
332.2
  0
LINE
  5
118
100
AcDbEntity
  8
0
  6
ByLayer
 62
    1
370
   -1
100
AcDbLine
 10
146.248
 20
332.2
 11
146.825
 21
331.941
  0
LINE
  5
119
100
AcDbEntity
  8
0
  6
ByLayer
 62
    1
370
   -1
100
AcDbLine
 10
146.825
 20
331.941
 11
147.398
 21
331.675
  0
LINE
  5
11A
100
AcDbEntity
  8
0
  6
ByLayer
 62
    1
370
   -1
100
AcDbLine
 10
147.398
 20
331.675
 11
147.967
 21
331.402
  0
LINE
  5
11B
100
AcDbEntity
  8
0
  6
ByLayer
 62
    1
370
   -1
100
AcDbLine
 10
147.967
 20
331.402
 11
148.533
 21
331.122
  0
LINE
  5
11C
100
AcDbEntity
  8
0
  6
ByLayer
 62
    1
370
   -1
100
AcDbLine
 10
148.533
 20
331.122
 11
149.096
 21
330.835
  0
LINE
  5
11D
100
AcDbEntity
  8
0
  6
ByLayer
 62
    1
370
   -1
100
AcDbLine
 10
149.096
 20
330.835
 11
149.654
 21
330.54
  0
LINE
  5
11E
100
AcDbEntity
  8
0
  6
ByLayer
 62
    1
370
   -1
100
AcDbLine
 10
149.654
 20
330.54
 11
150.209
 21
330.239
  0
LINE
  5
11F
100
AcDbEntity
  8
0
  6
ByLayer
 62
    1
370
   -1
100
AcDbLine
 10
150.209
 20
330.239
 11
150.761
 21
329.93
  0
LINE
  5
120
100
AcDbEntity
  8
0
  6
ByLayer
 62
    1
370
   -1
100
AcDbLine
 10
150.761
 20
329.93
 11
151.308
 21
329.615
  0
LINE
  5
121
100
AcDbEntity
  8
0
  6
ByLayer
 62
    1
370
   -1
100
AcDbLine
 10
151.308
 20
329.615
 11
151.851
 21
329.293
  0
LINE
  5
122
100
AcDbEntity
  8
0
  6
ByLayer
 62
    1
370
   -1
100
AcDbLine
 10
151.851
 20
329.293
 11
152.39
 21
328.964
  0
LINE
  5
123
100
AcDbEntity
  8
0
  6
ByLayer
 62
    1
370
   -1
100
AcDbLine
 10
152.39
 20
328.964
 11
152.925
 21
328.628
  0
LINE
  5
124
100
AcDbEntity
  8
0
  6
ByLayer
 62
    1
370
   -1
100
AcDbLine
 10
152.925
 20
328.628
 11
153.456
 21
328.286
  0
LINE
  5
125
100
AcDbEntity
  8
0
  6
ByLayer
 62
    1
370
   -1
100
AcDbLine
 10
153.456
 20
328.286
 11
153.982
 21
327.936
  0
LINE
  5
126
100
AcDbEntity
  8
0
  6
ByLayer
 62
    1
370
   -1
100
AcDbLine
 10
153.982
 20
327.936
 11
154.504
 21
327.581
  0
LINE
  5
127
100
AcDbEntity
  8
0
  6
ByLayer
 62
    1
370
   -1
100
AcDbLine
 10
154.504
 20
327.581
 11
155.022
 21
327.218
  0
LINE
  5
128
100
AcDbEntity
  8
0
  6
ByLayer
 62
    1
370
   -1
100
AcDbLine
 10
155.022
 20
327.218
 11
155.535
 21
326.85
  0
LINE
  5
129
100
AcDbEntity
  8
0
  6
ByLayer
 62
    1
370
   -1
100
AcDbLine
 10
155.535
 20
326.85
 11
156.043
 21
326.474
  0
LINE
  5
12A
100
AcDbEntity
  8
0
  6
ByLayer
 62
    1
370
   -1
100
AcDbLine
 10
156.043
 20
326.474
 11
156.546
 21
326.093
  0
LINE
  5
12B
100
AcDbEntity
  8
0
  6
ByLayer
 62
    1
370
   -1
100
AcDbLine
 10
156.546
 20
326.093
 11
157.044
 21
325.705
  0
LINE
  5
12C
100
AcDbEntity
  8
0
  6
ByLayer
 62
    1
370
   -1
100
AcDbLine
 10
157.044
 20
325.705
 11
157.538
 21
325.311
  0
LINE
  5
12D
100
AcDbEntity
  8
0
  6
ByLayer
 62
    1
370
   -1
100
AcDbLine
 10
157.538
 20
325.311
 11
158.027
 21
324.911
  0
LINE
  5
12E
100
AcDbEntity
  8
0
  6
ByLayer
 62
    1
370
   -1
100
AcDbLine
 10
158.027
 20
324.911
 11
158.51
 21
324.504
  0
LINE
  5
12F
100
AcDbEntity
  8
0
  6
ByLayer
 62
    1
370
   -1
100
AcDbLine
 10
158.51
 20
324.504
 11
158.988
 21
324.092
  0
LINE
  5
130
100
AcDbEntity
  8
0
  6
ByLayer
 62
    1
370
   -1
100
AcDbLine
 10
158.988
 20
324.092
 11
159.462
 21
323.673
  0
LINE
  5
131
100
AcDbEntity
  8
0
  6
ByLayer
 62
    1
370
   -1
100
AcDbLine
 10
159.462
 20
323.673
 11
159.929
 21
323.249
  0
LINE
  5
132
100
AcDbEntity
  8
0
  6
ByLayer
 62
    1
370
   -1
100
AcDbLine
 10
159.929
 20
323.249
 11
160.392
 21
322.819
  0
LINE
  5
133
100
AcDbEntity
  8
0
  6
ByLayer
 62
    1
370
   -1
100
AcDbLine
 10
160.392
 20
322.819
 11
160.849
 21
322.383
  0
LINE
  5
134
100
AcDbEntity
  8
0
  6
ByLayer
 62
    1
370
   -1
100
AcDbLine
 10
160.849
 20
322.383
 11
161.3
 21
321.941
  0
LINE
  5
135
100
AcDbEntity
  8
0
  6
ByLayer
 62
    1
370
   -1
100
AcDbLine
 10
161.3
 20
321.941
 11
251.056
 21
285.798
  0
LINE
  5
136
100
AcDbEntity
  8
0
  6
ByLayer
 62
    1
370
   -1
100
AcDbLine
 10
251.056
 20
285.798
 11
251.082
 21
285.784
  0
LINE
  5
137
100
AcDbEntity
  8
0
  6
ByLayer
 62
    1
370
   -1
100
AcDbLine
 10
251.082
 20
285.784
 11
251.105
 21
285.766
  0
LINE
  5
138
100
AcDbEntity
  8
0
  6
ByLayer
 62
    1
370
   -1
100
AcDbLine
 10
251.105
 20
285.766
 11
251.124
 21
285.743
  0
LINE
  5
139
100
AcDbEntity
  8
0
  6
ByLayer
 62
    1
370
   -1
100
AcDbLine
 10
251.124
 20
285.743
 11
251.138
 21
285.717
  0
LINE
  5
13A
100
AcDbEntity
  8
0
  6
ByLayer
 62
    1
370
   -1
100
AcDbLine
 10
251.138
 20
285.717
 11
251.147
 21
285.689
  0
LINE
  5
13B
100
AcDbEntity
  8
0
  6
ByLayer
 62
    1
370
   -1
100
AcDbLine
 10
251.147
 20
285.689
 11
251.15
 21
285.659
  0
LINE
  5
13C
100
AcDbEntity
  8
0
  6
ByLayer
 62
    1
370
   -1
100
AcDbLine
 10
251.15
 20
285.659
 11
251.15
 21
34.127
  0
ENDSEC
  0
SECTION
  2
OBJECTS
  0
DICTIONARY
  5
C
330
0
100
AcDbDictionary
281
    1
  3
ACAD_GROUP
350
D
  0
DICTIONARY
  5
D
330
C
100
AcDbDictionary
281
    1
  0
ENDSEC
  0
EOF
