999
Generated by Autodesk CAM - http://cam.autodesk.com
999
UNIT = MM
999
THICKNESS = 10
0
SECTION
2
HEADER
9
$ACADVER
1
AC1006
9
$ANGBASE
50
0
9
$ANGDIR
70
0
0
ENDSEC
0
SECTION
2
BLOCKS
0
ENDSEC
9
$EXTMIN
10
0
20
0
30
0
9
$EXTMAX
10
271.203
20
227.233
30
15
0
SECTION
2
ENTITIES
0
LINE
8
0
62
1
10
225.818
20
24.023
30
0
11
225.818
21
194.257
31
0
0
LINE
8
0
62
1
10
225.818
20
194.257
30
0
11
225.822
21
194.291
31
0
0
LINE
8
0
62
1
10
225.822
20
194.291
30
0
11
225.833
21
194.323
31
0
0
LINE
8
0
62
1
10
225.833
20
194.323
30
0
11
225.851
21
194.351
31
0
0
LINE
8
0
62
1
10
225.851
20
194.351
30
0
11
225.876
21
194.375
31
0
0
LINE
8
0
62
1
10
225.876
20
194.375
30
0
11
225.905
21
194.393
31
0
0
LINE
8
0
62
1
10
225.905
20
194.393
30
0
11
270.99
21
215.416
31
0
0
LINE
8
0
62
1
10
270.99
20
215.416
30
0
11
271.021
21
215.427
31
0
0
LINE
8
0
62
1
10
271.021
20
215.427
30
0
11
271.054
21
215.43
31
0
0
LINE
8
0
62
1
10
271.054
20
215.43
30
0
11
271.088
21
215.426
31
0
0
LINE
8
0
62
1
10
271.088
20
215.426
30
0
11
271.119
21
215.415
31
0
0
LINE
8
0
62
1
10
271.119
20
215.415
30
0
11
271.147
21
215.397
31
0
0
LINE
8
0
62
1
10
271.147
20
215.397
30
0
11
271.171
21
215.373
31
0
0
LINE
8
0
62
1
10
271.171
20
215.373
30
0
11
271.188
21
215.345
31
0
0
LINE
8
0
62
1
10
271.188
20
215.345
30
0
11
271.199
21
215.313
31
0
0
LINE
8
0
62
1
10
271.199
20
215.313
30
0
11
271.203
21
215.28
31
0
0
LINE
8
0
62
1
10
271.203
20
215.28
30
0
11
271.203
21
191.735
31
0
0
LINE
8
0
62
1
10
271.203
20
191.735
30
0
11
271.199
21
191.701
31
0
0
LINE
8
0
62
1
10
271.199
20
191.701
30
0
11
271.188
21
191.669
31
0
0
LINE
8
0
62
1
10
271.188
20
191.669
30
0
11
271.17
21
191.641
31
0
0
LINE
8
0
62
1
10
271.17
20
191.641
30
0
11
271.145
21
191.617
31
0
0
LINE
8
0
62
1
10
271.145
20
191.617
30
0
11
271.116
21
191.599
31
0
0
LINE
8
0
62
1
10
271.116
20
191.599
30
0
11
252.822
21
183.069
31
0
0
LINE
8
0
62
1
10
252.822
20
183.069
30
0
11
252.795
21
183.059
31
0
0
LINE
8
0
62
1
10
252.795
20
183.059
30
0
11
252.766
21
183.055
31
0
0
LINE
8
0
62
1
10
252.766
20
183.055
30
0
11
252.736
21
183.057
31
0
0
LINE
8
0
62
1
10
252.736
20
183.057
30
0
11
252.708
21
183.064
31
0
0
ARC
8
0
62
1
10
252.075
20
181.325
30
0
40
1.85
50
70.01657
51
-110.011973
0
LINE
8
0
62
1
10
251.442
20
179.587
30
0
11
251.469
21
179.574
31
0
0
LINE
8
0
62
1
10
251.469
20
179.574
30
0
11
251.492
21
179.557
31
0
0
LINE
8
0
62
1
10
251.492
20
179.557
30
0
11
251.512
21
179.535
31
0
0
LINE
8
0
62
1
10
251.512
20
179.535
30
0
11
251.527
21
179.509
31
0
0
LINE
8
0
62
1
10
251.527
20
179.509
30
0
11
253.363
21
175.573
31
0
0
LINE
8
0
62
1
10
253.363
20
175.573
30
0
11
253.373
21
175.546
31
0
0
LINE
8
0
62
1
10
253.373
20
175.546
30
0
11
253.377
21
175.517
31
0
0
LINE
8
0
62
1
10
253.377
20
175.517
30
0
11
253.375
21
175.487
31
0
0
LINE
8
0
62
1
10
253.375
20
175.487
30
0
11
253.368
21
175.459
31
0
0
ARC
8
0
62
1
10
255.106
20
174.826
30
0
40
1.85
50
159.997348
51
-20.002652
0
LINE
8
0
62
1
10
256.844
20
174.193
30
0
11
256.857
21
174.22
31
0
0
LINE
8
0
62
1
10
256.857
20
174.22
30
0
11
256.874
21
174.243
31
0
0
LINE
8
0
62
1
10
256.874
20
174.243
30
0
11
256.896
21
174.263
31
0
0
LINE
8
0
62
1
10
256.896
20
174.263
30
0
11
256.922
21
174.278
31
0
0
LINE
8
0
62
1
10
256.922
20
174.278
30
0
11
270.99
21
180.837
31
0
0
LINE
8
0
62
1
10
270.99
20
180.837
30
0
11
271.021
21
180.848
31
0
0
LINE
8
0
62
1
10
271.021
20
180.848
30
0
11
271.054
21
180.851
31
0
0
LINE
8
0
62
1
10
271.054
20
180.851
30
0
11
271.088
21
180.847
31
0
0
LINE
8
0
62
1
10
271.088
20
180.847
30
0
11
271.119
21
180.836
31
0
0
LINE
8
0
62
1
10
271.119
20
180.836
30
0
11
271.147
21
180.818
31
0
0
LINE
8
0
62
1
10
271.147
20
180.818
30
0
11
271.171
21
180.794
31
0
0
LINE
8
0
62
1
10
271.171
20
180.794
30
0
11
271.188
21
180.766
31
0
0
LINE
8
0
62
1
10
271.188
20
180.766
30
0
11
271.199
21
180.734
31
0
0
LINE
8
0
62
1
10
271.199
20
180.734
30
0
11
271.203
21
180.701
31
0
0
LINE
8
0
62
1
10
271.203
20
180.701
30
0
11
271.203
21
35.579
31
0
0
LINE
8
0
62
1
10
271.203
20
35.579
30
0
11
271.199
21
35.546
31
0
0
LINE
8
0
62
1
10
271.199
20
35.546
30
0
11
271.188
21
35.514
31
0
0
LINE
8
0
62
1
10
271.188
20
35.514
30
0
11
271.171
21
35.486
31
0
0
LINE
8
0
62
1
10
271.171
20
35.486
30
0
11
271.147
21
35.462
31
0
0
LINE
8
0
62
1
10
271.147
20
35.462
30
0
11
271.119
21
35.444
31
0
0
LINE
8
0
62
1
10
271.119
20
35.444
30
0
11
271.088
21
35.433
31
0
0
LINE
8
0
62
1
10
271.088
20
35.433
30
0
11
271.054
21
35.429
31
0
0
LINE
8
0
62
1
10
271.054
20
35.429
30
0
11
271.021
21
35.433
31
0
0
LINE
8
0
62
1
10
271.021
20
35.433
30
0
11
270.99
21
35.443
31
0
0
LINE
8
0
62
1
10
270.99
20
35.443
30
0
11
256.922
21
42.003
31
0
0
LINE
8
0
62
1
10
256.922
20
42.003
30
0
11
256.896
21
42.018
31
0
0
LINE
8
0
62
1
10
256.896
20
42.018
30
0
11
256.874
21
42.037
31
0
0
LINE
8
0
62
1
10
256.874
20
42.037
30
0
11
256.857
21
42.061
31
0
0
LINE
8
0
62
1
10
256.857
20
42.061
30
0
11
256.844
21
42.087
31
0
0
ARC
8
0
62
1
10
255.106
20
41.455
30
0
40
1.85
50
20.002601
51
110.003984
0
ARC
8
0
62
1
10
255.106
20
41.455
30
0
40
1.85
50
110.003984
51
-159.994633
0
LINE
8
0
62
1
10
253.368
20
40.822
30
0
11
253.375
21
40.794
31
0
0
LINE
8
0
62
1
10
253.375
20
40.794
30
0
11
253.377
21
40.764
31
0
0
LINE
8
0
62
1
10
253.377
20
40.764
30
0
11
253.373
21
40.735
31
0
0
LINE
8
0
62
1
10
253.373
20
40.735
30
0
11
253.363
21
40.707
31
0
0
LINE
8
0
62
1
10
253.363
20
40.707
30
0
11
251.527
21
36.771
31
0
0
LINE
8
0
62
1
10
251.527
20
36.771
30
0
11
251.512
21
36.746
31
0
0
LINE
8
0
62
1
10
251.512
20
36.746
30
0
11
251.492
21
36.724
31
0
0
LINE
8
0
62
1
10
251.492
20
36.724
30
0
11
251.469
21
36.706
31
0
0
LINE
8
0
62
1
10
251.469
20
36.706
30
0
11
251.442
21
36.694
31
0
0
ARC
8
0
62
1
10
252.075
20
34.955
30
0
40
1.85
50
109.998489
51
-160.001289
0
ARC
8
0
62
1
10
252.075
20
34.955
30
0
40
1.85
50
-160.001289
51
-70.001067
0
LINE
8
0
62
1
10
252.708
20
33.217
30
0
11
252.736
21
33.224
31
0
0
LINE
8
0
62
1
10
252.736
20
33.224
30
0
11
252.766
21
33.226
31
0
0
LINE
8
0
62
1
10
252.766
20
33.226
30
0
11
252.795
21
33.221
31
0
0
LINE
8
0
62
1
10
252.795
20
33.221
30
0
11
252.822
21
33.212
31
0
0
LINE
8
0
62
1
10
252.822
20
33.212
30
0
11
271.116
21
24.681
31
0
0
LINE
8
0
62
1
10
271.116
20
24.681
30
0
11
271.145
21
24.664
31
0
0
LINE
8
0
62
1
10
271.145
20
24.664
30
0
11
271.17
21
24.64
31
0
0
LINE
8
0
62
1
10
271.17
20
24.64
30
0
11
271.188
21
24.611
31
0
0
LINE
8
0
62
1
10
271.188
20
24.611
30
0
11
271.199
21
24.579
31
0
0
LINE
8
0
62
1
10
271.199
20
24.579
30
0
11
271.203
21
24.545
31
0
0
LINE
8
0
62
1
10
271.203
20
24.545
30
0
11
271.203
21
1
31
0
0
LINE
8
0
62
1
10
271.203
20
1
30
0
11
271.199
21
0.967
31
0
0
LINE
8
0
62
1
10
271.199
20
0.967
30
0
11
271.188
21
0.935
31
0
0
LINE
8
0
62
1
10
271.188
20
0.935
30
0
11
271.171
21
0.907
31
0
0
LINE
8
0
62
1
10
271.171
20
0.907
30
0
11
271.147
21
0.883
31
0
0
LINE
8
0
62
1
10
271.147
20
0.883
30
0
11
271.119
21
0.865
31
0
0
LINE
8
0
62
1
10
271.119
20
0.865
30
0
11
271.088
21
0.854
31
0
0
LINE
8
0
62
1
10
271.088
20
0.854
30
0
11
271.054
21
0.85
31
0
0
LINE
8
0
62
1
10
271.054
20
0.85
30
0
11
271.021
21
0.853
31
0
0
LINE
8
0
62
1
10
271.021
20
0.853
30
0
11
270.99
21
0.864
31
0
0
LINE
8
0
62
1
10
270.99
20
0.864
30
0
11
225.905
21
21.887
31
0
0
LINE
8
0
62
1
10
225.905
20
21.887
30
0
11
225.876
21
21.905
31
0
0
LINE
8
0
62
1
10
225.876
20
21.905
30
0
11
225.851
21
21.929
31
0
0
LINE
8
0
62
1
10
225.851
20
21.929
30
0
11
225.833
21
21.958
31
0
0
LINE
8
0
62
1
10
225.833
20
21.958
30
0
11
225.822
21
21.99
31
0
0
LINE
8
0
62
1
10
225.822
20
21.99
30
0
11
225.818
21
22.023
31
0
0
LINE
8
0
62
1
10
225.818
20
22.023
30
0
11
225.818
21
24.023
31
0
0
LINE
8
0
62
1
10
206.405
20
29.956
30
0
11
207.375
21
24.458
31
0
0
LINE
8
0
62
1
10
207.375
20
24.458
30
0
11
207.377
21
24.424
31
0
0
LINE
8
0
62
1
10
207.377
20
24.424
30
0
11
207.371
21
24.391
31
0
0
LINE
8
0
62
1
10
207.371
20
24.391
30
0
11
207.359
21
24.36
31
0
0
LINE
8
0
62
1
10
207.359
20
24.36
30
0
11
207.339
21
24.332
31
0
0
LINE
8
0
62
1
10
207.339
20
24.332
30
0
11
207.315
21
24.31
31
0
0
LINE
8
0
62
1
10
207.315
20
24.31
30
0
11
207.285
21
24.293
31
0
0
LINE
8
0
62
1
10
207.285
20
24.293
30
0
11
207.253
21
24.284
31
0
0
LINE
8
0
62
1
10
207.253
20
24.284
30
0
11
152.902
21
14.7
31
0
0
LINE
8
0
62
1
10
152.902
20
14.7
30
0
11
152.876
21
14.698
31
0
0
LINE
8
0
62
1
10
152.876
20
14.698
30
0
11
128.916
21
14.698
31
0
0
LINE
8
0
62
1
10
128.916
20
14.698
30
0
11
128.883
21
14.702
31
0
0
LINE
8
0
62
1
10
128.883
20
14.702
30
0
11
128.851
21
14.713
31
0
0
LINE
8
0
62
1
10
128.851
20
14.713
30
0
11
128.822
21
14.731
31
0
0
LINE
8
0
62
1
10
128.822
20
14.731
30
0
11
128.799
21
14.754
31
0
0
LINE
8
0
62
1
10
128.799
20
14.754
30
0
11
128.781
21
14.783
31
0
0
LINE
8
0
62
1
10
128.781
20
14.783
30
0
11
128.77
21
14.815
31
0
0
LINE
8
0
62
1
10
128.77
20
14.815
30
0
11
128.766
21
14.848
31
0
0
LINE
8
0
62
1
10
128.766
20
14.848
30
0
11
128.766
21
25.848
31
0
0
LINE
8
0
62
1
10
128.766
20
25.848
30
0
11
128.77
21
25.881
31
0
0
LINE
8
0
62
1
10
128.77
20
25.881
30
0
11
128.781
21
25.913
31
0
0
LINE
8
0
62
1
10
128.781
20
25.913
30
0
11
128.799
21
25.942
31
0
0
LINE
8
0
62
1
10
128.799
20
25.942
30
0
11
128.822
21
25.965
31
0
0
LINE
8
0
62
1
10
128.822
20
25.965
30
0
11
128.851
21
25.983
31
0
0
LINE
8
0
62
1
10
128.851
20
25.983
30
0
11
128.883
21
25.994
31
0
0
LINE
8
0
62
1
10
128.883
20
25.994
30
0
11
128.916
21
25.998
31
0
0
LINE
8
0
62
1
10
128.916
20
25.998
30
0
11
143.399
21
25.998
31
0
0
LINE
8
0
62
1
10
143.399
20
25.998
30
0
11
143.399
21
60.698
31
0
0
LINE
8
0
62
1
10
143.399
20
60.698
30
0
11
113.916
21
60.698
31
0
0
LINE
8
0
62
1
10
113.916
20
60.698
30
0
11
113.883
21
60.702
31
0
0
LINE
8
0
62
1
10
113.883
20
60.702
30
0
11
113.851
21
60.713
31
0
0
LINE
8
0
62
1
10
113.851
20
60.713
30
0
11
113.822
21
60.731
31
0
0
LINE
8
0
62
1
10
113.822
20
60.731
30
0
11
113.799
21
60.754
31
0
0
LINE
8
0
62
1
10
113.799
20
60.754
30
0
11
113.781
21
60.783
31
0
0
LINE
8
0
62
1
10
113.781
20
60.783
30
0
11
113.77
21
60.815
31
0
0
LINE
8
0
62
1
10
113.77
20
60.815
30
0
11
113.766
21
60.848
31
0
0
LINE
8
0
62
1
10
113.766
20
60.848
30
0
11
113.766
21
99.848
31
0
0
LINE
8
0
62
1
10
113.766
20
99.848
30
0
11
113.77
21
99.881
31
0
0
LINE
8
0
62
1
10
113.77
20
99.881
30
0
11
113.781
21
99.913
31
0
0
LINE
8
0
62
1
10
113.781
20
99.913
30
0
11
113.799
21
99.942
31
0
0
LINE
8
0
62
1
10
113.799
20
99.942
30
0
11
113.822
21
99.965
31
0
0
LINE
8
0
62
1
10
113.822
20
99.965
30
0
11
113.851
21
99.983
31
0
0
LINE
8
0
62
1
10
113.851
20
99.983
30
0
11
113.883
21
99.994
31
0
0
LINE
8
0
62
1
10
113.883
20
99.994
30
0
11
113.916
21
99.998
31
0
0
LINE
8
0
62
1
10
113.916
20
99.998
30
0
11
136.088
21
99.998
31
0
0
LINE
8
0
62
1
10
136.088
20
99.998
30
0
11
136.117
21
99.995
31
0
0
LINE
8
0
62
1
10
136.117
20
99.995
30
0
11
136.145
21
99.987
31
0
0
LINE
8
0
62
1
10
136.145
20
99.987
30
0
11
136.171
21
99.973
31
0
0
LINE
8
0
62
1
10
136.171
20
99.973
30
0
11
136.194
21
99.954
31
0
0
ARC
8
0
62
1
10
137.502
20
101.262
30
0
40
1.85
50
-135
51
44.999833
0
LINE
8
0
62
1
10
138.81
20
102.57
30
0
11
138.791
21
102.593
31
0
0
LINE
8
0
62
1
10
138.791
20
102.593
30
0
11
138.777
21
102.619
31
0
0
LINE
8
0
62
1
10
138.777
20
102.619
30
0
11
138.769
21
102.647
31
0
0
LINE
8
0
62
1
10
138.769
20
102.647
30
0
11
138.766
21
102.676
31
0
0
LINE
8
0
62
1
10
138.766
20
102.676
30
0
11
138.766
21
107.02
31
0
0
LINE
8
0
62
1
10
138.766
20
107.02
30
0
11
138.769
21
107.049
31
0
0
LINE
8
0
62
1
10
138.769
20
107.049
30
0
11
138.777
21
107.077
31
0
0
LINE
8
0
62
1
10
138.777
20
107.077
30
0
11
138.791
21
107.103
31
0
0
LINE
8
0
62
1
10
138.791
20
107.103
30
0
11
138.81
21
107.126
31
0
0
ARC
8
0
62
1
10
137.502
20
108.434
30
0
40
1.85
50
-44.999833
51
135
0
LINE
8
0
62
1
10
136.194
20
109.742
30
0
11
136.171
21
109.723
31
0
0
LINE
8
0
62
1
10
136.171
20
109.723
30
0
11
136.145
21
109.709
31
0
0
LINE
8
0
62
1
10
136.145
20
109.709
30
0
11
136.117
21
109.701
31
0
0
LINE
8
0
62
1
10
136.117
20
109.701
30
0
11
136.088
21
109.698
31
0
0
LINE
8
0
62
1
10
136.088
20
109.698
30
0
11
113.916
21
109.698
31
0
0
LINE
8
0
62
1
10
113.916
20
109.698
30
0
11
113.883
21
109.702
31
0
0
LINE
8
0
62
1
10
113.883
20
109.702
30
0
11
113.851
21
109.713
31
0
0
LINE
8
0
62
1
10
113.851
20
109.713
30
0
11
113.822
21
109.731
31
0
0
LINE
8
0
62
1
10
113.822
20
109.731
30
0
11
113.799
21
109.754
31
0
0
LINE
8
0
62
1
10
113.799
20
109.754
30
0
11
113.781
21
109.783
31
0
0
LINE
8
0
62
1
10
113.781
20
109.783
30
0
11
113.77
21
109.815
31
0
0
LINE
8
0
62
1
10
113.77
20
109.815
30
0
11
113.766
21
109.848
31
0
0
LINE
8
0
62
1
10
113.766
20
109.848
30
0
11
113.766
21
129.848
31
0
0
LINE
8
0
62
1
10
113.766
20
129.848
30
0
11
113.77
21
129.881
31
0
0
LINE
8
0
62
1
10
113.77
20
129.881
30
0
11
113.781
21
129.913
31
0
0
LINE
8
0
62
1
10
113.781
20
129.913
30
0
11
113.799
21
129.942
31
0
0
LINE
8
0
62
1
10
113.799
20
129.942
30
0
11
113.822
21
129.965
31
0
0
LINE
8
0
62
1
10
113.822
20
129.965
30
0
11
113.851
21
129.983
31
0
0
LINE
8
0
62
1
10
113.851
20
129.983
30
0
11
113.883
21
129.994
31
0
0
LINE
8
0
62
1
10
113.883
20
129.994
30
0
11
113.916
21
129.998
31
0
0
LINE
8
0
62
1
10
113.916
20
129.998
30
0
11
136.088
21
129.998
31
0
0
LINE
8
0
62
1
10
136.088
20
129.998
30
0
11
136.117
21
129.995
31
0
0
LINE
8
0
62
1
10
136.117
20
129.995
30
0
11
136.145
21
129.987
31
0
0
LINE
8
0
62
1
10
136.145
20
129.987
30
0
11
136.171
21
129.973
31
0
0
LINE
8
0
62
1
10
136.171
20
129.973
30
0
11
136.194
21
129.954
31
0
0
ARC
8
0
62
1
10
137.502
20
131.262
30
0
40
1.85
50
-135.000334
51
-45.000167
0
ARC
8
0
62
1
10
137.502
20
131.262
30
0
40
1.85
50
-45.000167
51
45
0
LINE
8
0
62
1
10
138.81
20
132.57
30
0
11
138.791
21
132.593
31
0
0
LINE
8
0
62
1
10
138.791
20
132.593
30
0
11
138.777
21
132.619
31
0
0
LINE
8
0
62
1
10
138.777
20
132.619
30
0
11
138.769
21
132.647
31
0
0
LINE
8
0
62
1
10
138.769
20
132.647
30
0
11
138.766
21
132.676
31
0
0
LINE
8
0
62
1
10
138.766
20
132.676
30
0
11
138.766
21
137.02
31
0
0
LINE
8
0
62
1
10
138.766
20
137.02
30
0
11
138.769
21
137.049
31
0
0
LINE
8
0
62
1
10
138.769
20
137.049
30
0
11
138.777
21
137.077
31
0
0
LINE
8
0
62
1
10
138.777
20
137.077
30
0
11
138.791
21
137.103
31
0
0
LINE
8
0
62
1
10
138.791
20
137.103
30
0
11
138.81
21
137.126
31
0
0
ARC
8
0
62
1
10
137.502
20
138.434
30
0
40
1.85
50
-45
51
45.000167
0
ARC
8
0
62
1
10
137.502
20
138.434
30
0
40
1.85
50
45.000167
51
135.000334
0
LINE
8
0
62
1
10
136.194
20
139.742
30
0
11
136.171
21
139.723
31
0
0
LINE
8
0
62
1
10
136.171
20
139.723
30
0
11
136.145
21
139.709
31
0
0
LINE
8
0
62
1
10
136.145
20
139.709
30
0
11
136.117
21
139.701
31
0
0
LINE
8
0
62
1
10
136.117
20
139.701
30
0
11
136.088
21
139.698
31
0
0
LINE
8
0
62
1
10
136.088
20
139.698
30
0
11
113.916
21
139.698
31
0
0
LINE
8
0
62
1
10
113.916
20
139.698
30
0
11
113.883
21
139.702
31
0
0
LINE
8
0
62
1
10
113.883
20
139.702
30
0
11
113.851
21
139.713
31
0
0
LINE
8
0
62
1
10
113.851
20
139.713
30
0
11
113.822
21
139.731
31
0
0
LINE
8
0
62
1
10
113.822
20
139.731
30
0
11
113.799
21
139.754
31
0
0
LINE
8
0
62
1
10
113.799
20
139.754
30
0
11
113.781
21
139.783
31
0
0
LINE
8
0
62
1
10
113.781
20
139.783
30
0
11
113.77
21
139.815
31
0
0
LINE
8
0
62
1
10
113.77
20
139.815
30
0
11
113.766
21
139.848
31
0
0
LINE
8
0
62
1
10
113.766
20
139.848
30
0
11
113.766
21
155.406
31
0
0
LINE
8
0
62
1
10
113.766
20
155.406
30
0
11
113.77
21
155.439
31
0
0
LINE
8
0
62
1
10
113.77
20
155.439
30
0
11
113.781
21
155.471
31
0
0
LINE
8
0
62
1
10
113.781
20
155.471
30
0
11
113.799
21
155.5
31
0
0
LINE
8
0
62
1
10
113.799
20
155.5
30
0
11
113.822
21
155.523
31
0
0
LINE
8
0
62
1
10
113.822
20
155.523
30
0
11
113.851
21
155.541
31
0
0
LINE
8
0
62
1
10
113.851
20
155.541
30
0
11
113.883
21
155.552
31
0
0
LINE
8
0
62
1
10
113.883
20
155.552
30
0
11
113.916
21
155.556
31
0
0
LINE
8
0
62
1
10
113.916
20
155.556
30
0
11
128.903
21
155.556
31
0
0
LINE
8
0
62
1
10
128.903
20
155.556
30
0
11
182.441
21
164.996
31
0
0
LINE
8
0
62
1
10
182.441
20
164.996
30
0
11
182.474
21
164.998
31
0
0
LINE
8
0
62
1
10
182.474
20
164.998
30
0
11
182.508
21
164.992
31
0
0
LINE
8
0
62
1
10
182.508
20
164.992
30
0
11
182.539
21
164.98
31
0
0
LINE
8
0
62
1
10
182.539
20
164.98
30
0
11
182.566
21
164.96
31
0
0
LINE
8
0
62
1
10
182.566
20
164.96
30
0
11
182.589
21
164.936
31
0
0
LINE
8
0
62
1
10
182.589
20
164.936
30
0
11
182.605
21
164.906
31
0
0
LINE
8
0
62
1
10
182.605
20
164.906
30
0
11
182.615
21
164.874
31
0
0
LINE
8
0
62
1
10
182.615
20
164.874
30
0
11
206.405
21
29.956
31
0
0
LINE
8
0
62
1
10
103.781
20
155.367
30
0
11
103.781
21
139.809
31
0
0
LINE
8
0
62
1
10
103.781
20
139.809
30
0
11
103.777
21
139.776
31
0
0
LINE
8
0
62
1
10
103.777
20
139.776
30
0
11
103.766
21
139.744
31
0
0
LINE
8
0
62
1
10
103.766
20
139.744
30
0
11
103.748
21
139.715
31
0
0
LINE
8
0
62
1
10
103.748
20
139.715
30
0
11
103.725
21
139.692
31
0
0
LINE
8
0
62
1
10
103.725
20
139.692
30
0
11
103.696
21
139.674
31
0
0
LINE
8
0
62
1
10
103.696
20
139.674
30
0
11
103.664
21
139.663
31
0
0
LINE
8
0
62
1
10
103.664
20
139.663
30
0
11
103.631
21
139.659
31
0
0
LINE
8
0
62
1
10
103.631
20
139.659
30
0
11
81.46
21
139.659
31
0
0
LINE
8
0
62
1
10
81.46
20
139.659
30
0
11
81.43
21
139.662
31
0
0
LINE
8
0
62
1
10
81.43
20
139.662
30
0
11
81.402
21
139.67
31
0
0
LINE
8
0
62
1
10
81.402
20
139.67
30
0
11
81.376
21
139.684
31
0
0
LINE
8
0
62
1
10
81.376
20
139.684
30
0
11
81.354
21
139.703
31
0
0
ARC
8
0
62
1
10
80.045
20
138.395
30
0
40
1.85
50
44.99599
51
134.996073
0
ARC
8
0
62
1
10
80.045
20
138.395
30
0
40
1.85
50
134.996073
51
-135.003843
0
LINE
8
0
62
1
10
78.737
20
137.087
30
0
11
78.756
21
137.064
31
0
0
LINE
8
0
62
1
10
78.756
20
137.064
30
0
11
78.77
21
137.038
31
0
0
LINE
8
0
62
1
10
78.77
20
137.038
30
0
11
78.778
21
137.01
31
0
0
LINE
8
0
62
1
10
78.778
20
137.01
30
0
11
78.781
21
136.981
31
0
0
LINE
8
0
62
1
10
78.781
20
136.981
30
0
11
78.781
21
132.638
31
0
0
LINE
8
0
62
1
10
78.781
20
132.638
30
0
11
78.778
21
132.609
31
0
0
LINE
8
0
62
1
10
78.778
20
132.609
30
0
11
78.77
21
132.581
31
0
0
LINE
8
0
62
1
10
78.77
20
132.581
30
0
11
78.756
21
132.555
31
0
0
LINE
8
0
62
1
10
78.756
20
132.555
30
0
11
78.737
21
132.532
31
0
0
ARC
8
0
62
1
10
80.045
20
131.223
30
0
40
1.85
50
134.979618
51
-135.006014
0
ARC
8
0
62
1
10
80.045
20
131.223
30
0
40
1.85
50
-135.006014
51
-44.991647
0
LINE
8
0
62
1
10
81.354
20
129.915
30
0
11
81.376
21
129.934
31
0
0
LINE
8
0
62
1
10
81.376
20
129.934
30
0
11
81.402
21
129.948
31
0
0
LINE
8
0
62
1
10
81.402
20
129.948
30
0
11
81.43
21
129.956
31
0
0
LINE
8
0
62
1
10
81.43
20
129.956
30
0
11
81.46
21
129.959
31
0
0
LINE
8
0
62
1
10
81.46
20
129.959
30
0
11
103.631
21
129.959
31
0
0
LINE
8
0
62
1
10
103.631
20
129.959
30
0
11
103.664
21
129.955
31
0
0
LINE
8
0
62
1
10
103.664
20
129.955
30
0
11
103.696
21
129.944
31
0
0
LINE
8
0
62
1
10
103.696
20
129.944
30
0
11
103.725
21
129.926
31
0
0
LINE
8
0
62
1
10
103.725
20
129.926
30
0
11
103.748
21
129.903
31
0
0
LINE
8
0
62
1
10
103.748
20
129.903
30
0
11
103.766
21
129.874
31
0
0
LINE
8
0
62
1
10
103.766
20
129.874
30
0
11
103.777
21
129.842
31
0
0
LINE
8
0
62
1
10
103.777
20
129.842
30
0
11
103.781
21
129.809
31
0
0
LINE
8
0
62
1
10
103.781
20
129.809
30
0
11
103.781
21
109.809
31
0
0
LINE
8
0
62
1
10
103.781
20
109.809
30
0
11
103.777
21
109.776
31
0
0
LINE
8
0
62
1
10
103.777
20
109.776
30
0
11
103.766
21
109.744
31
0
0
LINE
8
0
62
1
10
103.766
20
109.744
30
0
11
103.748
21
109.715
31
0
0
LINE
8
0
62
1
10
103.748
20
109.715
30
0
11
103.725
21
109.692
31
0
0
LINE
8
0
62
1
10
103.725
20
109.692
30
0
11
103.696
21
109.674
31
0
0
LINE
8
0
62
1
10
103.696
20
109.674
30
0
11
103.664
21
109.663
31
0
0
LINE
8
0
62
1
10
103.664
20
109.663
30
0
11
103.631
21
109.659
31
0
0
LINE
8
0
62
1
10
103.631
20
109.659
30
0
11
81.46
21
109.659
31
0
0
LINE
8
0
62
1
10
81.46
20
109.659
30
0
11
81.43
21
109.662
31
0
0
LINE
8
0
62
1
10
81.43
20
109.662
30
0
11
81.402
21
109.67
31
0
0
LINE
8
0
62
1
10
81.402
20
109.67
30
0
11
81.376
21
109.684
31
0
0
LINE
8
0
62
1
10
81.376
20
109.684
30
0
11
81.354
21
109.703
31
0
0
ARC
8
0
62
1
10
80.045
20
108.395
30
0
40
1.85
50
44.996157
51
-135.004177
0
LINE
8
0
62
1
10
78.737
20
107.087
30
0
11
78.756
21
107.064
31
0
0
LINE
8
0
62
1
10
78.756
20
107.064
30
0
11
78.77
21
107.038
31
0
0
LINE
8
0
62
1
10
78.77
20
107.038
30
0
11
78.778
21
107.01
31
0
0
LINE
8
0
62
1
10
78.778
20
107.01
30
0
11
78.781
21
106.981
31
0
0
LINE
8
0
62
1
10
78.781
20
106.981
30
0
11
78.781
21
102.638
31
0
0
LINE
8
0
62
1
10
78.781
20
102.638
30
0
11
78.778
21
102.609
31
0
0
LINE
8
0
62
1
10
78.778
20
102.609
30
0
11
78.77
21
102.581
31
0
0
LINE
8
0
62
1
10
78.77
20
102.581
30
0
11
78.756
21
102.555
31
0
0
LINE
8
0
62
1
10
78.756
20
102.555
30
0
11
78.737
21
102.532
31
0
0
ARC
8
0
62
1
10
80.045
20
101.223
30
0
40
1.85
50
134.978782
51
-135.00401
0
ARC
8
0
62
1
10
80.045
20
101.223
30
0
40
1.85
50
-135.00401
51
-44.986801
0
LINE
8
0
62
1
10
81.354
20
99.915
30
0
11
81.376
21
99.934
31
0
0
LINE
8
0
62
1
10
81.376
20
99.934
30
0
11
81.402
21
99.948
31
0
0
LINE
8
0
62
1
10
81.402
20
99.948
30
0
11
81.43
21
99.956
31
0
0
LINE
8
0
62
1
10
81.43
20
99.956
30
0
11
81.46
21
99.959
31
0
0
LINE
8
0
62
1
10
81.46
20
99.959
30
0
11
103.631
21
99.959
31
0
0
LINE
8
0
62
1
10
103.631
20
99.959
30
0
11
103.664
21
99.955
31
0
0
LINE
8
0
62
1
10
103.664
20
99.955
30
0
11
103.696
21
99.944
31
0
0
LINE
8
0
62
1
10
103.696
20
99.944
30
0
11
103.725
21
99.926
31
0
0
LINE
8
0
62
1
10
103.725
20
99.926
30
0
11
103.748
21
99.903
31
0
0
LINE
8
0
62
1
10
103.748
20
99.903
30
0
11
103.766
21
99.874
31
0
0
LINE
8
0
62
1
10
103.766
20
99.874
30
0
11
103.777
21
99.843
31
0
0
LINE
8
0
62
1
10
103.777
20
99.843
30
0
11
103.781
21
99.809
31
0
0
LINE
8
0
62
1
10
103.781
20
99.809
30
0
11
103.781
21
60.809
31
0
0
LINE
8
0
62
1
10
103.781
20
60.809
30
0
11
103.777
21
60.776
31
0
0
LINE
8
0
62
1
10
103.777
20
60.776
30
0
11
103.766
21
60.744
31
0
0
LINE
8
0
62
1
10
103.766
20
60.744
30
0
11
103.748
21
60.716
31
0
0
LINE
8
0
62
1
10
103.748
20
60.716
30
0
11
103.725
21
60.692
31
0
0
LINE
8
0
62
1
10
103.725
20
60.692
30
0
11
103.696
21
60.674
31
0
0
LINE
8
0
62
1
10
103.696
20
60.674
30
0
11
103.664
21
60.663
31
0
0
LINE
8
0
62
1
10
103.664
20
60.663
30
0
11
103.631
21
60.659
31
0
0
LINE
8
0
62
1
10
103.631
20
60.659
30
0
11
74.148
21
60.659
31
0
0
LINE
8
0
62
1
10
74.148
20
60.659
30
0
11
74.148
21
25.959
31
0
0
LINE
8
0
62
1
10
74.148
20
25.959
30
0
11
88.631
21
25.959
31
0
0
LINE
8
0
62
1
10
88.631
20
25.959
30
0
11
88.665
21
25.955
31
0
0
LINE
8
0
62
1
10
88.665
20
25.955
30
0
11
88.696
21
25.944
31
0
0
LINE
8
0
62
1
10
88.696
20
25.944
30
0
11
88.725
21
25.926
31
0
0
LINE
8
0
62
1
10
88.725
20
25.926
30
0
11
88.748
21
25.903
31
0
0
LINE
8
0
62
1
10
88.748
20
25.903
30
0
11
88.766
21
25.874
31
0
0
LINE
8
0
62
1
10
88.766
20
25.874
30
0
11
88.777
21
25.843
31
0
0
LINE
8
0
62
1
10
88.777
20
25.843
30
0
11
88.781
21
25.809
31
0
0
LINE
8
0
62
1
10
88.781
20
25.809
30
0
11
88.781
21
14.809
31
0
0
LINE
8
0
62
1
10
88.781
20
14.809
30
0
11
88.777
21
14.776
31
0
0
LINE
8
0
62
1
10
88.777
20
14.776
30
0
11
88.766
21
14.744
31
0
0
LINE
8
0
62
1
10
88.766
20
14.744
30
0
11
88.748
21
14.716
31
0
0
LINE
8
0
62
1
10
88.748
20
14.716
30
0
11
88.725
21
14.692
31
0
0
LINE
8
0
62
1
10
88.725
20
14.692
30
0
11
88.696
21
14.674
31
0
0
LINE
8
0
62
1
10
88.696
20
14.674
30
0
11
88.665
21
14.663
31
0
0
LINE
8
0
62
1
10
88.665
20
14.663
30
0
11
88.631
21
14.659
31
0
0
LINE
8
0
62
1
10
88.631
20
14.659
30
0
11
64.672
21
14.659
31
0
0
LINE
8
0
62
1
10
64.672
20
14.659
30
0
11
64.646
21
14.661
31
0
0
LINE
8
0
62
1
10
64.646
20
14.661
30
0
11
10.295
21
24.245
31
0
0
LINE
8
0
62
1
10
10.295
20
24.245
30
0
11
10.263
21
24.254
31
0
0
LINE
8
0
62
1
10
10.263
20
24.254
30
0
11
10.233
21
24.271
31
0
0
LINE
8
0
62
1
10
10.233
20
24.271
30
0
11
10.209
21
24.293
31
0
0
LINE
8
0
62
1
10
10.209
20
24.293
30
0
11
10.189
21
24.321
31
0
0
LINE
8
0
62
1
10
10.189
20
24.321
30
0
11
10.177
21
24.352
31
0
0
LINE
8
0
62
1
10
10.177
20
24.352
30
0
11
10.171
21
24.385
31
0
0
LINE
8
0
62
1
10
10.171
20
24.385
30
0
11
10.173
21
24.419
31
0
0
LINE
8
0
62
1
10
10.173
20
24.419
30
0
11
34.932
21
164.835
31
0
0
LINE
8
0
62
1
10
34.932
20
164.835
30
0
11
34.942
21
164.867
31
0
0
LINE
8
0
62
1
10
34.942
20
164.867
30
0
11
34.958
21
164.897
31
0
0
LINE
8
0
62
1
10
34.958
20
164.897
30
0
11
34.981
21
164.921
31
0
0
LINE
8
0
62
1
10
34.981
20
164.921
30
0
11
35.008
21
164.941
31
0
0
LINE
8
0
62
1
10
35.008
20
164.941
30
0
11
35.04
21
164.953
31
0
0
LINE
8
0
62
1
10
35.04
20
164.953
30
0
11
35.073
21
164.959
31
0
0
LINE
8
0
62
1
10
35.073
20
164.959
30
0
11
35.106
21
164.957
31
0
0
LINE
8
0
62
1
10
35.106
20
164.957
30
0
11
88.644
21
155.517
31
0
0
LINE
8
0
62
1
10
88.644
20
155.517
30
0
11
103.631
21
155.517
31
0
0
LINE
8
0
62
1
10
103.631
20
155.517
30
0
11
103.664
21
155.513
31
0
0
LINE
8
0
62
1
10
103.664
20
155.513
30
0
11
103.696
21
155.502
31
0
0
LINE
8
0
62
1
10
103.696
20
155.502
30
0
11
103.725
21
155.484
31
0
0
LINE
8
0
62
1
10
103.725
20
155.484
30
0
11
103.748
21
155.461
31
0
0
LINE
8
0
62
1
10
103.748
20
155.461
30
0
11
103.766
21
155.432
31
0
0
LINE
8
0
62
1
10
103.766
20
155.432
30
0
11
103.777
21
155.4
31
0
0
LINE
8
0
62
1
10
103.777
20
155.4
30
0
11
103.781
21
155.367
31
0
0
LINE
8
0
62
1
10
103.781
20
181.848
30
0
11
22.023
21
181.848
31
0
0
LINE
8
0
62
1
10
22.023
20
181.848
30
0
11
21.99
21
181.852
31
0
0
LINE
8
0
62
1
10
21.99
20
181.852
30
0
11
21.958
21
181.863
31
0
0
LINE
8
0
62
1
10
21.958
20
181.863
30
0
11
21.929
21
181.881
31
0
0
LINE
8
0
62
1
10
21.929
20
181.881
30
0
11
21.905
21
181.906
31
0
0
LINE
8
0
62
1
10
21.905
20
181.906
30
0
11
21.887
21
181.935
31
0
0
LINE
8
0
62
1
10
21.887
20
181.935
30
0
11
0.864
21
227.02
31
0
0
LINE
8
0
62
1
10
0.864
20
227.02
30
0
11
0.853
21
227.051
31
0
0
LINE
8
0
62
1
10
0.853
20
227.051
30
0
11
0.85
21
227.084
31
0
0
LINE
8
0
62
1
10
0.85
20
227.084
30
0
11
0.854
21
227.118
31
0
0
LINE
8
0
62
1
10
0.854
20
227.118
30
0
11
0.865
21
227.149
31
0
0
LINE
8
0
62
1
10
0.865
20
227.149
30
0
11
0.883
21
227.177
31
0
0
LINE
8
0
62
1
10
0.883
20
227.177
30
0
11
0.907
21
227.201
31
0
0
LINE
8
0
62
1
10
0.907
20
227.201
30
0
11
0.935
21
227.218
31
0
0
LINE
8
0
62
1
10
0.935
20
227.218
30
0
11
0.967
21
227.229
31
0
0
LINE
8
0
62
1
10
0.967
20
227.229
30
0
11
1
21
227.233
31
0
0
LINE
8
0
62
1
10
1
20
227.233
30
0
11
24.545
21
227.233
31
0
0
LINE
8
0
62
1
10
24.545
20
227.233
30
0
11
24.579
21
227.229
31
0
0
LINE
8
0
62
1
10
24.579
20
227.229
30
0
11
24.611
21
227.218
31
0
0
LINE
8
0
62
1
10
24.611
20
227.218
30
0
11
24.64
21
227.2
31
0
0
LINE
8
0
62
1
10
24.64
20
227.2
30
0
11
24.664
21
227.175
31
0
0
LINE
8
0
62
1
10
24.664
20
227.175
30
0
11
24.681
21
227.146
31
0
0
LINE
8
0
62
1
10
24.681
20
227.146
30
0
11
33.212
21
208.852
31
0
0
LINE
8
0
62
1
10
33.212
20
208.852
30
0
11
33.221
21
208.825
31
0
0
LINE
8
0
62
1
10
33.221
20
208.825
30
0
11
33.226
21
208.796
31
0
0
LINE
8
0
62
1
10
33.226
20
208.796
30
0
11
33.224
21
208.766
31
0
0
LINE
8
0
62
1
10
33.224
20
208.766
30
0
11
33.217
21
208.738
31
0
0
ARC
8
0
62
1
10
34.955
20
208.105
30
0
40
1.85
50
160.001067
51
-109.998711
0
ARC
8
0
62
1
10
34.955
20
208.105
30
0
40
1.85
50
-109.998711
51
-19.998489
0
LINE
8
0
62
1
10
36.694
20
207.472
30
0
11
36.706
21
207.499
31
0
0
LINE
8
0
62
1
10
36.706
20
207.499
30
0
11
36.724
21
207.522
31
0
0
LINE
8
0
62
1
10
36.724
20
207.522
30
0
11
36.746
21
207.542
31
0
0
LINE
8
0
62
1
10
36.746
20
207.542
30
0
11
36.771
21
207.557
31
0
0
LINE
8
0
62
1
10
36.771
20
207.557
30
0
11
40.707
21
209.393
31
0
0
LINE
8
0
62
1
10
40.707
20
209.393
30
0
11
40.735
21
209.403
31
0
0
LINE
8
0
62
1
10
40.735
20
209.403
30
0
11
40.764
21
209.407
31
0
0
LINE
8
0
62
1
10
40.764
20
209.407
30
0
11
40.794
21
209.405
31
0
0
LINE
8
0
62
1
10
40.794
20
209.405
30
0
11
40.822
21
209.398
31
0
0
ARC
8
0
62
1
10
41.455
20
211.136
30
0
40
1.85
50
-110.005367
51
-20.003984
0
ARC
8
0
62
1
10
41.455
20
211.136
30
0
40
1.85
50
-20.003984
51
69.997399
0
LINE
8
0
62
1
10
42.087
20
212.874
30
0
11
42.061
21
212.887
31
0
0
LINE
8
0
62
1
10
42.061
20
212.887
30
0
11
42.037
21
212.904
31
0
0
LINE
8
0
62
1
10
42.037
20
212.904
30
0
11
42.018
21
212.926
31
0
0
LINE
8
0
62
1
10
42.018
20
212.926
30
0
11
42.003
21
212.952
31
0
0
LINE
8
0
62
1
10
42.003
20
212.952
30
0
11
35.443
21
227.02
31
0
0
LINE
8
0
62
1
10
35.443
20
227.02
30
0
11
35.433
21
227.051
31
0
0
LINE
8
0
62
1
10
35.433
20
227.051
30
0
11
35.429
21
227.084
31
0
0
LINE
8
0
62
1
10
35.429
20
227.084
30
0
11
35.433
21
227.118
31
0
0
LINE
8
0
62
1
10
35.433
20
227.118
30
0
11
35.444
21
227.149
31
0
0
LINE
8
0
62
1
10
35.444
20
227.149
30
0
11
35.462
21
227.177
31
0
0
LINE
8
0
62
1
10
35.462
20
227.177
30
0
11
35.486
21
227.201
31
0
0
LINE
8
0
62
1
10
35.486
20
227.201
30
0
11
35.514
21
227.218
31
0
0
LINE
8
0
62
1
10
35.514
20
227.218
30
0
11
35.546
21
227.229
31
0
0
LINE
8
0
62
1
10
35.546
20
227.229
30
0
11
35.579
21
227.233
31
0
0
LINE
8
0
62
1
10
35.579
20
227.233
30
0
11
180.701
21
227.233
31
0
0
LINE
8
0
62
1
10
180.701
20
227.233
30
0
11
180.734
21
227.229
31
0
0
LINE
8
0
62
1
10
180.734
20
227.229
30
0
11
180.766
21
227.218
31
0
0
LINE
8
0
62
1
10
180.766
20
227.218
30
0
11
180.794
21
227.201
31
0
0
LINE
8
0
62
1
10
180.794
20
227.201
30
0
11
180.818
21
227.177
31
0
0
LINE
8
0
62
1
10
180.818
20
227.177
30
0
11
180.836
21
227.149
31
0
0
LINE
8
0
62
1
10
180.836
20
227.149
30
0
11
180.847
21
227.118
31
0
0
LINE
8
0
62
1
10
180.847
20
227.118
30
0
11
180.851
21
227.084
31
0
0
LINE
8
0
62
1
10
180.851
20
227.084
30
0
11
180.848
21
227.051
31
0
0
LINE
8
0
62
1
10
180.848
20
227.051
30
0
11
180.837
21
227.02
31
0
0
LINE
8
0
62
1
10
180.837
20
227.02
30
0
11
174.278
21
212.952
31
0
0
LINE
8
0
62
1
10
174.278
20
212.952
30
0
11
174.263
21
212.926
31
0
0
LINE
8
0
62
1
10
174.263
20
212.926
30
0
11
174.243
21
212.904
31
0
0
LINE
8
0
62
1
10
174.243
20
212.904
30
0
11
174.22
21
212.887
31
0
0
LINE
8
0
62
1
10
174.22
20
212.887
30
0
11
174.193
21
212.874
31
0
0
ARC
8
0
62
1
10
174.826
20
211.136
30
0
40
1.85
50
110.002652
51
-69.997348
0
LINE
8
0
62
1
10
175.459
20
209.398
30
0
11
175.487
21
209.405
31
0
0
LINE
8
0
62
1
10
175.487
20
209.405
30
0
11
175.517
21
209.407
31
0
0
LINE
8
0
62
1
10
175.517
20
209.407
30
0
11
175.546
21
209.403
31
0
0
LINE
8
0
62
1
10
175.546
20
209.403
30
0
11
175.573
21
209.393
31
0
0
LINE
8
0
62
1
10
175.573
20
209.393
30
0
11
179.509
21
207.557
31
0
0
LINE
8
0
62
1
10
179.509
20
207.557
30
0
11
179.535
21
207.542
31
0
0
LINE
8
0
62
1
10
179.535
20
207.542
30
0
11
179.557
21
207.522
31
0
0
LINE
8
0
62
1
10
179.557
20
207.522
30
0
11
179.574
21
207.499
31
0
0
LINE
8
0
62
1
10
179.574
20
207.499
30
0
11
179.587
21
207.472
31
0
0
ARC
8
0
62
1
10
181.325
20
208.105
30
0
40
1.85
50
-159.988027
51
19.98343
0
LINE
8
0
62
1
10
183.064
20
208.738
30
0
11
183.057
21
208.766
31
0
0
LINE
8
0
62
1
10
183.057
20
208.766
30
0
11
183.055
21
208.796
31
0
0
LINE
8
0
62
1
10
183.055
20
208.796
30
0
11
183.059
21
208.825
31
0
0
LINE
8
0
62
1
10
183.059
20
208.825
30
0
11
183.069
21
208.852
31
0
0
LINE
8
0
62
1
10
183.069
20
208.852
30
0
11
191.599
21
227.146
31
0
0
LINE
8
0
62
1
10
191.599
20
227.146
30
0
11
191.617
21
227.175
31
0
0
LINE
8
0
62
1
10
191.617
20
227.175
30
0
11
191.641
21
227.2
31
0
0
LINE
8
0
62
1
10
191.641
20
227.2
30
0
11
191.669
21
227.218
31
0
0
LINE
8
0
62
1
10
191.669
20
227.218
30
0
11
191.701
21
227.229
31
0
0
LINE
8
0
62
1
10
191.701
20
227.229
30
0
11
191.735
21
227.233
31
0
0
LINE
8
0
62
1
10
191.735
20
227.233
30
0
11
215.28
21
227.233
31
0
0
LINE
8
0
62
1
10
215.28
20
227.233
30
0
11
215.313
21
227.229
31
0
0
LINE
8
0
62
1
10
215.313
20
227.229
30
0
11
215.345
21
227.218
31
0
0
LINE
8
0
62
1
10
215.345
20
227.218
30
0
11
215.373
21
227.201
31
0
0
LINE
8
0
62
1
10
215.373
20
227.201
30
0
11
215.397
21
227.177
31
0
0
LINE
8
0
62
1
10
215.397
20
227.177
30
0
11
215.415
21
227.149
31
0
0
LINE
8
0
62
1
10
215.415
20
227.149
30
0
11
215.426
21
227.118
31
0
0
LINE
8
0
62
1
10
215.426
20
227.118
30
0
11
215.43
21
227.084
31
0
0
LINE
8
0
62
1
10
215.43
20
227.084
30
0
11
215.427
21
227.051
31
0
0
LINE
8
0
62
1
10
215.427
20
227.051
30
0
11
215.416
21
227.02
31
0
0
LINE
8
0
62
1
10
215.416
20
227.02
30
0
11
194.393
21
181.935
31
0
0
LINE
8
0
62
1
10
194.393
20
181.935
30
0
11
194.375
21
181.906
31
0
0
LINE
8
0
62
1
10
194.375
20
181.906
30
0
11
194.351
21
181.881
31
0
0
LINE
8
0
62
1
10
194.351
20
181.881
30
0
11
194.323
21
181.863
31
0
0
LINE
8
0
62
1
10
194.323
20
181.863
30
0
11
194.291
21
181.852
31
0
0
LINE
8
0
62
1
10
194.291
20
181.852
30
0
11
194.257
21
181.848
31
0
0
LINE
8
0
62
1
10
194.257
20
181.848
30
0
11
103.781
21
181.848
31
0
0
ENDSEC
0
EOF
