999
Generated by Autodesk CAM - http://cam.autodesk.com
999
UNIT = MM
999
THICKNESS = 5
0
SECTION
2
HEADER
9
$ACADVER
1
AC1006
9
$ANGBASE
50
0
9
$ANGDIR
70
0
0
ENDSEC
0
SECTION
2
BLOCKS
0
ENDSEC
9
$EXTMIN
10
0
20
0
30
0
9
$EXTMAX
10
252.449
20
321.963
30
15
0
SECTION
2
ENTITIES
0
ARC
8
0
62
1
10
7
20
32.677
30
0
40
1.45
50
90
51
-90
0
ARC
8
0
62
1
10
7
20
32.677
30
0
40
1.45
50
-90
51
90
0
ARC
8
0
62
1
10
7
20
142.677
30
0
40
1.45
50
90
51
-90
0
ARC
8
0
62
1
10
7
20
142.677
30
0
40
1.45
50
-90
51
90
0
ARC
8
0
62
1
10
7
20
252.677
30
0
40
1.45
50
-50.485595
51
129.514405
0
ARC
8
0
62
1
10
7
20
252.677
30
0
40
1.45
50
129.514405
51
-50.485595
0
ARC
8
0
62
1
10
126
20
286.32
30
0
40
7.35
50
-90
51
90
0
ARC
8
0
62
1
10
126
20
286.32
30
0
40
7.35
50
90
51
-90
0
LINE
8
0
62
1
10
211.15
20
258.867
30
0
11
211.15
21
246.15
31
0
0
LINE
8
0
62
1
10
211.15
20
246.15
30
0
11
226.35
21
246.15
31
0
0
LINE
8
0
62
1
10
226.35
20
246.15
30
0
11
226.35
21
261.35
31
0
0
LINE
8
0
62
1
10
226.35
20
261.35
30
0
11
211.15
21
261.35
31
0
0
LINE
8
0
62
1
10
211.15
20
261.35
30
0
11
211.15
21
258.867
31
0
0
ARC
8
0
62
1
10
245
20
252.677
30
0
40
1.45
50
-140.485624
51
39.514376
0
ARC
8
0
62
1
10
245
20
252.677
30
0
40
1.45
50
39.514376
51
-140.485624
0
ARC
8
0
62
1
10
245
20
142.677
30
0
40
1.45
50
-100.971153
51
79.028847
0
ARC
8
0
62
1
10
245
20
142.677
30
0
40
1.45
50
79.028847
51
-100.971153
0
ARC
8
0
62
1
10
245
20
32.677
30
0
40
1.45
50
90
51
-90
0
ARC
8
0
62
1
10
245
20
32.677
30
0
40
1.45
50
-90
51
90
0
LINE
8
0
62
1
10
251.15
20
34.127
30
0
11
251.15
21
1
31
0
0
LINE
8
0
62
1
10
251.15
20
1
30
0
11
251.146
21
0.967
31
0
0
LINE
8
0
62
1
10
251.146
20
0.967
30
0
11
251.135
21
0.935
31
0
0
LINE
8
0
62
1
10
251.135
20
0.935
30
0
11
251.117
21
0.906
31
0
0
LINE
8
0
62
1
10
251.117
20
0.906
30
0
11
251.094
21
0.883
31
0
0
LINE
8
0
62
1
10
251.094
20
0.883
30
0
11
251.065
21
0.865
31
0
0
LINE
8
0
62
1
10
251.065
20
0.865
30
0
11
251.033
21
0.854
31
0
0
LINE
8
0
62
1
10
251.033
20
0.854
30
0
11
251
21
0.85
31
0
0
LINE
8
0
62
1
10
251
20
0.85
30
0
11
1
21
0.85
31
0
0
LINE
8
0
62
1
10
1
20
0.85
30
0
11
0.967
21
0.854
31
0
0
LINE
8
0
62
1
10
0.967
20
0.854
30
0
11
0.935
21
0.865
31
0
0
LINE
8
0
62
1
10
0.935
20
0.865
30
0
11
0.906
21
0.883
31
0
0
LINE
8
0
62
1
10
0.906
20
0.883
30
0
11
0.883
21
0.906
31
0
0
LINE
8
0
62
1
10
0.883
20
0.906
30
0
11
0.865
21
0.935
31
0
0
LINE
8
0
62
1
10
0.865
20
0.935
30
0
11
0.854
21
0.967
31
0
0
LINE
8
0
62
1
10
0.854
20
0.967
30
0
11
0.85
21
1
31
0
0
LINE
8
0
62
1
10
0.85
20
1
30
0
11
0.85
21
285.659
31
0
0
LINE
8
0
62
1
10
0.85
20
285.659
30
0
11
0.853
21
285.689
31
0
0
LINE
8
0
62
1
10
0.853
20
285.689
30
0
11
0.862
21
285.717
31
0
0
LINE
8
0
62
1
10
0.862
20
285.717
30
0
11
0.876
21
285.743
31
0
0
LINE
8
0
62
1
10
0.876
20
285.743
30
0
11
0.895
21
285.766
31
0
0
LINE
8
0
62
1
10
0.895
20
285.766
30
0
11
0.918
21
285.784
31
0
0
LINE
8
0
62
1
10
0.918
20
285.784
30
0
11
0.944
21
285.798
31
0
0
LINE
8
0
62
1
10
0.944
20
285.798
30
0
11
90.728
21
321.952
31
0
0
LINE
8
0
62
1
10
90.728
20
321.952
30
0
11
90.758
21
321.961
31
0
0
LINE
8
0
62
1
10
90.758
20
321.961
30
0
11
90.789
21
321.963
31
0
0
LINE
8
0
62
1
10
90.789
20
321.963
30
0
11
90.82
21
321.959
31
0
0
LINE
8
0
62
1
10
90.82
20
321.959
30
0
11
90.849
21
321.948
31
0
0
ARC
8
0
62
1
10
126
20
394.337
30
0
40
80.472
50
-115.90028
51
-64.09972
0
LINE
8
0
62
1
10
161.15
20
321.948
30
0
11
161.18
21
321.959
31
0
0
LINE
8
0
62
1
10
161.18
20
321.959
30
0
11
161.211
21
321.963
31
0
0
LINE
8
0
62
1
10
161.211
20
321.963
30
0
11
161.242
21
321.961
31
0
0
LINE
8
0
62
1
10
161.242
20
321.961
30
0
11
161.272
21
321.952
31
0
0
LINE
8
0
62
1
10
161.272
20
321.952
30
0
11
251.056
21
285.798
31
0
0
LINE
8
0
62
1
10
251.056
20
285.798
30
0
11
251.082
21
285.784
31
0
0
LINE
8
0
62
1
10
251.082
20
285.784
30
0
11
251.105
21
285.766
31
0
0
LINE
8
0
62
1
10
251.105
20
285.766
30
0
11
251.124
21
285.743
31
0
0
LINE
8
0
62
1
10
251.124
20
285.743
30
0
11
251.138
21
285.717
31
0
0
LINE
8
0
62
1
10
251.138
20
285.717
30
0
11
251.147
21
285.689
31
0
0
LINE
8
0
62
1
10
251.147
20
285.689
30
0
11
251.15
21
285.659
31
0
0
LINE
8
0
62
1
10
251.15
20
285.659
30
0
11
251.15
21
34.127
31
0
0
ENDSEC
0
EOF
