999
Generated by Autodesk CAM - http://cam.autodesk.com
999
UNIT = MM
999
THICKNESS = 20
0
SECTION
2
HEADER
9
$ACADVER
1
AC1006
9
$ANGBASE
50
0
9
$ANGDIR
70
0
0
ENDSEC
0
SECTION
2
BLOCKS
0
ENDSEC
9
$EXTMIN
10
0
20
0
30
0
9
$EXTMAX
10
211.758
20
394.011
30
15
0
SECTION
2
ENTITIES
0
LINE
8
0
62
1
10
127.069
20
195.672
30
0
11
129.926
21
194.022
31
0
0
LINE
8
0
62
1
10
129.926
20
194.022
30
0
11
129.949
21
194.005
31
0
0
LINE
8
0
62
1
10
129.949
20
194.005
30
0
11
129.969
21
193.984
31
0
0
LINE
8
0
62
1
10
129.969
20
193.984
30
0
11
129.985
21
193.96
31
0
0
ARC
8
0
62
1
10
131.635
20
194.797
30
0
40
1.85
50
-153.101736
51
-26.898051
0
LINE
8
0
62
1
10
133.285
20
193.96
30
0
11
133.301
21
193.984
31
0
0
LINE
8
0
62
1
10
133.301
20
193.984
30
0
11
133.321
21
194.005
31
0
0
LINE
8
0
62
1
10
133.321
20
194.005
30
0
11
133.344
21
194.022
31
0
0
LINE
8
0
62
1
10
133.344
20
194.022
30
0
11
136.201
21
195.672
31
0
0
LINE
8
0
62
1
10
136.201
20
195.672
30
0
11
136.227
21
195.684
31
0
0
LINE
8
0
62
1
10
136.227
20
195.684
30
0
11
136.255
21
195.691
31
0
0
LINE
8
0
62
1
10
136.255
20
195.691
30
0
11
136.284
21
195.692
31
0
0
ARC
8
0
62
1
10
136.385
20
197.539
30
0
40
1.85
50
-93.124756
51
33.12542
0
LINE
8
0
62
1
10
137.934
20
198.55
30
0
11
137.921
21
198.576
31
0
0
LINE
8
0
62
1
10
137.921
20
198.576
30
0
11
137.913
21
198.603
31
0
0
LINE
8
0
62
1
10
137.913
20
198.603
30
0
11
137.91
21
198.632
31
0
0
LINE
8
0
62
1
10
137.91
20
198.632
30
0
11
137.91
21
201.931
31
0
0
LINE
8
0
62
1
10
137.91
20
201.931
30
0
11
137.913
21
201.96
31
0
0
LINE
8
0
62
1
10
137.913
20
201.96
30
0
11
137.921
21
201.987
31
0
0
LINE
8
0
62
1
10
137.921
20
201.987
30
0
11
137.934
21
202.013
31
0
0
ARC
8
0
62
1
10
136.385
20
203.024
30
0
40
1.85
50
-33.12542
51
93.124782
0
LINE
8
0
62
1
10
136.284
20
204.871
30
0
11
136.255
21
204.872
31
0
0
LINE
8
0
62
1
10
136.255
20
204.872
30
0
11
136.227
21
204.879
31
0
0
LINE
8
0
62
1
10
136.227
20
204.879
30
0
11
136.201
21
204.891
31
0
0
LINE
8
0
62
1
10
136.201
20
204.891
30
0
11
133.344
21
206.541
31
0
0
LINE
8
0
62
1
10
133.344
20
206.541
30
0
11
133.321
21
206.558
31
0
0
LINE
8
0
62
1
10
133.321
20
206.558
30
0
11
133.301
21
206.579
31
0
0
LINE
8
0
62
1
10
133.301
20
206.579
30
0
11
133.285
21
206.603
31
0
0
ARC
8
0
62
1
10
131.635
20
205.766
30
0
40
1.85
50
26.897629
51
153.102157
0
LINE
8
0
62
1
10
129.985
20
206.603
30
0
11
129.969
21
206.579
31
0
0
LINE
8
0
62
1
10
129.969
20
206.579
30
0
11
129.949
21
206.558
31
0
0
LINE
8
0
62
1
10
129.949
20
206.558
30
0
11
129.926
21
206.541
31
0
0
LINE
8
0
62
1
10
129.926
20
206.541
30
0
11
127.069
21
204.891
31
0
0
LINE
8
0
62
1
10
127.069
20
204.891
30
0
11
127.043
21
204.879
31
0
0
LINE
8
0
62
1
10
127.043
20
204.879
30
0
11
127.015
21
204.872
31
0
0
LINE
8
0
62
1
10
127.015
20
204.872
30
0
11
126.986
21
204.871
31
0
0
ARC
8
0
62
1
10
126.885
20
203.024
30
0
40
1.85
50
86.874983
51
-146.87458
0
LINE
8
0
62
1
10
125.336
20
202.013
30
0
11
125.349
21
201.987
31
0
0
LINE
8
0
62
1
10
125.349
20
201.987
30
0
11
125.357
21
201.96
31
0
0
LINE
8
0
62
1
10
125.357
20
201.96
30
0
11
125.36
21
201.931
31
0
0
LINE
8
0
62
1
10
125.36
20
201.931
30
0
11
125.36
21
198.632
31
0
0
LINE
8
0
62
1
10
125.36
20
198.632
30
0
11
125.357
21
198.603
31
0
0
LINE
8
0
62
1
10
125.357
20
198.603
30
0
11
125.349
21
198.576
31
0
0
LINE
8
0
62
1
10
125.349
20
198.576
30
0
11
125.336
21
198.55
31
0
0
ARC
8
0
62
1
10
126.885
20
197.539
30
0
40
1.85
50
146.87458
51
-86.875008
0
LINE
8
0
62
1
10
126.986
20
195.692
30
0
11
127.015
21
195.691
31
0
0
LINE
8
0
62
1
10
127.015
20
195.691
30
0
11
127.043
21
195.684
31
0
0
LINE
8
0
62
1
10
127.043
20
195.684
30
0
11
127.069
21
195.672
31
0
0
LINE
8
0
62
1
10
73.527
20
42.798
30
0
11
73.549
21
42.817
31
0
0
LINE
8
0
62
1
10
73.549
20
42.817
30
0
11
73.575
21
42.831
31
0
0
LINE
8
0
62
1
10
73.575
20
42.831
30
0
11
73.603
21
42.84
31
0
0
LINE
8
0
62
1
10
73.603
20
42.84
30
0
11
73.633
21
42.842
31
0
0
LINE
8
0
62
1
10
73.633
20
42.842
30
0
11
113.047
21
42.842
31
0
0
LINE
8
0
62
1
10
113.047
20
42.842
30
0
11
113.076
21
42.84
31
0
0
LINE
8
0
62
1
10
113.076
20
42.84
30
0
11
113.104
21
42.831
31
0
0
LINE
8
0
62
1
10
113.104
20
42.831
30
0
11
113.13
21
42.817
31
0
0
LINE
8
0
62
1
10
113.13
20
42.817
30
0
11
113.153
21
42.798
31
0
0
ARC
8
0
62
1
10
115.169
20
44.813
30
0
40
2.85
50
-135.011604
51
-45.002006
0
ARC
8
0
62
1
10
115.169
20
44.813
30
0
40
2.85
50
-45.002006
51
45.007592
0
LINE
8
0
62
1
10
117.184
20
46.829
30
0
11
117.165
21
46.852
31
0
0
LINE
8
0
62
1
10
117.165
20
46.852
30
0
11
117.151
21
46.878
31
0
0
LINE
8
0
62
1
10
117.151
20
46.878
30
0
11
117.143
21
46.906
31
0
0
LINE
8
0
62
1
10
117.143
20
46.906
30
0
11
117.14
21
46.935
31
0
0
LINE
8
0
62
1
10
117.14
20
46.935
30
0
11
117.14
21
81.45
31
0
0
LINE
8
0
62
1
10
117.14
20
81.45
30
0
11
117.143
21
81.479
31
0
0
LINE
8
0
62
1
10
117.143
20
81.479
30
0
11
117.151
21
81.507
31
0
0
LINE
8
0
62
1
10
117.151
20
81.507
30
0
11
117.165
21
81.533
31
0
0
LINE
8
0
62
1
10
117.165
20
81.533
30
0
11
117.184
21
81.556
31
0
0
ARC
8
0
62
1
10
115.169
20
83.571
30
0
40
2.85
50
-45.006941
51
45.002657
0
ARC
8
0
62
1
10
115.169
20
83.571
30
0
40
2.85
50
45.002657
51
135.012255
0
LINE
8
0
62
1
10
113.153
20
85.586
30
0
11
113.13
21
85.568
31
0
0
LINE
8
0
62
1
10
113.13
20
85.568
30
0
11
113.104
21
85.554
31
0
0
LINE
8
0
62
1
10
113.104
20
85.554
30
0
11
113.076
21
85.545
31
0
0
LINE
8
0
62
1
10
113.076
20
85.545
30
0
11
113.047
21
85.542
31
0
0
LINE
8
0
62
1
10
113.047
20
85.542
30
0
11
73.633
21
85.542
31
0
0
LINE
8
0
62
1
10
73.633
20
85.542
30
0
11
73.603
21
85.545
31
0
0
LINE
8
0
62
1
10
73.603
20
85.545
30
0
11
73.575
21
85.554
31
0
0
LINE
8
0
62
1
10
73.575
20
85.554
30
0
11
73.549
21
85.568
31
0
0
LINE
8
0
62
1
10
73.549
20
85.568
30
0
11
73.527
21
85.586
31
0
0
ARC
8
0
62
1
10
71.511
20
83.571
30
0
40
2.85
50
45
51
-135
0
LINE
8
0
62
1
10
69.496
20
81.556
30
0
11
69.515
21
81.533
31
0
0
LINE
8
0
62
1
10
69.515
20
81.533
30
0
11
69.529
21
81.507
31
0
0
LINE
8
0
62
1
10
69.529
20
81.507
30
0
11
69.537
21
81.479
31
0
0
LINE
8
0
62
1
10
69.537
20
81.479
30
0
11
69.54
21
81.45
31
0
0
LINE
8
0
62
1
10
69.54
20
81.45
30
0
11
69.54
21
46.935
31
0
0
LINE
8
0
62
1
10
69.54
20
46.935
30
0
11
69.537
21
46.906
31
0
0
LINE
8
0
62
1
10
69.537
20
46.906
30
0
11
69.529
21
46.878
31
0
0
LINE
8
0
62
1
10
69.529
20
46.878
30
0
11
69.515
21
46.852
31
0
0
LINE
8
0
62
1
10
69.515
20
46.852
30
0
11
69.496
21
46.829
31
0
0
ARC
8
0
62
1
10
71.511
20
44.814
30
0
40
2.85
50
134.998319
51
-135.000651
0
ARC
8
0
62
1
10
71.511
20
44.814
30
0
40
2.85
50
-135.000651
51
-44.99962
0
LINE
8
0
62
1
10
26.15
20
89.204
30
0
11
26.146
21
89.171
31
0
0
LINE
8
0
62
1
10
26.146
20
89.171
30
0
11
26.135
21
89.139
31
0
0
LINE
8
0
62
1
10
26.135
20
89.139
30
0
11
26.117
21
89.111
31
0
0
LINE
8
0
62
1
10
26.117
20
89.111
30
0
11
26.094
21
89.087
31
0
0
LINE
8
0
62
1
10
26.094
20
89.087
30
0
11
26.065
21
89.069
31
0
0
LINE
8
0
62
1
10
26.065
20
89.069
30
0
11
26.033
21
89.058
31
0
0
LINE
8
0
62
1
10
26.033
20
89.058
30
0
11
26
21
89.054
31
0
0
LINE
8
0
62
1
10
26
20
89.054
30
0
11
16.15
21
89.054
31
0
0
LINE
8
0
62
1
10
16.15
20
89.054
30
0
11
16.15
21
69.204
31
0
0
LINE
8
0
62
1
10
16.15
20
69.204
30
0
11
16.146
21
69.171
31
0
0
LINE
8
0
62
1
10
16.146
20
69.171
30
0
11
16.135
21
69.139
31
0
0
LINE
8
0
62
1
10
16.135
20
69.139
30
0
11
16.117
21
69.111
31
0
0
LINE
8
0
62
1
10
16.117
20
69.111
30
0
11
16.094
21
69.087
31
0
0
LINE
8
0
62
1
10
16.094
20
69.087
30
0
11
16.065
21
69.069
31
0
0
LINE
8
0
62
1
10
16.065
20
69.069
30
0
11
16.033
21
69.058
31
0
0
LINE
8
0
62
1
10
16.033
20
69.058
30
0
11
16
21
69.054
31
0
0
LINE
8
0
62
1
10
16
20
69.054
30
0
11
1
21
69.054
31
0
0
LINE
8
0
62
1
10
1
20
69.054
30
0
11
0.967
21
69.058
31
0
0
LINE
8
0
62
1
10
0.967
20
69.058
30
0
11
0.935
21
69.069
31
0
0
LINE
8
0
62
1
10
0.935
20
69.069
30
0
11
0.906
21
69.087
31
0
0
LINE
8
0
62
1
10
0.906
20
69.087
30
0
11
0.883
21
69.111
31
0
0
LINE
8
0
62
1
10
0.883
20
69.111
30
0
11
0.865
21
69.139
31
0
0
LINE
8
0
62
1
10
0.865
20
69.139
30
0
11
0.854
21
69.171
31
0
0
LINE
8
0
62
1
10
0.854
20
69.171
30
0
11
0.85
21
69.204
31
0
0
LINE
8
0
62
1
10
0.85
20
69.204
30
0
11
0.85
21
319.204
31
0
0
LINE
8
0
62
1
10
0.85
20
319.204
30
0
11
0.854
21
319.237
31
0
0
LINE
8
0
62
1
10
0.854
20
319.237
30
0
11
0.865
21
319.269
31
0
0
LINE
8
0
62
1
10
0.865
20
319.269
30
0
11
0.883
21
319.298
31
0
0
LINE
8
0
62
1
10
0.883
20
319.298
30
0
11
0.906
21
319.321
31
0
0
LINE
8
0
62
1
10
0.906
20
319.321
30
0
11
0.935
21
319.339
31
0
0
LINE
8
0
62
1
10
0.935
20
319.339
30
0
11
0.967
21
319.35
31
0
0
LINE
8
0
62
1
10
0.967
20
319.35
30
0
11
1
21
319.354
31
0
0
LINE
8
0
62
1
10
1
20
319.354
30
0
11
16
21
319.354
31
0
0
LINE
8
0
62
1
10
16
20
319.354
30
0
11
16.033
21
319.35
31
0
0
LINE
8
0
62
1
10
16.033
20
319.35
30
0
11
16.065
21
319.339
31
0
0
LINE
8
0
62
1
10
16.065
20
319.339
30
0
11
16.094
21
319.321
31
0
0
LINE
8
0
62
1
10
16.094
20
319.321
30
0
11
16.117
21
319.298
31
0
0
LINE
8
0
62
1
10
16.117
20
319.298
30
0
11
16.135
21
319.269
31
0
0
LINE
8
0
62
1
10
16.135
20
319.269
30
0
11
16.146
21
319.237
31
0
0
LINE
8
0
62
1
10
16.146
20
319.237
30
0
11
16.15
21
319.204
31
0
0
LINE
8
0
62
1
10
16.15
20
319.204
30
0
11
16.15
21
299.354
31
0
0
LINE
8
0
62
1
10
16.15
20
299.354
30
0
11
26
21
299.354
31
0
0
LINE
8
0
62
1
10
26
20
299.354
30
0
11
26.033
21
299.35
31
0
0
LINE
8
0
62
1
10
26.033
20
299.35
30
0
11
26.065
21
299.339
31
0
0
LINE
8
0
62
1
10
26.065
20
299.339
30
0
11
26.094
21
299.321
31
0
0
LINE
8
0
62
1
10
26.094
20
299.321
30
0
11
26.117
21
299.298
31
0
0
LINE
8
0
62
1
10
26.117
20
299.298
30
0
11
26.135
21
299.269
31
0
0
LINE
8
0
62
1
10
26.135
20
299.269
30
0
11
26.146
21
299.237
31
0
0
LINE
8
0
62
1
10
26.146
20
299.237
30
0
11
26.15
21
299.204
31
0
0
LINE
8
0
62
1
10
26.15
20
299.204
30
0
11
26.15
21
89.204
31
0
0
ARC
8
0
62
1
10
59.59
20
66.516
30
0
40
1.45
50
129.514376
51
-50.485624
0
ARC
8
0
62
1
10
59.59
20
66.516
30
0
40
1.45
50
-50.485624
51
129.514376
0
ARC
8
0
62
1
10
59.59
20
176.516
30
0
40
1.45
50
-100.971334
51
79.028666
0
ARC
8
0
62
1
10
59.59
20
176.516
30
0
40
1.45
50
79.028666
51
-100.971334
0
ARC
8
0
62
1
10
59.59
20
286.516
30
0
40
1.45
50
-50.485624
51
129.514376
0
ARC
8
0
62
1
10
59.59
20
286.516
30
0
40
1.45
50
129.514376
51
-50.485624
0
LINE
8
0
62
1
10
73.74
20
270.046
30
0
11
73.74
21
183.228
31
0
0
LINE
8
0
62
1
10
73.74
20
183.228
30
0
11
75.809
21
179.114
31
0
0
LINE
8
0
62
1
10
75.809
20
179.114
30
0
11
77.919
21
174.962
31
0
0
LINE
8
0
62
1
10
77.919
20
174.962
30
0
11
80.055
21
170.807
31
0
0
LINE
8
0
62
1
10
80.055
20
170.807
30
0
11
82.214
21
166.651
31
0
0
LINE
8
0
62
1
10
82.214
20
166.651
30
0
11
84.396
21
162.496
31
0
0
LINE
8
0
62
1
10
84.396
20
162.496
30
0
11
86.597
21
158.346
31
0
0
LINE
8
0
62
1
10
86.597
20
158.346
30
0
11
88.817
21
154.205
31
0
0
LINE
8
0
62
1
10
88.817
20
154.205
30
0
11
91.051
21
150.078
31
0
0
LINE
8
0
62
1
10
91.051
20
150.078
30
0
11
93.297
21
145.969
31
0
0
LINE
8
0
62
1
10
93.297
20
145.969
30
0
11
95.553
21
141.886
31
0
0
LINE
8
0
62
1
10
95.553
20
141.886
30
0
11
97.814
21
137.832
31
0
0
LINE
8
0
62
1
10
97.814
20
137.832
30
0
11
98.946
21
135.82
31
0
0
LINE
8
0
62
1
10
98.946
20
135.82
30
0
11
100.077
21
133.817
31
0
0
LINE
8
0
62
1
10
100.077
20
133.817
30
0
11
101.208
21
131.825
31
0
0
LINE
8
0
62
1
10
101.208
20
131.825
30
0
11
102.338
21
129.844
31
0
0
LINE
8
0
62
1
10
102.338
20
129.844
30
0
11
103.467
21
127.877
31
0
0
LINE
8
0
62
1
10
103.467
20
127.877
30
0
11
104.594
21
125.923
31
0
0
LINE
8
0
62
1
10
104.594
20
125.923
30
0
11
105.719
21
123.982
31
0
0
LINE
8
0
62
1
10
105.719
20
123.982
30
0
11
106.84
21
122.059
31
0
0
LINE
8
0
62
1
10
106.84
20
122.059
30
0
11
107.959
21
120.15
31
0
0
LINE
8
0
62
1
10
107.959
20
120.15
30
0
11
109.074
21
118.258
31
0
0
LINE
8
0
62
1
10
109.074
20
118.258
30
0
11
110.185
21
116.386
31
0
0
LINE
8
0
62
1
10
110.185
20
116.386
30
0
11
111.29
21
114.531
31
0
0
LINE
8
0
62
1
10
111.29
20
114.531
30
0
11
112.391
21
112.696
31
0
0
LINE
8
0
62
1
10
112.391
20
112.696
30
0
11
113.485
21
110.883
31
0
0
LINE
8
0
62
1
10
113.485
20
110.883
30
0
11
114.574
21
109.09
31
0
0
LINE
8
0
62
1
10
114.574
20
109.09
30
0
11
115.656
21
107.319
31
0
0
LINE
8
0
62
1
10
115.656
20
107.319
30
0
11
116.73
21
105.573
31
0
0
LINE
8
0
62
1
10
116.73
20
105.573
30
0
11
117.797
21
103.85
31
0
0
LINE
8
0
62
1
10
117.797
20
103.85
30
0
11
118.856
21
102.152
31
0
0
LINE
8
0
62
1
10
118.856
20
102.152
30
0
11
119.907
21
100.48
31
0
0
LINE
8
0
62
1
10
119.907
20
100.48
30
0
11
120.949
21
98.834
31
0
0
LINE
8
0
62
1
10
120.949
20
98.834
30
0
11
121.98
21
97.216
31
0
0
LINE
8
0
62
1
10
121.98
20
97.216
30
0
11
123.003
21
95.626
31
0
0
LINE
8
0
62
1
10
123.003
20
95.626
30
0
11
124.016
21
94.065
31
0
0
LINE
8
0
62
1
10
124.016
20
94.065
30
0
11
125.018
21
92.534
31
0
0
LINE
8
0
62
1
10
125.018
20
92.534
30
0
11
126.009
21
91.033
31
0
0
LINE
8
0
62
1
10
126.009
20
91.033
30
0
11
126.99
21
89.562
31
0
0
LINE
8
0
62
1
10
126.99
20
89.562
30
0
11
127.958
21
88.123
31
0
0
LINE
8
0
62
1
10
127.958
20
88.123
30
0
11
128.916
21
86.717
31
0
0
LINE
8
0
62
1
10
128.916
20
86.717
30
0
11
129.86
21
85.343
31
0
0
LINE
8
0
62
1
10
129.86
20
85.343
30
0
11
130.794
21
84.002
31
0
0
LINE
8
0
62
1
10
130.794
20
84.002
30
0
11
131.714
21
82.695
31
0
0
LINE
8
0
62
1
10
131.714
20
82.695
30
0
11
132.622
21
81.422
31
0
0
LINE
8
0
62
1
10
132.622
20
81.422
30
0
11
133.517
21
80.184
31
0
0
LINE
8
0
62
1
10
133.517
20
80.184
30
0
11
134.4
21
78.98
31
0
0
LINE
8
0
62
1
10
134.4
20
78.98
30
0
11
135.269
21
77.811
31
0
0
LINE
8
0
62
1
10
135.269
20
77.811
30
0
11
136.124
21
76.678
31
0
0
LINE
8
0
62
1
10
136.124
20
76.678
30
0
11
136.968
21
75.581
31
0
0
LINE
8
0
62
1
10
136.968
20
75.581
30
0
11
137.798
21
74.519
31
0
0
LINE
8
0
62
1
10
137.798
20
74.519
30
0
11
138.614
21
73.492
31
0
0
LINE
8
0
62
1
10
138.614
20
73.492
30
0
11
139.418
21
72.502
31
0
0
LINE
8
0
62
1
10
139.418
20
72.502
30
0
11
140.209
21
71.547
31
0
0
LINE
8
0
62
1
10
140.209
20
71.547
30
0
11
140.226
21
71.52
31
0
0
LINE
8
0
62
1
10
140.226
20
71.52
30
0
11
140.238
21
71.491
31
0
0
LINE
8
0
62
1
10
140.238
20
71.491
30
0
11
140.243
21
71.46
31
0
0
LINE
8
0
62
1
10
140.243
20
71.46
30
0
11
140.241
21
71.428
31
0
0
LINE
8
0
62
1
10
140.241
20
71.428
30
0
11
140.233
21
71.397
31
0
0
LINE
8
0
62
1
10
140.233
20
71.397
30
0
11
140.219
21
71.369
31
0
0
LINE
8
0
62
1
10
140.219
20
71.369
30
0
11
140.199
21
71.345
31
0
0
ARC
8
0
62
1
10
178.59
20
32.873
30
0
40
54.35
50
134.94008
51
-144.209007
0
LINE
8
0
62
1
10
134.504
20
1.088
30
0
11
134.52
21
1.06
31
0
0
LINE
8
0
62
1
10
134.52
20
1.06
30
0
11
134.529
21
1.029
31
0
0
LINE
8
0
62
1
10
134.529
20
1.029
30
0
11
134.532
21
0.997
31
0
0
LINE
8
0
62
1
10
134.532
20
0.997
30
0
11
134.528
21
0.965
31
0
0
LINE
8
0
62
1
10
134.528
20
0.965
30
0
11
134.517
21
0.935
31
0
0
LINE
8
0
62
1
10
134.517
20
0.935
30
0
11
134.5
21
0.908
31
0
0
LINE
8
0
62
1
10
134.5
20
0.908
30
0
11
134.478
21
0.884
31
0
0
LINE
8
0
62
1
10
134.478
20
0.884
30
0
11
134.451
21
0.867
31
0
0
LINE
8
0
62
1
10
134.451
20
0.867
30
0
11
134.421
21
0.855
31
0
0
LINE
8
0
62
1
10
134.421
20
0.855
30
0
11
134.389
21
0.85
31
0
0
LINE
8
0
62
1
10
134.389
20
0.85
30
0
11
134.357
21
0.852
31
0
0
LINE
8
0
62
1
10
134.357
20
0.852
30
0
11
134.326
21
0.861
31
0
0
LINE
8
0
62
1
10
134.326
20
0.861
30
0
11
53.534
21
33.394
31
0
0
LINE
8
0
62
1
10
53.534
20
33.394
30
0
11
53.508
21
33.408
31
0
0
LINE
8
0
62
1
10
53.508
20
33.408
30
0
11
53.485
21
33.427
31
0
0
LINE
8
0
62
1
10
53.485
20
33.427
30
0
11
53.466
21
33.449
31
0
0
LINE
8
0
62
1
10
53.466
20
33.449
30
0
11
53.452
21
33.475
31
0
0
LINE
8
0
62
1
10
53.452
20
33.475
30
0
11
53.443
21
33.504
31
0
0
LINE
8
0
62
1
10
53.443
20
33.504
30
0
11
53.44
21
33.533
31
0
0
LINE
8
0
62
1
10
53.44
20
33.533
30
0
11
53.44
21
303.192
31
0
0
LINE
8
0
62
1
10
53.44
20
303.192
30
0
11
53.444
21
303.225
31
0
0
LINE
8
0
62
1
10
53.444
20
303.225
30
0
11
53.455
21
303.257
31
0
0
LINE
8
0
62
1
10
53.455
20
303.257
30
0
11
53.473
21
303.286
31
0
0
LINE
8
0
62
1
10
53.473
20
303.286
30
0
11
53.496
21
303.309
31
0
0
LINE
8
0
62
1
10
53.496
20
303.309
30
0
11
53.525
21
303.327
31
0
0
LINE
8
0
62
1
10
53.525
20
303.327
30
0
11
53.557
21
303.338
31
0
0
LINE
8
0
62
1
10
53.557
20
303.338
30
0
11
53.59
21
303.342
31
0
0
LINE
8
0
62
1
10
53.59
20
303.342
30
0
11
73.59
21
303.342
31
0
0
LINE
8
0
62
1
10
73.59
20
303.342
30
0
11
73.623
21
303.338
31
0
0
LINE
8
0
62
1
10
73.623
20
303.338
30
0
11
73.655
21
303.327
31
0
0
LINE
8
0
62
1
10
73.655
20
303.327
30
0
11
73.684
21
303.309
31
0
0
LINE
8
0
62
1
10
73.684
20
303.309
30
0
11
73.707
21
303.286
31
0
0
LINE
8
0
62
1
10
73.707
20
303.286
30
0
11
73.725
21
303.257
31
0
0
LINE
8
0
62
1
10
73.725
20
303.257
30
0
11
73.736
21
303.225
31
0
0
LINE
8
0
62
1
10
73.736
20
303.225
30
0
11
73.74
21
303.192
31
0
0
LINE
8
0
62
1
10
73.74
20
303.192
30
0
11
73.74
21
270.046
31
0
0
ARC
8
0
62
1
10
131.635
20
200.282
30
0
40
3.85
50
104.881903
51
-75.118097
0
ARC
8
0
62
1
10
131.635
20
200.282
30
0
40
3.85
50
-75.118097
51
104.881903
0
ARC
8
0
62
1
10
140.251
20
243.126
30
0
40
9.489
50
-73.623994
51
25.402666
0
LINE
8
0
62
1
10
148.823
20
247.197
30
0
11
148.812
21
247.227
31
0
0
LINE
8
0
62
1
10
148.812
20
247.227
30
0
11
148.808
21
247.259
31
0
0
LINE
8
0
62
1
10
148.808
20
247.259
30
0
11
148.811
21
247.291
31
0
0
LINE
8
0
62
1
10
148.811
20
247.291
30
0
11
148.821
21
247.322
31
0
0
LINE
8
0
62
1
10
148.821
20
247.322
30
0
11
148.837
21
247.35
31
0
0
LINE
8
0
62
1
10
148.837
20
247.35
30
0
11
148.859
21
247.374
31
0
0
LINE
8
0
62
1
10
148.859
20
247.374
30
0
11
148.885
21
247.392
31
0
0
LINE
8
0
62
1
10
148.885
20
247.392
30
0
11
148.915
21
247.405
31
0
0
LINE
8
0
62
1
10
148.915
20
247.405
30
0
11
148.947
21
247.411
31
0
0
LINE
8
0
62
1
10
148.947
20
247.411
30
0
11
148.979
21
247.41
31
0
0
LINE
8
0
62
1
10
148.979
20
247.41
30
0
11
149.01
21
247.402
31
0
0
LINE
8
0
62
1
10
149.01
20
247.402
30
0
11
149.598
21
247.179
31
0
0
LINE
8
0
62
1
10
149.598
20
247.179
30
0
11
150.184
21
246.95
31
0
0
LINE
8
0
62
1
10
150.184
20
246.95
30
0
11
150.766
21
246.713
31
0
0
LINE
8
0
62
1
10
150.766
20
246.713
30
0
11
151.345
21
246.469
31
0
0
LINE
8
0
62
1
10
151.345
20
246.469
30
0
11
151.922
21
246.217
31
0
0
LINE
8
0
62
1
10
151.922
20
246.217
30
0
11
152.495
21
245.958
31
0
0
LINE
8
0
62
1
10
152.495
20
245.958
30
0
11
153.064
21
245.692
31
0
0
LINE
8
0
62
1
10
153.064
20
245.692
30
0
11
153.631
21
245.419
31
0
0
LINE
8
0
62
1
10
153.631
20
245.419
30
0
11
154.193
21
245.139
31
0
0
LINE
8
0
62
1
10
154.193
20
245.139
30
0
11
154.753
21
244.852
31
0
0
LINE
8
0
62
1
10
154.753
20
244.852
30
0
11
155.308
21
244.557
31
0
0
LINE
8
0
62
1
10
155.308
20
244.557
30
0
11
155.86
21
244.256
31
0
0
LINE
8
0
62
1
10
155.86
20
244.256
30
0
11
156.408
21
243.948
31
0
0
LINE
8
0
62
1
10
156.408
20
243.948
30
0
11
156.952
21
243.632
31
0
0
LINE
8
0
62
1
10
156.952
20
243.632
30
0
11
157.492
21
243.31
31
0
0
LINE
8
0
62
1
10
157.492
20
243.31
30
0
11
158.028
21
242.982
31
0
0
LINE
8
0
62
1
10
158.028
20
242.982
30
0
11
158.56
21
242.646
31
0
0
LINE
8
0
62
1
10
158.56
20
242.646
30
0
11
159.087
21
242.304
31
0
0
LINE
8
0
62
1
10
159.087
20
242.304
30
0
11
159.611
21
241.955
31
0
0
LINE
8
0
62
1
10
159.611
20
241.955
30
0
11
160.129
21
241.6
31
0
0
LINE
8
0
62
1
10
160.129
20
241.6
30
0
11
160.643
21
241.238
31
0
0
LINE
8
0
62
1
10
160.643
20
241.238
30
0
11
161.153
21
240.87
31
0
0
LINE
8
0
62
1
10
161.153
20
240.87
30
0
11
161.658
21
240.495
31
0
0
LINE
8
0
62
1
10
161.658
20
240.495
30
0
11
162.158
21
240.114
31
0
0
LINE
8
0
62
1
10
162.158
20
240.114
30
0
11
162.653
21
239.727
31
0
0
LINE
8
0
62
1
10
162.653
20
239.727
30
0
11
163.144
21
239.333
31
0
0
LINE
8
0
62
1
10
163.144
20
239.333
30
0
11
163.629
21
238.934
31
0
0
LINE
8
0
62
1
10
163.629
20
238.934
30
0
11
164.11
21
238.528
31
0
0
LINE
8
0
62
1
10
164.11
20
238.528
30
0
11
164.132
21
238.504
31
0
0
LINE
8
0
62
1
10
164.132
20
238.504
30
0
11
164.148
21
238.477
31
0
0
LINE
8
0
62
1
10
164.148
20
238.477
30
0
11
164.158
21
238.446
31
0
0
LINE
8
0
62
1
10
164.158
20
238.446
30
0
11
164.162
21
238.414
31
0
0
LINE
8
0
62
1
10
164.162
20
238.414
30
0
11
164.159
21
238.382
31
0
0
LINE
8
0
62
1
10
164.159
20
238.382
30
0
11
164.148
21
238.351
31
0
0
LINE
8
0
62
1
10
164.148
20
238.351
30
0
11
164.132
21
238.324
31
0
0
LINE
8
0
62
1
10
164.132
20
238.324
30
0
11
164.11
21
238.3
31
0
0
LINE
8
0
62
1
10
164.11
20
238.3
30
0
11
164.083
21
238.282
31
0
0
LINE
8
0
62
1
10
164.083
20
238.282
30
0
11
164.053
21
238.27
31
0
0
LINE
8
0
62
1
10
164.053
20
238.27
30
0
11
164.021
21
238.264
31
0
0
ARC
8
0
62
1
10
164.623
20
228.795
30
0
40
9.489
50
93.633549
51
-135.610474
0
LINE
8
0
62
1
10
157.842
20
222.157
30
0
11
157.857
21
222.139
31
0
0
ARC
8
0
62
1
10
165.571
20
227.664
30
0
40
9.489
50
-144.392423
51
-14.595659
0
LINE
8
0
62
1
10
174.754
20
225.273
30
0
11
174.765
21
225.303
31
0
0
LINE
8
0
62
1
10
174.765
20
225.303
30
0
11
174.783
21
225.33
31
0
0
LINE
8
0
62
1
10
174.783
20
225.33
30
0
11
174.806
21
225.353
31
0
0
LINE
8
0
62
1
10
174.806
20
225.353
30
0
11
174.833
21
225.37
31
0
0
LINE
8
0
62
1
10
174.833
20
225.37
30
0
11
174.863
21
225.381
31
0
0
LINE
8
0
62
1
10
174.863
20
225.381
30
0
11
174.895
21
225.385
31
0
0
LINE
8
0
62
1
10
174.895
20
225.385
30
0
11
174.928
21
225.382
31
0
0
LINE
8
0
62
1
10
174.928
20
225.382
30
0
11
174.958
21
225.373
31
0
0
LINE
8
0
62
1
10
174.958
20
225.373
30
0
11
174.986
21
225.357
31
0
0
LINE
8
0
62
1
10
174.986
20
225.357
30
0
11
175.01
21
225.335
31
0
0
LINE
8
0
62
1
10
175.01
20
225.335
30
0
11
175.029
21
225.309
31
0
0
LINE
8
0
62
1
10
175.029
20
225.309
30
0
11
175.337
21
224.761
31
0
0
LINE
8
0
62
1
10
175.337
20
224.761
30
0
11
175.638
21
224.209
31
0
0
LINE
8
0
62
1
10
175.638
20
224.209
30
0
11
175.932
21
223.653
31
0
0
LINE
8
0
62
1
10
175.932
20
223.653
30
0
11
176.219
21
223.093
31
0
0
LINE
8
0
62
1
10
176.219
20
223.093
30
0
11
176.498
21
222.53
31
0
0
LINE
8
0
62
1
10
176.498
20
222.53
30
0
11
176.771
21
221.964
31
0
0
LINE
8
0
62
1
10
176.771
20
221.964
30
0
11
177.036
21
221.394
31
0
0
LINE
8
0
62
1
10
177.036
20
221.394
30
0
11
177.295
21
220.821
31
0
0
LINE
8
0
62
1
10
177.295
20
220.821
30
0
11
177.546
21
220.244
31
0
0
LINE
8
0
62
1
10
177.546
20
220.244
30
0
11
177.79
21
219.664
31
0
0
LINE
8
0
62
1
10
177.79
20
219.664
30
0
11
178.026
21
219.082
31
0
0
LINE
8
0
62
1
10
178.026
20
219.082
30
0
11
178.255
21
218.496
31
0
0
LINE
8
0
62
1
10
178.255
20
218.496
30
0
11
178.477
21
217.908
31
0
0
LINE
8
0
62
1
10
178.477
20
217.908
30
0
11
178.691
21
217.317
31
0
0
LINE
8
0
62
1
10
178.691
20
217.317
30
0
11
178.898
21
216.723
31
0
0
LINE
8
0
62
1
10
178.898
20
216.723
30
0
11
179.097
21
216.127
31
0
0
LINE
8
0
62
1
10
179.097
20
216.127
30
0
11
179.289
21
215.528
31
0
0
LINE
8
0
62
1
10
179.289
20
215.528
30
0
11
179.473
21
214.927
31
0
0
LINE
8
0
62
1
10
179.473
20
214.927
30
0
11
179.649
21
214.323
31
0
0
LINE
8
0
62
1
10
179.649
20
214.323
30
0
11
179.818
21
213.717
31
0
0
LINE
8
0
62
1
10
179.818
20
213.717
30
0
11
179.98
21
213.11
31
0
0
LINE
8
0
62
1
10
179.98
20
213.11
30
0
11
180.133
21
212.5
31
0
0
LINE
8
0
62
1
10
180.133
20
212.5
30
0
11
180.279
21
211.888
31
0
0
LINE
8
0
62
1
10
180.279
20
211.888
30
0
11
180.418
21
211.275
31
0
0
LINE
8
0
62
1
10
180.418
20
211.275
30
0
11
180.548
21
210.66
31
0
0
LINE
8
0
62
1
10
180.548
20
210.66
30
0
11
180.671
21
210.043
31
0
0
LINE
8
0
62
1
10
180.671
20
210.043
30
0
11
180.786
21
209.425
31
0
0
LINE
8
0
62
1
10
180.786
20
209.425
30
0
11
180.893
21
208.806
31
0
0
LINE
8
0
62
1
10
180.893
20
208.806
30
0
11
180.895
21
208.773
31
0
0
LINE
8
0
62
1
10
180.895
20
208.773
30
0
11
180.89
21
208.742
31
0
0
LINE
8
0
62
1
10
180.89
20
208.742
30
0
11
180.878
21
208.712
31
0
0
LINE
8
0
62
1
10
180.878
20
208.712
30
0
11
180.86
21
208.685
31
0
0
LINE
8
0
62
1
10
180.86
20
208.685
30
0
11
180.837
21
208.662
31
0
0
LINE
8
0
62
1
10
180.837
20
208.662
30
0
11
180.809
21
208.645
31
0
0
LINE
8
0
62
1
10
180.809
20
208.645
30
0
11
180.779
21
208.635
31
0
0
LINE
8
0
62
1
10
180.779
20
208.635
30
0
11
180.747
21
208.631
31
0
0
LINE
8
0
62
1
10
180.747
20
208.631
30
0
11
180.715
21
208.634
31
0
0
LINE
8
0
62
1
10
180.715
20
208.634
30
0
11
180.684
21
208.644
31
0
0
LINE
8
0
62
1
10
180.684
20
208.644
30
0
11
180.656
21
208.66
31
0
0
ARC
8
0
62
1
10
175.03
20
201.019
30
0
40
9.489
50
53.637589
51
-175.61352
0
LINE
8
0
62
1
10
165.57
20
200.293
30
0
11
165.57
21
200.271
31
0
0
ARC
8
0
62
1
10
175.03
20
199.544
30
0
40
9.489
50
175.607386
51
-54.599666
0
LINE
8
0
62
1
10
180.527
20
191.809
30
0
11
180.555
21
191.825
31
0
0
LINE
8
0
62
1
10
180.555
20
191.825
30
0
11
180.586
21
191.834
31
0
0
LINE
8
0
62
1
10
180.586
20
191.834
30
0
11
180.618
21
191.837
31
0
0
LINE
8
0
62
1
10
180.618
20
191.837
30
0
11
180.65
21
191.833
31
0
0
LINE
8
0
62
1
10
180.65
20
191.833
30
0
11
180.68
21
191.821
31
0
0
LINE
8
0
62
1
10
180.68
20
191.821
30
0
11
180.708
21
191.804
31
0
0
LINE
8
0
62
1
10
180.708
20
191.804
30
0
11
180.731
21
191.781
31
0
0
LINE
8
0
62
1
10
180.731
20
191.781
30
0
11
180.748
21
191.754
31
0
0
LINE
8
0
62
1
10
180.748
20
191.754
30
0
11
180.759
21
191.724
31
0
0
LINE
8
0
62
1
10
180.759
20
191.724
30
0
11
180.764
21
191.692
31
0
0
LINE
8
0
62
1
10
180.764
20
191.692
30
0
11
180.762
21
191.66
31
0
0
LINE
8
0
62
1
10
180.762
20
191.66
30
0
11
180.645
21
191.042
31
0
0
LINE
8
0
62
1
10
180.645
20
191.042
30
0
11
180.52
21
190.426
31
0
0
LINE
8
0
62
1
10
180.52
20
190.426
30
0
11
180.388
21
189.811
31
0
0
LINE
8
0
62
1
10
180.388
20
189.811
30
0
11
180.248
21
189.198
31
0
0
LINE
8
0
62
1
10
180.248
20
189.198
30
0
11
180.101
21
188.587
31
0
0
LINE
8
0
62
1
10
180.101
20
188.587
30
0
11
179.945
21
187.978
31
0
0
LINE
8
0
62
1
10
179.945
20
187.978
30
0
11
179.782
21
187.371
31
0
0
LINE
8
0
62
1
10
179.782
20
187.371
30
0
11
179.612
21
186.765
31
0
0
LINE
8
0
62
1
10
179.612
20
186.765
30
0
11
179.433
21
186.162
31
0
0
LINE
8
0
62
1
10
179.433
20
186.162
30
0
11
179.248
21
185.562
31
0
0
LINE
8
0
62
1
10
179.248
20
185.562
30
0
11
179.054
21
184.964
31
0
0
LINE
8
0
62
1
10
179.054
20
184.964
30
0
11
178.853
21
184.368
31
0
0
LINE
8
0
62
1
10
178.853
20
184.368
30
0
11
178.645
21
183.775
31
0
0
LINE
8
0
62
1
10
178.645
20
183.775
30
0
11
178.429
21
183.184
31
0
0
LINE
8
0
62
1
10
178.429
20
183.184
30
0
11
178.206
21
182.596
31
0
0
LINE
8
0
62
1
10
178.206
20
182.596
30
0
11
177.975
21
182.011
31
0
0
LINE
8
0
62
1
10
177.975
20
182.011
30
0
11
177.737
21
181.429
31
0
0
LINE
8
0
62
1
10
177.737
20
181.429
30
0
11
177.492
21
180.85
31
0
0
LINE
8
0
62
1
10
177.492
20
180.85
30
0
11
177.239
21
180.275
31
0
0
LINE
8
0
62
1
10
177.239
20
180.275
30
0
11
176.979
21
179.702
31
0
0
LINE
8
0
62
1
10
176.979
20
179.702
30
0
11
176.712
21
179.133
31
0
0
LINE
8
0
62
1
10
176.712
20
179.133
30
0
11
176.438
21
178.567
31
0
0
LINE
8
0
62
1
10
176.438
20
178.567
30
0
11
176.157
21
178.005
31
0
0
LINE
8
0
62
1
10
176.157
20
178.005
30
0
11
175.868
21
177.446
31
0
0
LINE
8
0
62
1
10
175.868
20
177.446
30
0
11
175.573
21
176.891
31
0
0
LINE
8
0
62
1
10
175.573
20
176.891
30
0
11
175.271
21
176.34
31
0
0
LINE
8
0
62
1
10
175.271
20
176.34
30
0
11
174.961
21
175.792
31
0
0
LINE
8
0
62
1
10
174.961
20
175.792
30
0
11
174.645
21
175.249
31
0
0
LINE
8
0
62
1
10
174.645
20
175.249
30
0
11
174.626
21
175.223
31
0
0
LINE
8
0
62
1
10
174.626
20
175.223
30
0
11
174.602
21
175.202
31
0
0
LINE
8
0
62
1
10
174.602
20
175.202
30
0
11
174.573
21
175.186
31
0
0
LINE
8
0
62
1
10
174.573
20
175.186
30
0
11
174.542
21
175.177
31
0
0
LINE
8
0
62
1
10
174.542
20
175.177
30
0
11
174.51
21
175.175
31
0
0
LINE
8
0
62
1
10
174.51
20
175.175
30
0
11
174.478
21
175.18
31
0
0
LINE
8
0
62
1
10
174.478
20
175.18
30
0
11
174.448
21
175.191
31
0
0
LINE
8
0
62
1
10
174.448
20
175.191
30
0
11
174.421
21
175.209
31
0
0
LINE
8
0
62
1
10
174.421
20
175.209
30
0
11
174.398
21
175.232
31
0
0
LINE
8
0
62
1
10
174.398
20
175.232
30
0
11
174.381
21
175.259
31
0
0
LINE
8
0
62
1
10
174.381
20
175.259
30
0
11
174.37
21
175.29
31
0
0
ARC
8
0
62
1
10
165.149
20
173.053
30
0
40
9.489
50
13.633271
51
144.393164
0
LINE
8
0
62
1
10
157.434
20
178.578
30
0
11
157.419
21
178.56
31
0
0
ARC
8
0
62
1
10
164.2
20
171.923
30
0
40
9.489
50
135.610939
51
-94.598786
0
LINE
8
0
62
1
10
163.439
20
162.465
30
0
11
163.471
21
162.458
31
0
0
LINE
8
0
62
1
10
163.471
20
162.458
30
0
11
163.5
21
162.446
31
0
0
LINE
8
0
62
1
10
163.5
20
162.446
30
0
11
163.527
21
162.427
31
0
0
LINE
8
0
62
1
10
163.527
20
162.427
30
0
11
163.548
21
162.403
31
0
0
LINE
8
0
62
1
10
163.548
20
162.403
30
0
11
163.564
21
162.375
31
0
0
LINE
8
0
62
1
10
163.564
20
162.375
30
0
11
163.574
21
162.345
31
0
0
LINE
8
0
62
1
10
163.574
20
162.345
30
0
11
163.577
21
162.312
31
0
0
LINE
8
0
62
1
10
163.577
20
162.312
30
0
11
163.573
21
162.28
31
0
0
LINE
8
0
62
1
10
163.573
20
162.28
30
0
11
163.562
21
162.25
31
0
0
LINE
8
0
62
1
10
163.562
20
162.25
30
0
11
163.545
21
162.223
31
0
0
LINE
8
0
62
1
10
163.545
20
162.223
30
0
11
163.523
21
162.2
31
0
0
LINE
8
0
62
1
10
163.523
20
162.2
30
0
11
163.036
21
161.801
31
0
0
LINE
8
0
62
1
10
163.036
20
161.801
30
0
11
162.545
21
161.409
31
0
0
LINE
8
0
62
1
10
162.545
20
161.409
30
0
11
162.048
21
161.023
31
0
0
LINE
8
0
62
1
10
162.048
20
161.023
30
0
11
161.547
21
160.644
31
0
0
LINE
8
0
62
1
10
161.547
20
160.644
30
0
11
161.041
21
160.27
31
0
0
LINE
8
0
62
1
10
161.041
20
160.27
30
0
11
160.531
21
159.904
31
0
0
LINE
8
0
62
1
10
160.531
20
159.904
30
0
11
160.015
21
159.543
31
0
0
LINE
8
0
62
1
10
160.015
20
159.543
30
0
11
159.496
21
159.189
31
0
0
LINE
8
0
62
1
10
159.496
20
159.189
30
0
11
158.972
21
158.842
31
0
0
LINE
8
0
62
1
10
158.972
20
158.842
30
0
11
158.443
21
158.501
31
0
0
LINE
8
0
62
1
10
158.443
20
158.501
30
0
11
157.911
21
158.167
31
0
0
LINE
8
0
62
1
10
157.911
20
158.167
30
0
11
157.374
21
157.84
31
0
0
LINE
8
0
62
1
10
157.374
20
157.84
30
0
11
156.833
21
157.52
31
0
0
LINE
8
0
62
1
10
156.833
20
157.52
30
0
11
156.288
21
157.206
31
0
0
LINE
8
0
62
1
10
156.288
20
157.206
30
0
11
155.739
21
156.899
31
0
0
LINE
8
0
62
1
10
155.739
20
156.899
30
0
11
155.186
21
156.599
31
0
0
LINE
8
0
62
1
10
155.186
20
156.599
30
0
11
154.63
21
156.307
31
0
0
LINE
8
0
62
1
10
154.63
20
156.307
30
0
11
154.07
21
156.021
31
0
0
LINE
8
0
62
1
10
154.07
20
156.021
30
0
11
153.506
21
155.742
31
0
0
LINE
8
0
62
1
10
153.506
20
155.742
30
0
11
152.939
21
155.471
31
0
0
LINE
8
0
62
1
10
152.939
20
155.471
30
0
11
152.369
21
155.206
31
0
0
LINE
8
0
62
1
10
152.369
20
155.206
30
0
11
151.795
21
154.949
31
0
0
LINE
8
0
62
1
10
151.795
20
154.949
30
0
11
151.218
21
154.699
31
0
0
LINE
8
0
62
1
10
151.218
20
154.699
30
0
11
150.638
21
154.457
31
0
0
LINE
8
0
62
1
10
150.638
20
154.457
30
0
11
150.055
21
154.221
31
0
0
LINE
8
0
62
1
10
150.055
20
154.221
30
0
11
149.469
21
153.993
31
0
0
LINE
8
0
62
1
10
149.469
20
153.993
30
0
11
148.88
21
153.773
31
0
0
LINE
8
0
62
1
10
148.88
20
153.773
30
0
11
148.289
21
153.56
31
0
0
LINE
8
0
62
1
10
148.289
20
153.56
30
0
11
148.258
21
153.552
31
0
0
LINE
8
0
62
1
10
148.258
20
153.552
30
0
11
148.225
21
153.552
31
0
0
LINE
8
0
62
1
10
148.225
20
153.552
30
0
11
148.194
21
153.558
31
0
0
LINE
8
0
62
1
10
148.194
20
153.558
30
0
11
148.164
21
153.571
31
0
0
LINE
8
0
62
1
10
148.164
20
153.571
30
0
11
148.138
21
153.59
31
0
0
LINE
8
0
62
1
10
148.138
20
153.59
30
0
11
148.117
21
153.614
31
0
0
LINE
8
0
62
1
10
148.117
20
153.614
30
0
11
148.101
21
153.642
31
0
0
LINE
8
0
62
1
10
148.101
20
153.642
30
0
11
148.092
21
153.673
31
0
0
LINE
8
0
62
1
10
148.092
20
153.673
30
0
11
148.089
21
153.705
31
0
0
LINE
8
0
62
1
10
148.089
20
153.705
30
0
11
148.093
21
153.737
31
0
0
LINE
8
0
62
1
10
148.093
20
153.737
30
0
11
148.105
21
153.768
31
0
0
ARC
8
0
62
1
10
139.602
20
157.981
30
0
40
9.489
50
-26.359028
51
104.389363
0
LINE
8
0
62
1
10
137.244
20
167.172
30
0
11
137.222
21
167.168
31
0
0
ARC
8
0
62
1
10
138.149
20
157.725
30
0
40
9.488
50
95.6079
51
-134.601589
0
LINE
8
0
62
1
10
131.486
20
150.969
30
0
11
131.507
21
150.944
31
0
0
LINE
8
0
62
1
10
131.507
20
150.944
30
0
11
131.521
21
150.915
31
0
0
LINE
8
0
62
1
10
131.521
20
150.915
30
0
11
131.529
21
150.884
31
0
0
LINE
8
0
62
1
10
131.529
20
150.884
30
0
11
131.531
21
150.852
31
0
0
LINE
8
0
62
1
10
131.531
20
150.852
30
0
11
131.525
21
150.82
31
0
0
LINE
8
0
62
1
10
131.525
20
150.82
30
0
11
131.513
21
150.79
31
0
0
LINE
8
0
62
1
10
131.513
20
150.79
30
0
11
131.494
21
150.764
31
0
0
LINE
8
0
62
1
10
131.494
20
150.764
30
0
11
131.471
21
150.742
31
0
0
LINE
8
0
62
1
10
131.471
20
150.742
30
0
11
131.443
21
150.725
31
0
0
LINE
8
0
62
1
10
131.443
20
150.725
30
0
11
131.412
21
150.715
31
0
0
LINE
8
0
62
1
10
131.412
20
150.715
30
0
11
131.38
21
150.712
31
0
0
LINE
8
0
62
1
10
131.38
20
150.712
30
0
11
130.751
21
150.72
31
0
0
LINE
8
0
62
1
10
130.751
20
150.72
30
0
11
130.123
21
150.735
31
0
0
LINE
8
0
62
1
10
130.123
20
150.735
30
0
11
129.495
21
150.759
31
0
0
LINE
8
0
62
1
10
129.495
20
150.759
30
0
11
128.867
21
150.79
31
0
0
LINE
8
0
62
1
10
128.867
20
150.79
30
0
11
128.239
21
150.829
31
0
0
LINE
8
0
62
1
10
128.239
20
150.829
30
0
11
127.612
21
150.876
31
0
0
LINE
8
0
62
1
10
127.612
20
150.876
30
0
11
126.986
21
150.932
31
0
0
LINE
8
0
62
1
10
126.986
20
150.932
30
0
11
126.36
21
150.994
31
0
0
LINE
8
0
62
1
10
126.36
20
150.994
30
0
11
125.735
21
151.065
31
0
0
LINE
8
0
62
1
10
125.735
20
151.065
30
0
11
125.112
21
151.144
31
0
0
LINE
8
0
62
1
10
125.112
20
151.144
30
0
11
124.489
21
151.231
31
0
0
LINE
8
0
62
1
10
124.489
20
151.231
30
0
11
123.867
21
151.325
31
0
0
LINE
8
0
62
1
10
123.867
20
151.325
30
0
11
123.247
21
151.427
31
0
0
LINE
8
0
62
1
10
123.247
20
151.427
30
0
11
122.628
21
151.537
31
0
0
LINE
8
0
62
1
10
122.628
20
151.537
30
0
11
122.01
21
151.655
31
0
0
LINE
8
0
62
1
10
122.01
20
151.655
30
0
11
121.394
21
151.781
31
0
0
LINE
8
0
62
1
10
121.394
20
151.781
30
0
11
120.78
21
151.914
31
0
0
LINE
8
0
62
1
10
120.78
20
151.914
30
0
11
120.167
21
152.055
31
0
0
LINE
8
0
62
1
10
120.167
20
152.055
30
0
11
119.556
21
152.204
31
0
0
LINE
8
0
62
1
10
119.556
20
152.204
30
0
11
118.947
21
152.36
31
0
0
LINE
8
0
62
1
10
118.947
20
152.36
30
0
11
118.34
21
152.524
31
0
0
LINE
8
0
62
1
10
118.34
20
152.524
30
0
11
117.736
21
152.696
31
0
0
LINE
8
0
62
1
10
117.736
20
152.696
30
0
11
117.133
21
152.876
31
0
0
LINE
8
0
62
1
10
117.133
20
152.876
30
0
11
116.533
21
153.063
31
0
0
LINE
8
0
62
1
10
116.533
20
153.063
30
0
11
115.935
21
153.257
31
0
0
LINE
8
0
62
1
10
115.935
20
153.257
30
0
11
115.339
21
153.459
31
0
0
LINE
8
0
62
1
10
115.339
20
153.459
30
0
11
114.746
21
153.669
31
0
0
LINE
8
0
62
1
10
114.746
20
153.669
30
0
11
114.156
21
153.886
31
0
0
LINE
8
0
62
1
10
114.156
20
153.886
30
0
11
114.128
21
153.9
31
0
0
LINE
8
0
62
1
10
114.128
20
153.9
30
0
11
114.102
21
153.92
31
0
0
LINE
8
0
62
1
10
114.102
20
153.92
30
0
11
114.082
21
153.946
31
0
0
LINE
8
0
62
1
10
114.082
20
153.946
30
0
11
114.068
21
153.975
31
0
0
LINE
8
0
62
1
10
114.068
20
153.975
30
0
11
114.06
21
154.006
31
0
0
LINE
8
0
62
1
10
114.06
20
154.006
30
0
11
114.059
21
154.038
31
0
0
LINE
8
0
62
1
10
114.059
20
154.038
30
0
11
114.066
21
154.07
31
0
0
LINE
8
0
62
1
10
114.066
20
154.07
30
0
11
114.078
21
154.099
31
0
0
LINE
8
0
62
1
10
114.078
20
154.099
30
0
11
114.097
21
154.126
31
0
0
LINE
8
0
62
1
10
114.097
20
154.126
30
0
11
114.121
21
154.147
31
0
0
LINE
8
0
62
1
10
114.121
20
154.147
30
0
11
114.149
21
154.163
31
0
0
ARC
8
0
62
1
10
110.345
20
162.856
30
0
40
9.489
50
-66.366349
51
64.391496
0
LINE
8
0
62
1
10
114.446
20
171.413
30
0
11
114.426
21
171.424
31
0
0
ARC
8
0
62
1
10
109.067
20
163.594
30
0
40
9.489
50
55.610326
51
-174.601327
0
LINE
8
0
62
1
10
99.62
20
162.701
30
0
11
99.62
21
162.669
31
0
0
LINE
8
0
62
1
10
99.62
20
162.669
30
0
11
99.612
21
162.637
31
0
0
LINE
8
0
62
1
10
99.612
20
162.637
30
0
11
99.598
21
162.608
31
0
0
LINE
8
0
62
1
10
99.598
20
162.608
30
0
11
99.579
21
162.583
31
0
0
LINE
8
0
62
1
10
99.579
20
162.583
30
0
11
99.554
21
162.562
31
0
0
LINE
8
0
62
1
10
99.554
20
162.562
30
0
11
99.525
21
162.547
31
0
0
LINE
8
0
62
1
10
99.525
20
162.547
30
0
11
99.494
21
162.539
31
0
0
LINE
8
0
62
1
10
99.494
20
162.539
30
0
11
99.462
21
162.537
31
0
0
LINE
8
0
62
1
10
99.462
20
162.537
30
0
11
99.43
21
162.543
31
0
0
LINE
8
0
62
1
10
99.43
20
162.543
30
0
11
99.4
21
162.555
31
0
0
LINE
8
0
62
1
10
99.4
20
162.555
30
0
11
99.374
21
162.573
31
0
0
LINE
8
0
62
1
10
99.374
20
162.573
30
0
11
98.897
21
162.983
31
0
0
LINE
8
0
62
1
10
98.897
20
162.983
30
0
11
98.425
21
163.399
31
0
0
LINE
8
0
62
1
10
98.425
20
163.399
30
0
11
97.959
21
163.82
31
0
0
LINE
8
0
62
1
10
97.959
20
163.82
30
0
11
97.498
21
164.248
31
0
0
LINE
8
0
62
1
10
97.498
20
164.248
30
0
11
97.043
21
164.682
31
0
0
LINE
8
0
62
1
10
97.043
20
164.682
30
0
11
96.593
21
165.121
31
0
0
LINE
8
0
62
1
10
96.593
20
165.121
30
0
11
96.149
21
165.565
31
0
0
LINE
8
0
62
1
10
96.149
20
165.565
30
0
11
95.71
21
166.016
31
0
0
LINE
8
0
62
1
10
95.71
20
166.016
30
0
11
95.277
21
166.472
31
0
0
LINE
8
0
62
1
10
95.277
20
166.472
30
0
11
94.849
21
166.933
31
0
0
LINE
8
0
62
1
10
94.849
20
166.933
30
0
11
94.428
21
167.4
31
0
0
LINE
8
0
62
1
10
94.428
20
167.4
30
0
11
94.013
21
167.871
31
0
0
LINE
8
0
62
1
10
94.013
20
167.871
30
0
11
93.603
21
168.349
31
0
0
LINE
8
0
62
1
10
93.603
20
168.349
30
0
11
93.2
21
168.831
31
0
0
LINE
8
0
62
1
10
93.2
20
168.831
30
0
11
92.802
21
169.318
31
0
0
LINE
8
0
62
1
10
92.802
20
169.318
30
0
11
92.411
21
169.81
31
0
0
LINE
8
0
62
1
10
92.411
20
169.81
30
0
11
92.026
21
170.307
31
0
0
LINE
8
0
62
1
10
92.026
20
170.307
30
0
11
91.647
21
170.809
31
0
0
LINE
8
0
62
1
10
91.647
20
170.809
30
0
11
91.275
21
171.316
31
0
0
LINE
8
0
62
1
10
91.275
20
171.316
30
0
11
90.909
21
171.827
31
0
0
LINE
8
0
62
1
10
90.909
20
171.827
30
0
11
90.55
21
172.343
31
0
0
LINE
8
0
62
1
10
90.55
20
172.343
30
0
11
90.197
21
172.863
31
0
0
LINE
8
0
62
1
10
90.197
20
172.863
30
0
11
89.851
21
173.388
31
0
0
LINE
8
0
62
1
10
89.851
20
173.388
30
0
11
89.511
21
173.917
31
0
0
LINE
8
0
62
1
10
89.511
20
173.917
30
0
11
89.178
21
174.451
31
0
0
LINE
8
0
62
1
10
89.178
20
174.451
30
0
11
88.852
21
174.988
31
0
0
LINE
8
0
62
1
10
88.852
20
174.988
30
0
11
88.532
21
175.53
31
0
0
LINE
8
0
62
1
10
88.532
20
175.53
30
0
11
88.22
21
176.075
31
0
0
LINE
8
0
62
1
10
88.22
20
176.075
30
0
11
88.207
21
176.105
31
0
0
LINE
8
0
62
1
10
88.207
20
176.105
30
0
11
88.201
21
176.137
31
0
0
LINE
8
0
62
1
10
88.201
20
176.137
30
0
11
88.202
21
176.169
31
0
0
LINE
8
0
62
1
10
88.202
20
176.169
30
0
11
88.209
21
176.2
31
0
0
LINE
8
0
62
1
10
88.209
20
176.2
30
0
11
88.223
21
176.229
31
0
0
LINE
8
0
62
1
10
88.223
20
176.229
30
0
11
88.243
21
176.254
31
0
0
LINE
8
0
62
1
10
88.243
20
176.254
30
0
11
88.268
21
176.275
31
0
0
LINE
8
0
62
1
10
88.268
20
176.275
30
0
11
88.297
21
176.289
31
0
0
LINE
8
0
62
1
10
88.297
20
176.289
30
0
11
88.328
21
176.297
31
0
0
LINE
8
0
62
1
10
88.328
20
176.297
30
0
11
88.361
21
176.299
31
0
0
LINE
8
0
62
1
10
88.361
20
176.299
30
0
11
88.392
21
176.293
31
0
0
ARC
8
0
62
1
10
91.066
20
185.397
30
0
40
9.489
50
-106.364863
51
24.387706
0
LINE
8
0
62
1
10
99.708
20
189.315
30
0
11
99.7
21
189.337
31
0
0
ARC
8
0
62
1
10
90.561
20
186.784
30
0
40
9.489
50
15.605933
51
145.401923
0
LINE
8
0
62
1
10
82.75
20
192.172
30
0
11
82.729
21
192.147
31
0
0
LINE
8
0
62
1
10
82.729
20
192.147
30
0
11
82.704
21
192.128
31
0
0
LINE
8
0
62
1
10
82.704
20
192.128
30
0
11
82.674
21
192.115
31
0
0
LINE
8
0
62
1
10
82.674
20
192.115
30
0
11
82.643
21
192.108
31
0
0
LINE
8
0
62
1
10
82.643
20
192.108
30
0
11
82.611
21
192.108
31
0
0
LINE
8
0
62
1
10
82.611
20
192.108
30
0
11
82.579
21
192.115
31
0
0
LINE
8
0
62
1
10
82.579
20
192.115
30
0
11
82.55
21
192.128
31
0
0
LINE
8
0
62
1
10
82.55
20
192.128
30
0
11
82.524
21
192.148
31
0
0
LINE
8
0
62
1
10
82.524
20
192.148
30
0
11
82.503
21
192.172
31
0
0
LINE
8
0
62
1
10
82.503
20
192.172
30
0
11
82.488
21
192.201
31
0
0
LINE
8
0
62
1
10
82.488
20
192.201
30
0
11
82.479
21
192.232
31
0
0
LINE
8
0
62
1
10
82.479
20
192.232
30
0
11
82.377
21
192.852
31
0
0
LINE
8
0
62
1
10
82.377
20
192.852
30
0
11
82.284
21
193.474
31
0
0
LINE
8
0
62
1
10
82.284
20
193.474
30
0
11
82.198
21
194.097
31
0
0
LINE
8
0
62
1
10
82.198
20
194.097
30
0
11
82.119
21
194.721
31
0
0
LINE
8
0
62
1
10
82.119
20
194.721
30
0
11
82.049
21
195.346
31
0
0
LINE
8
0
62
1
10
82.049
20
195.346
30
0
11
81.987
21
195.971
31
0
0
LINE
8
0
62
1
10
81.987
20
195.971
30
0
11
81.932
21
196.598
31
0
0
LINE
8
0
62
1
10
81.932
20
196.598
30
0
11
81.886
21
197.225
31
0
0
LINE
8
0
62
1
10
81.886
20
197.225
30
0
11
81.847
21
197.852
31
0
0
LINE
8
0
62
1
10
81.847
20
197.852
30
0
11
81.816
21
198.48
31
0
0
LINE
8
0
62
1
10
81.816
20
198.48
30
0
11
81.793
21
199.109
31
0
0
LINE
8
0
62
1
10
81.793
20
199.109
30
0
11
81.778
21
199.737
31
0
0
LINE
8
0
62
1
10
81.778
20
199.737
30
0
11
81.771
21
200.366
31
0
0
LINE
8
0
62
1
10
81.771
20
200.366
30
0
11
81.772
21
200.995
31
0
0
LINE
8
0
62
1
10
81.772
20
200.995
30
0
11
81.781
21
201.623
31
0
0
LINE
8
0
62
1
10
81.781
20
201.623
30
0
11
81.798
21
202.252
31
0
0
LINE
8
0
62
1
10
81.798
20
202.252
30
0
11
81.822
21
202.88
31
0
0
LINE
8
0
62
1
10
81.822
20
202.88
30
0
11
81.855
21
203.508
31
0
0
LINE
8
0
62
1
10
81.855
20
203.508
30
0
11
81.895
21
204.135
31
0
0
LINE
8
0
62
1
10
81.895
20
204.135
30
0
11
81.944
21
204.762
31
0
0
LINE
8
0
62
1
10
81.944
20
204.762
30
0
11
82
21
205.389
31
0
0
LINE
8
0
62
1
10
82
20
205.389
30
0
11
82.064
21
206.014
31
0
0
LINE
8
0
62
1
10
82.064
20
206.014
30
0
11
82.136
21
206.639
31
0
0
LINE
8
0
62
1
10
82.136
20
206.639
30
0
11
82.216
21
207.262
31
0
0
LINE
8
0
62
1
10
82.216
20
207.262
30
0
11
82.304
21
207.885
31
0
0
LINE
8
0
62
1
10
82.304
20
207.885
30
0
11
82.399
21
208.506
31
0
0
LINE
8
0
62
1
10
82.399
20
208.506
30
0
11
82.503
21
209.127
31
0
0
LINE
8
0
62
1
10
82.503
20
209.127
30
0
11
82.614
21
209.745
31
0
0
LINE
8
0
62
1
10
82.614
20
209.745
30
0
11
82.623
21
209.776
31
0
0
LINE
8
0
62
1
10
82.623
20
209.776
30
0
11
82.639
21
209.805
31
0
0
LINE
8
0
62
1
10
82.639
20
209.805
30
0
11
82.66
21
209.829
31
0
0
LINE
8
0
62
1
10
82.66
20
209.829
30
0
11
82.686
21
209.848
31
0
0
LINE
8
0
62
1
10
82.686
20
209.848
30
0
11
82.716
21
209.861
31
0
0
LINE
8
0
62
1
10
82.716
20
209.861
30
0
11
82.747
21
209.867
31
0
0
LINE
8
0
62
1
10
82.747
20
209.867
30
0
11
82.779
21
209.867
31
0
0
LINE
8
0
62
1
10
82.779
20
209.867
30
0
11
82.811
21
209.86
31
0
0
LINE
8
0
62
1
10
82.811
20
209.86
30
0
11
82.84
21
209.846
31
0
0
LINE
8
0
62
1
10
82.84
20
209.846
30
0
11
82.865
21
209.826
31
0
0
LINE
8
0
62
1
10
82.865
20
209.826
30
0
11
82.886
21
209.801
31
0
0
ARC
8
0
62
1
10
90.787
20
215.057
30
0
40
9.489
50
-146.365307
51
-15.611705
0
LINE
8
0
62
1
10
99.926
20
212.503
30
0
11
99.933
21
212.525
31
0
0
ARC
8
0
62
1
10
91.291
20
216.443
30
0
40
9.489
50
-24.387453
51
105.399331
0
LINE
8
0
62
1
10
88.771
20
225.591
30
0
11
88.739
21
225.586
31
0
0
LINE
8
0
62
1
10
88.739
20
225.586
30
0
11
88.707
21
225.588
31
0
0
LINE
8
0
62
1
10
88.707
20
225.588
30
0
11
88.676
21
225.597
31
0
0
LINE
8
0
62
1
10
88.676
20
225.597
30
0
11
88.648
21
225.612
31
0
0
LINE
8
0
62
1
10
88.648
20
225.612
30
0
11
88.623
21
225.632
31
0
0
LINE
8
0
62
1
10
88.623
20
225.632
30
0
11
88.603
21
225.658
31
0
0
LINE
8
0
62
1
10
88.603
20
225.658
30
0
11
88.59
21
225.687
31
0
0
LINE
8
0
62
1
10
88.59
20
225.687
30
0
11
88.582
21
225.719
31
0
0
LINE
8
0
62
1
10
88.582
20
225.719
30
0
11
88.582
21
225.751
31
0
0
LINE
8
0
62
1
10
88.582
20
225.751
30
0
11
88.589
21
225.782
31
0
0
LINE
8
0
62
1
10
88.589
20
225.782
30
0
11
88.602
21
225.812
31
0
0
LINE
8
0
62
1
10
88.602
20
225.812
30
0
11
88.923
21
226.352
31
0
0
LINE
8
0
62
1
10
88.923
20
226.352
30
0
11
89.251
21
226.889
31
0
0
LINE
8
0
62
1
10
89.251
20
226.889
30
0
11
89.585
21
227.421
31
0
0
LINE
8
0
62
1
10
89.585
20
227.421
30
0
11
89.926
21
227.949
31
0
0
LINE
8
0
62
1
10
89.926
20
227.949
30
0
11
90.274
21
228.473
31
0
0
LINE
8
0
62
1
10
90.274
20
228.473
30
0
11
90.628
21
228.993
31
0
0
LINE
8
0
62
1
10
90.628
20
228.993
30
0
11
90.989
21
229.508
31
0
0
LINE
8
0
62
1
10
90.989
20
229.508
30
0
11
91.357
21
230.018
31
0
0
LINE
8
0
62
1
10
91.357
20
230.018
30
0
11
91.73
21
230.523
31
0
0
LINE
8
0
62
1
10
91.73
20
230.523
30
0
11
92.11
21
231.024
31
0
0
LINE
8
0
62
1
10
92.11
20
231.024
30
0
11
92.497
21
231.52
31
0
0
LINE
8
0
62
1
10
92.497
20
231.52
30
0
11
92.889
21
232.011
31
0
0
LINE
8
0
62
1
10
92.889
20
232.011
30
0
11
93.288
21
232.498
31
0
0
LINE
8
0
62
1
10
93.288
20
232.498
30
0
11
93.693
21
232.979
31
0
0
LINE
8
0
62
1
10
93.693
20
232.979
30
0
11
94.104
21
233.455
31
0
0
LINE
8
0
62
1
10
94.104
20
233.455
30
0
11
94.521
21
233.925
31
0
0
LINE
8
0
62
1
10
94.521
20
233.925
30
0
11
94.943
21
234.391
31
0
0
LINE
8
0
62
1
10
94.943
20
234.391
30
0
11
95.372
21
234.851
31
0
0
LINE
8
0
62
1
10
95.372
20
234.851
30
0
11
95.806
21
235.305
31
0
0
LINE
8
0
62
1
10
95.806
20
235.305
30
0
11
96.246
21
235.755
31
0
0
LINE
8
0
62
1
10
96.246
20
235.755
30
0
11
96.692
21
236.198
31
0
0
LINE
8
0
62
1
10
96.692
20
236.198
30
0
11
97.143
21
236.636
31
0
0
LINE
8
0
62
1
10
97.143
20
236.636
30
0
11
97.6
21
237.068
31
0
0
LINE
8
0
62
1
10
97.6
20
237.068
30
0
11
98.062
21
237.495
31
0
0
LINE
8
0
62
1
10
98.062
20
237.495
30
0
11
98.529
21
237.915
31
0
0
LINE
8
0
62
1
10
98.529
20
237.915
30
0
11
99.002
21
238.33
31
0
0
LINE
8
0
62
1
10
99.002
20
238.33
30
0
11
99.48
21
238.738
31
0
0
LINE
8
0
62
1
10
99.48
20
238.738
30
0
11
99.963
21
239.141
31
0
0
LINE
8
0
62
1
10
99.963
20
239.141
30
0
11
99.99
21
239.159
31
0
0
LINE
8
0
62
1
10
99.99
20
239.159
30
0
11
100.02
21
239.17
31
0
0
LINE
8
0
62
1
10
100.02
20
239.17
30
0
11
100.052
21
239.175
31
0
0
LINE
8
0
62
1
10
100.052
20
239.175
30
0
11
100.084
21
239.173
31
0
0
LINE
8
0
62
1
10
100.084
20
239.173
30
0
11
100.115
21
239.164
31
0
0
LINE
8
0
62
1
10
100.115
20
239.164
30
0
11
100.143
21
239.148
31
0
0
LINE
8
0
62
1
10
100.143
20
239.148
30
0
11
100.168
21
239.127
31
0
0
LINE
8
0
62
1
10
100.168
20
239.127
30
0
11
100.187
21
239.102
31
0
0
LINE
8
0
62
1
10
100.187
20
239.102
30
0
11
100.2
21
239.072
31
0
0
LINE
8
0
62
1
10
100.2
20
239.072
30
0
11
100.207
21
239.041
31
0
0
LINE
8
0
62
1
10
100.207
20
239.041
30
0
11
100.207
21
239.008
31
0
0
ARC
8
0
62
1
10
109.637
20
237.957
30
0
40
9.488
50
173.637789
51
-55.61127
0
LINE
8
0
62
1
10
114.996
20
230.127
30
0
11
115.016
21
230.138
31
0
0
ARC
8
0
62
1
10
110.915
20
238.695
30
0
40
9.489
50
-64.392451
51
65.396771
0
LINE
8
0
62
1
10
114.866
20
247.323
30
0
11
114.838
21
247.339
31
0
0
LINE
8
0
62
1
10
114.838
20
247.339
30
0
11
114.814
21
247.361
31
0
0
LINE
8
0
62
1
10
114.814
20
247.361
30
0
11
114.796
21
247.388
31
0
0
LINE
8
0
62
1
10
114.796
20
247.388
30
0
11
114.784
21
247.418
31
0
0
LINE
8
0
62
1
10
114.784
20
247.418
30
0
11
114.778
21
247.449
31
0
0
LINE
8
0
62
1
10
114.778
20
247.449
30
0
11
114.78
21
247.482
31
0
0
LINE
8
0
62
1
10
114.78
20
247.482
30
0
11
114.788
21
247.513
31
0
0
LINE
8
0
62
1
10
114.788
20
247.513
30
0
11
114.803
21
247.541
31
0
0
LINE
8
0
62
1
10
114.803
20
247.541
30
0
11
114.823
21
247.566
31
0
0
LINE
8
0
62
1
10
114.823
20
247.566
30
0
11
114.848
21
247.586
31
0
0
LINE
8
0
62
1
10
114.848
20
247.586
30
0
11
114.878
21
247.6
31
0
0
LINE
8
0
62
1
10
114.878
20
247.6
30
0
11
115.471
21
247.808
31
0
0
LINE
8
0
62
1
10
115.471
20
247.808
30
0
11
116.067
21
248.008
31
0
0
LINE
8
0
62
1
10
116.067
20
248.008
30
0
11
116.665
21
248.201
31
0
0
LINE
8
0
62
1
10
116.665
20
248.201
30
0
11
117.266
21
248.387
31
0
0
LINE
8
0
62
1
10
117.266
20
248.387
30
0
11
117.869
21
248.564
31
0
0
LINE
8
0
62
1
10
117.869
20
248.564
30
0
11
118.474
21
248.734
31
0
0
LINE
8
0
62
1
10
118.474
20
248.734
30
0
11
119.082
21
248.897
31
0
0
LINE
8
0
62
1
10
119.082
20
248.897
30
0
11
119.691
21
249.052
31
0
0
LINE
8
0
62
1
10
119.691
20
249.052
30
0
11
120.302
21
249.199
31
0
0
LINE
8
0
62
1
10
120.302
20
249.199
30
0
11
120.915
21
249.338
31
0
0
LINE
8
0
62
1
10
120.915
20
249.338
30
0
11
121.53
21
249.47
31
0
0
LINE
8
0
62
1
10
121.53
20
249.47
30
0
11
122.147
21
249.594
31
0
0
LINE
8
0
62
1
10
122.147
20
249.594
30
0
11
122.765
21
249.71
31
0
0
LINE
8
0
62
1
10
122.765
20
249.71
30
0
11
123.384
21
249.818
31
0
0
LINE
8
0
62
1
10
123.384
20
249.818
30
0
11
124.005
21
249.919
31
0
0
LINE
8
0
62
1
10
124.005
20
249.919
30
0
11
124.626
21
250.011
31
0
0
LINE
8
0
62
1
10
124.626
20
250.011
30
0
11
125.249
21
250.096
31
0
0
LINE
8
0
62
1
10
125.249
20
250.096
30
0
11
125.873
21
250.173
31
0
0
LINE
8
0
62
1
10
125.873
20
250.173
30
0
11
126.498
21
250.242
31
0
0
LINE
8
0
62
1
10
126.498
20
250.242
30
0
11
127.124
21
250.304
31
0
0
LINE
8
0
62
1
10
127.124
20
250.304
30
0
11
127.75
21
250.357
31
0
0
LINE
8
0
62
1
10
127.75
20
250.357
30
0
11
128.377
21
250.402
31
0
0
LINE
8
0
62
1
10
128.377
20
250.402
30
0
11
129.005
21
250.44
31
0
0
LINE
8
0
62
1
10
129.005
20
250.44
30
0
11
129.633
21
250.47
31
0
0
LINE
8
0
62
1
10
129.633
20
250.47
30
0
11
130.261
21
250.491
31
0
0
LINE
8
0
62
1
10
130.261
20
250.491
30
0
11
130.89
21
250.505
31
0
0
LINE
8
0
62
1
10
130.89
20
250.505
30
0
11
131.519
21
250.511
31
0
0
LINE
8
0
62
1
10
131.519
20
250.511
30
0
11
132.147
21
250.509
31
0
0
LINE
8
0
62
1
10
132.147
20
250.509
30
0
11
132.179
21
250.505
31
0
0
LINE
8
0
62
1
10
132.179
20
250.505
30
0
11
132.21
21
250.495
31
0
0
LINE
8
0
62
1
10
132.21
20
250.495
30
0
11
132.237
21
250.478
31
0
0
LINE
8
0
62
1
10
132.237
20
250.478
30
0
11
132.261
21
250.456
31
0
0
LINE
8
0
62
1
10
132.261
20
250.456
30
0
11
132.279
21
250.429
31
0
0
LINE
8
0
62
1
10
132.279
20
250.429
30
0
11
132.291
21
250.399
31
0
0
LINE
8
0
62
1
10
132.291
20
250.399
30
0
11
132.296
21
250.367
31
0
0
LINE
8
0
62
1
10
132.296
20
250.367
30
0
11
132.294
21
250.335
31
0
0
LINE
8
0
62
1
10
132.294
20
250.335
30
0
11
132.285
21
250.304
31
0
0
LINE
8
0
62
1
10
132.285
20
250.304
30
0
11
132.27
21
250.275
31
0
0
LINE
8
0
62
1
10
132.27
20
250.275
30
0
11
132.25
21
250.25
31
0
0
ARC
8
0
62
1
10
138.798
20
243.383
30
0
40
9.489
50
133.637963
51
-95.614233
0
LINE
8
0
62
1
10
137.87
20
233.939
30
0
11
137.892
21
233.935
31
0
0
ARC
8
0
62
1
10
140.251
20
243.126
30
0
40
9.489
50
-104.394436
51
-73.623994
0
ARC
8
0
62
1
10
178.059
20
313.581
30
0
40
2.4
50
161.619768
51
-18.380232
0
ARC
8
0
62
1
10
178.059
20
313.581
30
0
40
2.4
50
-18.380232
51
161.619768
0
ARC
8
0
62
1
10
178.059
20
329.419
30
0
40
5.7
50
-49.792508
51
130.207492
0
ARC
8
0
62
1
10
178.059
20
329.419
30
0
40
5.7
50
130.207492
51
-49.792508
0
ARC
8
0
62
1
10
204.309
20
328.346
30
0
40
1.45
50
-140.485543
51
39.514457
0
ARC
8
0
62
1
10
204.309
20
328.346
30
0
40
1.45
50
39.514457
51
-140.485543
0
ARC
8
0
62
1
10
204.309
20
218.346
30
0
40
1.45
50
-100.971745
51
79.028255
0
ARC
8
0
62
1
10
204.309
20
218.346
30
0
40
1.45
50
79.028255
51
-100.971745
0
ARC
8
0
62
1
10
204.309
20
108.346
30
0
40
1.45
50
90
51
-90
0
ARC
8
0
62
1
10
204.309
20
108.346
30
0
40
1.45
50
-90
51
90
0
LINE
8
0
62
1
10
210.459
20
109.796
30
0
11
210.459
21
91.669
31
0
0
LINE
8
0
62
1
10
210.459
20
91.669
30
0
11
210.455
21
91.636
31
0
0
LINE
8
0
62
1
10
210.455
20
91.636
30
0
11
210.444
21
91.604
31
0
0
LINE
8
0
62
1
10
210.444
20
91.604
30
0
11
210.426
21
91.575
31
0
0
LINE
8
0
62
1
10
210.426
20
91.575
30
0
11
210.403
21
91.552
31
0
0
LINE
8
0
62
1
10
210.403
20
91.552
30
0
11
210.374
21
91.534
31
0
0
LINE
8
0
62
1
10
210.374
20
91.534
30
0
11
210.342
21
91.523
31
0
0
LINE
8
0
62
1
10
210.342
20
91.523
30
0
11
210.309
21
91.519
31
0
0
LINE
8
0
62
1
10
210.309
20
91.519
30
0
11
190.309
21
91.519
31
0
0
LINE
8
0
62
1
10
190.309
20
91.519
30
0
11
190.276
21
91.523
31
0
0
LINE
8
0
62
1
10
190.276
20
91.523
30
0
11
190.244
21
91.534
31
0
0
LINE
8
0
62
1
10
190.244
20
91.534
30
0
11
190.215
21
91.552
31
0
0
LINE
8
0
62
1
10
190.215
20
91.552
30
0
11
190.192
21
91.575
31
0
0
LINE
8
0
62
1
10
190.192
20
91.575
30
0
11
190.174
21
91.604
31
0
0
LINE
8
0
62
1
10
190.174
20
91.604
30
0
11
190.163
21
91.636
31
0
0
LINE
8
0
62
1
10
190.163
20
91.636
30
0
11
190.159
21
91.669
31
0
0
LINE
8
0
62
1
10
190.159
20
91.669
30
0
11
190.159
21
211.633
31
0
0
LINE
8
0
62
1
10
190.159
20
211.633
30
0
11
188.437
21
215.06
31
0
0
LINE
8
0
62
1
10
188.437
20
215.06
30
0
11
186.681
21
218.522
31
0
0
LINE
8
0
62
1
10
186.681
20
218.522
30
0
11
184.909
21
221.987
31
0
0
LINE
8
0
62
1
10
184.909
20
221.987
30
0
11
183.119
21
225.454
31
0
0
LINE
8
0
62
1
10
183.119
20
225.454
30
0
11
181.313
21
228.921
31
0
0
LINE
8
0
62
1
10
181.313
20
228.921
30
0
11
179.491
21
232.387
31
0
0
LINE
8
0
62
1
10
179.491
20
232.387
30
0
11
177.656
21
235.85
31
0
0
LINE
8
0
62
1
10
177.656
20
235.85
30
0
11
175.808
21
239.306
31
0
0
LINE
8
0
62
1
10
175.808
20
239.306
30
0
11
173.949
21
242.755
31
0
0
LINE
8
0
62
1
10
173.949
20
242.755
30
0
11
172.08
21
246.191
31
0
0
LINE
8
0
62
1
10
172.08
20
246.191
30
0
11
170.204
21
249.614
31
0
0
LINE
8
0
62
1
10
170.204
20
249.614
30
0
11
168.322
21
253.018
31
0
0
LINE
8
0
62
1
10
168.322
20
253.018
30
0
11
166.436
21
256.401
31
0
0
LINE
8
0
62
1
10
166.436
20
256.401
30
0
11
164.548
21
259.759
31
0
0
LINE
8
0
62
1
10
164.548
20
259.759
30
0
11
162.661
21
263.089
31
0
0
LINE
8
0
62
1
10
162.661
20
263.089
30
0
11
160.776
21
266.385
31
0
0
LINE
8
0
62
1
10
160.776
20
266.385
30
0
11
158.896
21
269.645
31
0
0
LINE
8
0
62
1
10
158.896
20
269.645
30
0
11
157.958
21
271.26
31
0
0
LINE
8
0
62
1
10
157.958
20
271.26
30
0
11
157.023
21
272.863
31
0
0
LINE
8
0
62
1
10
157.023
20
272.863
30
0
11
156.09
21
274.456
31
0
0
LINE
8
0
62
1
10
156.09
20
274.456
30
0
11
155.159
21
276.037
31
0
0
LINE
8
0
62
1
10
155.159
20
276.037
30
0
11
154.231
21
277.605
31
0
0
LINE
8
0
62
1
10
154.231
20
277.605
30
0
11
153.306
21
279.161
31
0
0
LINE
8
0
62
1
10
153.306
20
279.161
30
0
11
152.385
21
280.703
31
0
0
LINE
8
0
62
1
10
152.385
20
280.703
30
0
11
151.467
21
282.232
31
0
0
LINE
8
0
62
1
10
151.467
20
282.232
30
0
11
150.555
21
283.745
31
0
0
LINE
8
0
62
1
10
150.555
20
283.745
30
0
11
149.645
21
285.245
31
0
0
LINE
8
0
62
1
10
149.645
20
285.245
30
0
11
148.741
21
286.729
31
0
0
LINE
8
0
62
1
10
148.741
20
286.729
30
0
11
147.841
21
288.196
31
0
0
LINE
8
0
62
1
10
147.841
20
288.196
30
0
11
146.946
21
289.648
31
0
0
LINE
8
0
62
1
10
146.946
20
289.648
30
0
11
146.057
21
291.083
31
0
0
LINE
8
0
62
1
10
146.057
20
291.083
30
0
11
145.174
21
292.5
31
0
0
LINE
8
0
62
1
10
145.174
20
292.5
30
0
11
144.295
21
293.899
31
0
0
LINE
8
0
62
1
10
144.295
20
293.899
30
0
11
143.424
21
295.281
31
0
0
LINE
8
0
62
1
10
143.424
20
295.281
30
0
11
142.559
21
296.642
31
0
0
LINE
8
0
62
1
10
142.559
20
296.642
30
0
11
141.7
21
297.986
31
0
0
LINE
8
0
62
1
10
141.7
20
297.986
30
0
11
140.848
21
299.309
31
0
0
LINE
8
0
62
1
10
140.848
20
299.309
30
0
11
140.002
21
300.612
31
0
0
LINE
8
0
62
1
10
140.002
20
300.612
30
0
11
139.165
21
301.895
31
0
0
LINE
8
0
62
1
10
139.165
20
301.895
30
0
11
138.335
21
303.156
31
0
0
LINE
8
0
62
1
10
138.335
20
303.156
30
0
11
137.512
21
304.397
31
0
0
LINE
8
0
62
1
10
137.512
20
304.397
30
0
11
136.696
21
305.615
31
0
0
LINE
8
0
62
1
10
136.696
20
305.615
30
0
11
135.89
21
306.812
31
0
0
LINE
8
0
62
1
10
135.89
20
306.812
30
0
11
135.091
21
307.986
31
0
0
LINE
8
0
62
1
10
135.091
20
307.986
30
0
11
134.301
21
309.138
31
0
0
LINE
8
0
62
1
10
134.301
20
309.138
30
0
11
133.519
21
310.266
31
0
0
LINE
8
0
62
1
10
133.519
20
310.266
30
0
11
132.745
21
311.372
31
0
0
LINE
8
0
62
1
10
132.745
20
311.372
30
0
11
132.729
21
311.401
31
0
0
LINE
8
0
62
1
10
132.729
20
311.401
30
0
11
132.72
21
311.432
31
0
0
LINE
8
0
62
1
10
132.72
20
311.432
30
0
11
132.718
21
311.465
31
0
0
LINE
8
0
62
1
10
132.718
20
311.465
30
0
11
132.723
21
311.498
31
0
0
LINE
8
0
62
1
10
132.723
20
311.498
30
0
11
132.735
21
311.528
31
0
0
LINE
8
0
62
1
10
132.735
20
311.528
30
0
11
132.754
21
311.555
31
0
0
LINE
8
0
62
1
10
132.754
20
311.555
30
0
11
132.778
21
311.578
31
0
0
LINE
8
0
62
1
10
132.778
20
311.578
30
0
11
133.429
21
312.068
31
0
0
LINE
8
0
62
1
10
133.429
20
312.068
30
0
11
124.394
21
324.041
31
0
0
LINE
8
0
62
1
10
124.394
20
324.041
30
0
11
124.379
21
324.067
31
0
0
LINE
8
0
62
1
10
124.379
20
324.067
30
0
11
124.368
21
324.095
31
0
0
LINE
8
0
62
1
10
124.368
20
324.095
30
0
11
124.364
21
324.125
31
0
0
LINE
8
0
62
1
10
124.364
20
324.125
30
0
11
124.366
21
324.155
31
0
0
LINE
8
0
62
1
10
124.366
20
324.155
30
0
11
124.374
21
324.184
31
0
0
LINE
8
0
62
1
10
124.374
20
324.184
30
0
11
124.387
21
324.211
31
0
0
LINE
8
0
62
1
10
124.387
20
324.211
30
0
11
124.406
21
324.235
31
0
0
ARC
8
0
62
1
10
85.308
20
361.988
30
0
40
54.35
50
-43.997764
51
35.790107
0
LINE
8
0
62
1
10
129.395
20
393.773
30
0
11
129.379
21
393.801
31
0
0
LINE
8
0
62
1
10
129.379
20
393.801
30
0
11
129.37
21
393.832
31
0
0
LINE
8
0
62
1
10
129.37
20
393.832
30
0
11
129.367
21
393.864
31
0
0
LINE
8
0
62
1
10
129.367
20
393.864
30
0
11
129.371
21
393.896
31
0
0
LINE
8
0
62
1
10
129.371
20
393.896
30
0
11
129.382
21
393.926
31
0
0
LINE
8
0
62
1
10
129.382
20
393.926
30
0
11
129.399
21
393.953
31
0
0
LINE
8
0
62
1
10
129.399
20
393.953
30
0
11
129.421
21
393.977
31
0
0
LINE
8
0
62
1
10
129.421
20
393.977
30
0
11
129.448
21
393.994
31
0
0
LINE
8
0
62
1
10
129.448
20
393.994
30
0
11
129.478
21
394.006
31
0
0
LINE
8
0
62
1
10
129.478
20
394.006
30
0
11
129.51
21
394.011
31
0
0
LINE
8
0
62
1
10
129.51
20
394.011
30
0
11
129.542
21
394.009
31
0
0
LINE
8
0
62
1
10
129.542
20
394.009
30
0
11
129.573
21
394
31
0
0
LINE
8
0
62
1
10
129.573
20
394
30
0
11
210.365
21
361.467
31
0
0
LINE
8
0
62
1
10
210.365
20
361.467
30
0
11
210.391
21
361.453
31
0
0
LINE
8
0
62
1
10
210.391
20
361.453
30
0
11
210.414
21
361.435
31
0
0
LINE
8
0
62
1
10
210.414
20
361.435
30
0
11
210.433
21
361.412
31
0
0
LINE
8
0
62
1
10
210.433
20
361.412
30
0
11
210.447
21
361.386
31
0
0
LINE
8
0
62
1
10
210.447
20
361.386
30
0
11
210.456
21
361.358
31
0
0
LINE
8
0
62
1
10
210.456
20
361.358
30
0
11
210.459
21
361.328
31
0
0
LINE
8
0
62
1
10
210.459
20
361.328
30
0
11
210.459
21
109.796
31
0
0
ENDSEC
0
EOF
