G04 MADE WITH FRITZING*
G04 WWW.FRITZING.ORG*
G04 DOUBLE SIDED*
G04 HOLES PLATED*
G04 CONTOUR ON CENTER OF CONTOUR VECTOR*
%ASAXBY*%
%FSLAX23Y23*%
%MOIN*%
%OFA0B0*%
%SFA1.0B1.0*%
%ADD10C,0.082000*%
%ADD11C,0.075000*%
%ADD12C,0.078000*%
%ADD13C,0.072472*%
%ADD14C,0.072445*%
%ADD15C,0.072417*%
%ADD16C,0.080000*%
%ADD17R,0.082000X0.082000*%
%ADD18R,0.075000X0.075000*%
%ADD19R,0.078000X0.078000*%
%ADD20R,0.080000X0.080000*%
%ADD21C,0.048000*%
%ADD22C,0.032000*%
%ADD23R,0.001000X0.001000*%
%LNCOPPER0*%
G90*
G70*
G54D10*
X1413Y591D03*
X1513Y591D03*
X1613Y591D03*
G54D11*
X2085Y203D03*
X2085Y1103D03*
X2185Y203D03*
X2185Y1103D03*
X2285Y203D03*
X2285Y1103D03*
X2385Y203D03*
X2385Y1103D03*
X2485Y203D03*
X2485Y1103D03*
X2585Y203D03*
X2585Y1103D03*
X2685Y203D03*
X2685Y1103D03*
X2785Y203D03*
X2785Y1103D03*
X2885Y203D03*
X2885Y1103D03*
X2985Y203D03*
X2985Y1103D03*
X3085Y203D03*
X3085Y1103D03*
X3185Y203D03*
X3185Y1103D03*
X3285Y203D03*
X3285Y1103D03*
X3385Y203D03*
X3385Y1103D03*
X3485Y203D03*
X3485Y1103D03*
X3585Y203D03*
X3585Y1103D03*
G54D12*
X535Y197D03*
X435Y197D03*
X335Y197D03*
X235Y197D03*
G54D11*
X943Y355D03*
X943Y755D03*
G54D13*
X150Y552D03*
X850Y1052D03*
X750Y1052D03*
X650Y1052D03*
X550Y1052D03*
X450Y1052D03*
G54D14*
X350Y1052D03*
X250Y1052D03*
G54D13*
X149Y1052D03*
G54D14*
X850Y552D03*
G54D15*
X750Y552D03*
G54D14*
X650Y552D03*
G54D13*
X550Y552D03*
G54D14*
X450Y552D03*
G54D15*
X350Y552D03*
X250Y552D03*
G54D11*
X1888Y827D03*
X1788Y827D03*
X1140Y827D03*
X1140Y727D03*
G54D16*
X1534Y237D03*
X1672Y237D03*
X1278Y237D03*
X1140Y237D03*
X1002Y237D03*
X864Y237D03*
G54D12*
X3266Y1300D03*
X3266Y1400D03*
X1888Y197D03*
X1888Y297D03*
X1888Y473D03*
X1888Y573D03*
G54D17*
X1413Y591D03*
G54D18*
X2085Y203D03*
G54D19*
X535Y197D03*
G54D18*
X1888Y827D03*
X1140Y827D03*
G54D20*
X1534Y237D03*
X1278Y237D03*
G54D21*
X961Y319D02*
X983Y274D01*
D02*
X3068Y1378D02*
X3169Y1139D01*
D02*
X314Y1260D02*
X784Y1417D01*
D02*
X2989Y1419D02*
X3068Y1378D01*
D02*
X258Y1080D02*
X314Y1260D01*
D02*
X784Y1417D02*
X2989Y1419D01*
D02*
X314Y1496D02*
X160Y1080D01*
D02*
X3385Y1497D02*
X314Y1496D01*
D02*
X3385Y1262D02*
X3385Y1497D01*
D02*
X3385Y1143D02*
X3385Y1262D01*
G54D22*
D02*
X2989Y1299D02*
X3068Y1139D01*
D02*
X905Y1299D02*
X2832Y1299D01*
D02*
X2832Y1299D02*
X2989Y1299D01*
D02*
X784Y1302D02*
X905Y1299D01*
D02*
X664Y1078D02*
X784Y1302D01*
G54D21*
D02*
X1181Y1219D02*
X876Y1065D01*
D02*
X2911Y1221D02*
X1181Y1219D01*
D02*
X2964Y1136D02*
X2911Y1221D01*
G54D22*
D02*
X3030Y356D02*
X3073Y235D01*
D02*
X1181Y1140D02*
X1810Y1142D01*
D02*
X1810Y1142D02*
X3030Y356D01*
D02*
X941Y905D02*
X1181Y1140D01*
D02*
X784Y905D02*
X941Y905D01*
D02*
X756Y1022D02*
X784Y905D01*
D02*
X1810Y1064D02*
X2951Y315D01*
D02*
X1181Y1062D02*
X1810Y1064D01*
D02*
X627Y827D02*
X982Y827D01*
D02*
X2951Y315D02*
X2975Y236D01*
D02*
X982Y827D02*
X1181Y1062D01*
D02*
X559Y1023D02*
X627Y827D01*
G54D21*
D02*
X1769Y196D02*
X1769Y513D01*
D02*
X1769Y513D02*
X1651Y572D01*
D02*
X1769Y79D02*
X1769Y196D01*
D02*
X3580Y79D02*
X1769Y79D01*
D02*
X3583Y163D02*
X3580Y79D01*
D02*
X3266Y1221D02*
X3266Y1258D01*
D02*
X3279Y1142D02*
X3266Y1221D01*
D02*
X864Y671D02*
X916Y726D01*
D02*
X854Y592D02*
X864Y671D01*
D02*
X1769Y513D02*
X1651Y572D01*
D02*
X1769Y196D02*
X1769Y513D01*
D02*
X1769Y79D02*
X1769Y196D01*
D02*
X115Y80D02*
X1769Y79D01*
D02*
X115Y315D02*
X115Y80D01*
D02*
X235Y526D02*
X115Y315D01*
D02*
X235Y278D02*
X338Y524D01*
D02*
X235Y227D02*
X235Y278D01*
D02*
X353Y315D02*
X434Y514D01*
D02*
X341Y238D02*
X353Y315D01*
D02*
X431Y276D02*
X538Y524D01*
D02*
X433Y227D02*
X431Y276D01*
D02*
X549Y276D02*
X639Y523D01*
D02*
X540Y227D02*
X549Y276D01*
D02*
X392Y1103D02*
X427Y1072D01*
D02*
X369Y1075D02*
X392Y1103D01*
D02*
X1297Y394D02*
X1282Y268D01*
D02*
X1653Y394D02*
X1297Y394D01*
D02*
X1667Y279D02*
X1653Y394D01*
D02*
X1297Y589D02*
X1162Y708D01*
D02*
X1380Y590D02*
X1297Y589D01*
D02*
X1020Y710D02*
X968Y740D01*
D02*
X1112Y723D02*
X1020Y710D01*
D02*
X1769Y671D02*
X1641Y606D01*
D02*
X1785Y799D02*
X1769Y671D01*
D02*
X1099Y513D02*
X1136Y267D01*
D02*
X879Y547D02*
X1099Y513D01*
G54D22*
D02*
X1918Y297D02*
X2753Y277D01*
D02*
X2753Y277D02*
X2774Y229D01*
D02*
X1917Y566D02*
X2753Y356D01*
D02*
X2753Y356D02*
X2832Y315D01*
D02*
X2832Y315D02*
X2873Y229D01*
G54D23*
X243Y1088D02*
X255Y1088D01*
X239Y1087D02*
X259Y1087D01*
X236Y1086D02*
X262Y1086D01*
X234Y1085D02*
X264Y1085D01*
X232Y1084D02*
X266Y1084D01*
X230Y1083D02*
X268Y1083D01*
X229Y1082D02*
X269Y1082D01*
X227Y1081D02*
X271Y1081D01*
X226Y1080D02*
X272Y1080D01*
X225Y1079D02*
X273Y1079D01*
X224Y1078D02*
X274Y1078D01*
X223Y1077D02*
X275Y1077D01*
X222Y1076D02*
X276Y1076D01*
X221Y1075D02*
X277Y1075D01*
X220Y1074D02*
X278Y1074D01*
X220Y1073D02*
X278Y1073D01*
X219Y1072D02*
X279Y1072D01*
X219Y1071D02*
X244Y1071D01*
X254Y1071D02*
X279Y1071D01*
X218Y1070D02*
X241Y1070D01*
X257Y1070D02*
X280Y1070D01*
X217Y1069D02*
X239Y1069D01*
X259Y1069D02*
X281Y1069D01*
X217Y1068D02*
X238Y1068D01*
X260Y1068D02*
X281Y1068D01*
X216Y1067D02*
X236Y1067D01*
X262Y1067D02*
X282Y1067D01*
X216Y1066D02*
X235Y1066D01*
X263Y1066D02*
X282Y1066D01*
X216Y1065D02*
X234Y1065D01*
X264Y1065D02*
X282Y1065D01*
X215Y1064D02*
X234Y1064D01*
X264Y1064D02*
X283Y1064D01*
X215Y1063D02*
X233Y1063D01*
X265Y1063D02*
X283Y1063D01*
X215Y1062D02*
X232Y1062D01*
X266Y1062D02*
X283Y1062D01*
X214Y1061D02*
X232Y1061D01*
X266Y1061D02*
X284Y1061D01*
X214Y1060D02*
X231Y1060D01*
X267Y1060D02*
X284Y1060D01*
X214Y1059D02*
X231Y1059D01*
X267Y1059D02*
X284Y1059D01*
X214Y1058D02*
X230Y1058D01*
X268Y1058D02*
X284Y1058D01*
X214Y1057D02*
X230Y1057D01*
X268Y1057D02*
X284Y1057D01*
X213Y1056D02*
X230Y1056D01*
X268Y1056D02*
X284Y1056D01*
X213Y1055D02*
X230Y1055D01*
X268Y1055D02*
X285Y1055D01*
X213Y1054D02*
X230Y1054D01*
X268Y1054D02*
X285Y1054D01*
X213Y1053D02*
X230Y1053D01*
X268Y1053D02*
X285Y1053D01*
X213Y1052D02*
X230Y1052D01*
X268Y1052D02*
X285Y1052D01*
X213Y1051D02*
X230Y1051D01*
X268Y1051D02*
X285Y1051D01*
X213Y1050D02*
X230Y1050D01*
X268Y1050D02*
X285Y1050D01*
X213Y1049D02*
X230Y1049D01*
X268Y1049D02*
X284Y1049D01*
X214Y1048D02*
X230Y1048D01*
X268Y1048D02*
X284Y1048D01*
X214Y1047D02*
X230Y1047D01*
X268Y1047D02*
X284Y1047D01*
X214Y1046D02*
X231Y1046D01*
X267Y1046D02*
X284Y1046D01*
X214Y1045D02*
X231Y1045D01*
X267Y1045D02*
X284Y1045D01*
X214Y1044D02*
X232Y1044D01*
X266Y1044D02*
X284Y1044D01*
X215Y1043D02*
X232Y1043D01*
X266Y1043D02*
X283Y1043D01*
X215Y1042D02*
X233Y1042D01*
X265Y1042D02*
X283Y1042D01*
X215Y1041D02*
X234Y1041D01*
X264Y1041D02*
X283Y1041D01*
X216Y1040D02*
X234Y1040D01*
X264Y1040D02*
X282Y1040D01*
X216Y1039D02*
X235Y1039D01*
X263Y1039D02*
X282Y1039D01*
X217Y1038D02*
X237Y1038D01*
X261Y1038D02*
X281Y1038D01*
X217Y1037D02*
X238Y1037D01*
X260Y1037D02*
X281Y1037D01*
X217Y1036D02*
X239Y1036D01*
X259Y1036D02*
X281Y1036D01*
X218Y1035D02*
X241Y1035D01*
X257Y1035D02*
X280Y1035D01*
X219Y1034D02*
X245Y1034D01*
X253Y1034D02*
X279Y1034D01*
X219Y1033D02*
X279Y1033D01*
X220Y1032D02*
X278Y1032D01*
X220Y1031D02*
X277Y1031D01*
X221Y1030D02*
X277Y1030D01*
X222Y1029D02*
X276Y1029D01*
X223Y1028D02*
X275Y1028D01*
X224Y1027D02*
X274Y1027D01*
X225Y1026D02*
X273Y1026D01*
X226Y1025D02*
X272Y1025D01*
X227Y1024D02*
X271Y1024D01*
X229Y1023D02*
X269Y1023D01*
X230Y1022D02*
X268Y1022D01*
X232Y1021D02*
X266Y1021D01*
X234Y1020D02*
X264Y1020D01*
X236Y1019D02*
X262Y1019D01*
X239Y1018D02*
X259Y1018D01*
X243Y1017D02*
X255Y1017D01*
X249Y589D02*
X249Y589D01*
X242Y588D02*
X256Y588D01*
X238Y587D02*
X260Y587D01*
X235Y586D02*
X263Y586D01*
X233Y585D02*
X265Y585D01*
X231Y584D02*
X267Y584D01*
X230Y583D02*
X268Y583D01*
X228Y582D02*
X270Y582D01*
X227Y581D02*
X271Y581D01*
X226Y580D02*
X272Y580D01*
X225Y579D02*
X273Y579D01*
X224Y578D02*
X274Y578D01*
X223Y577D02*
X275Y577D01*
X222Y576D02*
X276Y576D01*
X221Y575D02*
X277Y575D01*
X220Y574D02*
X278Y574D01*
X220Y573D02*
X278Y573D01*
X219Y572D02*
X279Y572D01*
X218Y571D02*
X243Y571D01*
X255Y571D02*
X280Y571D01*
X218Y570D02*
X240Y570D01*
X258Y570D02*
X280Y570D01*
X217Y569D02*
X239Y569D01*
X259Y569D02*
X281Y569D01*
X217Y568D02*
X237Y568D01*
X261Y568D02*
X281Y568D01*
X216Y567D02*
X236Y567D01*
X262Y567D02*
X282Y567D01*
X216Y566D02*
X235Y566D01*
X263Y566D02*
X282Y566D01*
X216Y565D02*
X234Y565D01*
X264Y565D02*
X282Y565D01*
X215Y564D02*
X233Y564D01*
X265Y564D02*
X283Y564D01*
X215Y563D02*
X233Y563D01*
X265Y563D02*
X283Y563D01*
X215Y562D02*
X232Y562D01*
X266Y562D02*
X283Y562D01*
X214Y561D02*
X231Y561D01*
X267Y561D02*
X284Y561D01*
X214Y560D02*
X231Y560D01*
X267Y560D02*
X284Y560D01*
X214Y559D02*
X231Y559D01*
X267Y559D02*
X284Y559D01*
X214Y558D02*
X230Y558D01*
X268Y558D02*
X284Y558D01*
X214Y557D02*
X230Y557D01*
X268Y557D02*
X284Y557D01*
X213Y556D02*
X230Y556D01*
X268Y556D02*
X285Y556D01*
X213Y555D02*
X230Y555D01*
X268Y555D02*
X285Y555D01*
X213Y554D02*
X230Y554D01*
X268Y554D02*
X285Y554D01*
X213Y553D02*
X230Y553D01*
X268Y553D02*
X285Y553D01*
X213Y552D02*
X230Y552D01*
X268Y552D02*
X285Y552D01*
X213Y551D02*
X230Y551D01*
X268Y551D02*
X285Y551D01*
X213Y550D02*
X230Y550D01*
X268Y550D02*
X285Y550D01*
X214Y549D02*
X230Y549D01*
X268Y549D02*
X284Y549D01*
X214Y548D02*
X230Y548D01*
X268Y548D02*
X284Y548D01*
X214Y547D02*
X230Y547D01*
X267Y547D02*
X284Y547D01*
X214Y546D02*
X231Y546D01*
X267Y546D02*
X284Y546D01*
X214Y545D02*
X231Y545D01*
X267Y545D02*
X284Y545D01*
X215Y544D02*
X232Y544D01*
X266Y544D02*
X283Y544D01*
X215Y543D02*
X232Y543D01*
X266Y543D02*
X283Y543D01*
X215Y542D02*
X233Y542D01*
X265Y542D02*
X283Y542D01*
X215Y541D02*
X234Y541D01*
X264Y541D02*
X283Y541D01*
X216Y540D02*
X235Y540D01*
X263Y540D02*
X282Y540D01*
X216Y539D02*
X236Y539D01*
X262Y539D02*
X282Y539D01*
X217Y538D02*
X237Y538D01*
X261Y538D02*
X281Y538D01*
X217Y537D02*
X238Y537D01*
X260Y537D02*
X281Y537D01*
X218Y536D02*
X240Y536D01*
X258Y536D02*
X280Y536D01*
X218Y535D02*
X242Y535D01*
X256Y535D02*
X280Y535D01*
X219Y534D02*
X248Y534D01*
X250Y534D02*
X279Y534D01*
X219Y533D02*
X279Y533D01*
X220Y532D02*
X278Y532D01*
X221Y531D02*
X277Y531D01*
X221Y530D02*
X277Y530D01*
X222Y529D02*
X276Y529D01*
X223Y528D02*
X275Y528D01*
X224Y527D02*
X274Y527D01*
X225Y526D02*
X273Y526D01*
X226Y525D02*
X272Y525D01*
X228Y524D02*
X270Y524D01*
X229Y523D02*
X269Y523D01*
X231Y522D02*
X267Y522D01*
X233Y521D02*
X265Y521D01*
X235Y520D02*
X263Y520D01*
X237Y519D02*
X261Y519D01*
X240Y518D02*
X258Y518D01*
X245Y517D02*
X253Y517D01*
D02*
G04 End of Copper0*
M02*