; NON-PLATED HOLES START AT T1
; THROUGH (PLATED) HOLES START AT T100
M48
INCH
T100C0.037694
T101C0.040000
T102C0.035000
T103C0.037722
T104C0.038000
T105C0.037750
T106C0.042000
%
T100
X002495Y005516
X003495Y005516
X007495Y005516
T101
X011400Y002366
X016715Y002366
X010022Y002366
X015337Y002366
X008644Y002366
X012778Y002366
T102
X017880Y008272
X027849Y002028
X028849Y002028
X011400Y007272
X009432Y007547
X023849Y002028
X029849Y002028
X029849Y011028
X035849Y011028
X028849Y011028
X031849Y011028
X011400Y008272
X034849Y002028
X025849Y002028
X033849Y002028
X009432Y003547
X030849Y002028
X020849Y011028
X030849Y011028
X025849Y011028
X022849Y011028
X033849Y011028
X027849Y011028
X032849Y002028
X023849Y011028
X032849Y011028
X026849Y011028
X034849Y011028
X031849Y002028
X020849Y002028
X026849Y002028
X018880Y008272
X024849Y002028
X021849Y011028
X024849Y011028
X022849Y002028
X035849Y002028
X021849Y002028
T103
X006495Y005516
X004495Y005516
X008495Y005516
X002495Y010516
X003495Y010516
T104
X018880Y005728
X018880Y004728
X004345Y001972
X005345Y001972
X003345Y001972
X018880Y001972
X018880Y002972
X032660Y012996
X032660Y013996
X002345Y001972
T105
X007495Y010516
X008495Y010516
X005495Y005516
X001494Y010516
X004495Y010516
X005495Y010516
X006495Y010516
X001495Y005516
T106
X014125Y005910
X016125Y005910
X015125Y005910
T00
M30
