G04 MADE WITH FRITZING*
G04 WWW.FRITZING.ORG*
G04 DOUBLE SIDED*
G04 HOLES PLATED*
G04 CONTOUR ON CENTER OF CONTOUR VECTOR*
%ASAXBY*%
%FSLAX23Y23*%
%MOIN*%
%OFA0B0*%
%SFA1.0B1.0*%
%ADD10C,0.092000*%
%ADD11C,0.085000*%
%ADD12C,0.088000*%
%ADD13C,0.082472*%
%ADD14C,0.082445*%
%ADD15C,0.082417*%
%ADD16C,0.090000*%
%ADD17R,0.092000X0.092000*%
%ADD18R,0.085000X0.085000*%
%ADD19R,0.088000X0.088000*%
%ADD20R,0.090000X0.090000*%
%ADD21R,0.001000X0.001000*%
%LNMASK1*%
G90*
G70*
G54D10*
X1413Y591D03*
X1513Y591D03*
X1613Y591D03*
G54D11*
X2085Y203D03*
X2085Y1103D03*
X2185Y203D03*
X2185Y1103D03*
X2285Y203D03*
X2285Y1103D03*
X2385Y203D03*
X2385Y1103D03*
X2485Y203D03*
X2485Y1103D03*
X2585Y203D03*
X2585Y1103D03*
X2685Y203D03*
X2685Y1103D03*
X2785Y203D03*
X2785Y1103D03*
X2885Y203D03*
X2885Y1103D03*
X2985Y203D03*
X2985Y1103D03*
X3085Y203D03*
X3085Y1103D03*
X3185Y203D03*
X3185Y1103D03*
X3285Y203D03*
X3285Y1103D03*
X3385Y203D03*
X3385Y1103D03*
X3485Y203D03*
X3485Y1103D03*
X3585Y203D03*
X3585Y1103D03*
G54D12*
X535Y197D03*
X435Y197D03*
X335Y197D03*
X235Y197D03*
G54D11*
X943Y355D03*
X943Y755D03*
G54D13*
X150Y552D03*
X850Y1052D03*
X750Y1052D03*
X650Y1052D03*
X550Y1052D03*
X450Y1052D03*
G54D14*
X350Y1052D03*
G54D13*
X149Y1052D03*
G54D14*
X850Y552D03*
G54D15*
X750Y552D03*
G54D14*
X650Y552D03*
G54D13*
X550Y552D03*
G54D14*
X450Y552D03*
G54D15*
X350Y552D03*
G54D11*
X1888Y827D03*
X1788Y827D03*
G54D16*
X1534Y237D03*
X1672Y237D03*
G54D11*
X1140Y827D03*
X1140Y727D03*
G54D16*
X1278Y237D03*
X1140Y237D03*
X1002Y237D03*
X864Y237D03*
G54D12*
X3266Y1300D03*
X3266Y1400D03*
X1888Y197D03*
X1888Y297D03*
X1888Y473D03*
X1888Y573D03*
G54D17*
X1413Y591D03*
G54D18*
X2085Y203D03*
G54D19*
X535Y197D03*
G54D18*
X1888Y827D03*
G54D20*
X1534Y237D03*
G54D18*
X1140Y827D03*
G54D20*
X1278Y237D03*
G54D21*
X242Y1093D02*
X256Y1093D01*
X238Y1092D02*
X260Y1092D01*
X235Y1091D02*
X263Y1091D01*
X232Y1090D02*
X266Y1090D01*
X230Y1089D02*
X268Y1089D01*
X229Y1088D02*
X269Y1088D01*
X227Y1087D02*
X271Y1087D01*
X226Y1086D02*
X272Y1086D01*
X224Y1085D02*
X274Y1085D01*
X223Y1084D02*
X275Y1084D01*
X222Y1083D02*
X276Y1083D01*
X221Y1082D02*
X277Y1082D01*
X220Y1081D02*
X278Y1081D01*
X219Y1080D02*
X279Y1080D01*
X218Y1079D02*
X280Y1079D01*
X217Y1078D02*
X281Y1078D01*
X216Y1077D02*
X282Y1077D01*
X216Y1076D02*
X282Y1076D01*
X215Y1075D02*
X283Y1075D01*
X214Y1074D02*
X284Y1074D01*
X214Y1073D02*
X284Y1073D01*
X213Y1072D02*
X285Y1072D01*
X213Y1071D02*
X285Y1071D01*
X212Y1070D02*
X286Y1070D01*
X212Y1069D02*
X286Y1069D01*
X211Y1068D02*
X287Y1068D01*
X211Y1067D02*
X287Y1067D01*
X211Y1066D02*
X287Y1066D01*
X210Y1065D02*
X288Y1065D01*
X210Y1064D02*
X288Y1064D01*
X210Y1063D02*
X288Y1063D01*
X209Y1062D02*
X288Y1062D01*
X209Y1061D02*
X289Y1061D01*
X209Y1060D02*
X289Y1060D01*
X209Y1059D02*
X289Y1059D01*
X209Y1058D02*
X289Y1058D01*
X209Y1057D02*
X289Y1057D01*
X208Y1056D02*
X289Y1056D01*
X208Y1055D02*
X290Y1055D01*
X208Y1054D02*
X290Y1054D01*
X208Y1053D02*
X290Y1053D01*
X208Y1052D02*
X290Y1052D01*
X208Y1051D02*
X290Y1051D01*
X208Y1050D02*
X290Y1050D01*
X208Y1049D02*
X289Y1049D01*
X209Y1048D02*
X289Y1048D01*
X209Y1047D02*
X289Y1047D01*
X209Y1046D02*
X289Y1046D01*
X209Y1045D02*
X289Y1045D01*
X209Y1044D02*
X289Y1044D01*
X209Y1043D02*
X288Y1043D01*
X210Y1042D02*
X288Y1042D01*
X210Y1041D02*
X288Y1041D01*
X210Y1040D02*
X288Y1040D01*
X211Y1039D02*
X287Y1039D01*
X211Y1038D02*
X287Y1038D01*
X211Y1037D02*
X287Y1037D01*
X212Y1036D02*
X286Y1036D01*
X212Y1035D02*
X286Y1035D01*
X213Y1034D02*
X285Y1034D01*
X213Y1033D02*
X285Y1033D01*
X214Y1032D02*
X284Y1032D01*
X214Y1031D02*
X284Y1031D01*
X215Y1030D02*
X283Y1030D01*
X216Y1029D02*
X282Y1029D01*
X216Y1028D02*
X281Y1028D01*
X217Y1027D02*
X281Y1027D01*
X218Y1026D02*
X280Y1026D01*
X219Y1025D02*
X279Y1025D01*
X220Y1024D02*
X278Y1024D01*
X221Y1023D02*
X277Y1023D01*
X222Y1022D02*
X276Y1022D01*
X223Y1021D02*
X275Y1021D01*
X224Y1020D02*
X274Y1020D01*
X226Y1019D02*
X272Y1019D01*
X227Y1018D02*
X271Y1018D01*
X229Y1017D02*
X269Y1017D01*
X230Y1016D02*
X267Y1016D01*
X233Y1015D02*
X265Y1015D01*
X235Y1014D02*
X263Y1014D01*
X238Y1013D02*
X260Y1013D01*
X243Y1012D02*
X255Y1012D01*
X249Y594D02*
X249Y594D01*
X241Y593D02*
X257Y593D01*
X237Y592D02*
X261Y592D01*
X234Y591D02*
X264Y591D01*
X232Y590D02*
X266Y590D01*
X230Y589D02*
X268Y589D01*
X228Y588D02*
X270Y588D01*
X227Y587D02*
X271Y587D01*
X225Y586D02*
X273Y586D01*
X224Y585D02*
X274Y585D01*
X223Y584D02*
X275Y584D01*
X222Y583D02*
X276Y583D01*
X220Y582D02*
X278Y582D01*
X220Y581D02*
X278Y581D01*
X219Y580D02*
X279Y580D01*
X218Y579D02*
X280Y579D01*
X217Y578D02*
X281Y578D01*
X216Y577D02*
X282Y577D01*
X216Y576D02*
X282Y576D01*
X215Y575D02*
X283Y575D01*
X214Y574D02*
X284Y574D01*
X214Y573D02*
X284Y573D01*
X213Y572D02*
X285Y572D01*
X213Y571D02*
X285Y571D01*
X212Y570D02*
X286Y570D01*
X212Y569D02*
X286Y569D01*
X211Y568D02*
X287Y568D01*
X211Y567D02*
X287Y567D01*
X211Y566D02*
X287Y566D01*
X210Y565D02*
X288Y565D01*
X210Y564D02*
X288Y564D01*
X210Y563D02*
X288Y563D01*
X209Y562D02*
X289Y562D01*
X209Y561D02*
X289Y561D01*
X209Y560D02*
X289Y560D01*
X209Y559D02*
X289Y559D01*
X209Y558D02*
X289Y558D01*
X209Y557D02*
X289Y557D01*
X208Y556D02*
X289Y556D01*
X208Y555D02*
X290Y555D01*
X208Y554D02*
X290Y554D01*
X208Y553D02*
X290Y553D01*
X208Y552D02*
X290Y552D01*
X208Y551D02*
X290Y551D01*
X208Y550D02*
X290Y550D01*
X208Y549D02*
X289Y549D01*
X209Y548D02*
X289Y548D01*
X209Y547D02*
X289Y547D01*
X209Y546D02*
X289Y546D01*
X209Y545D02*
X289Y545D01*
X209Y544D02*
X289Y544D01*
X210Y543D02*
X288Y543D01*
X210Y542D02*
X288Y542D01*
X210Y541D02*
X288Y541D01*
X210Y540D02*
X288Y540D01*
X211Y539D02*
X287Y539D01*
X211Y538D02*
X287Y538D01*
X211Y537D02*
X287Y537D01*
X212Y536D02*
X286Y536D01*
X212Y535D02*
X286Y535D01*
X213Y534D02*
X285Y534D01*
X213Y533D02*
X285Y533D01*
X214Y532D02*
X284Y532D01*
X215Y531D02*
X283Y531D01*
X215Y530D02*
X283Y530D01*
X216Y529D02*
X282Y529D01*
X217Y528D02*
X281Y528D01*
X217Y527D02*
X281Y527D01*
X218Y526D02*
X280Y526D01*
X219Y525D02*
X279Y525D01*
X220Y524D02*
X278Y524D01*
X221Y523D02*
X277Y523D01*
X222Y522D02*
X276Y522D01*
X223Y521D02*
X275Y521D01*
X225Y520D02*
X273Y520D01*
X226Y519D02*
X272Y519D01*
X228Y518D02*
X270Y518D01*
X229Y517D02*
X269Y517D01*
X231Y516D02*
X267Y516D01*
X233Y515D02*
X265Y515D01*
X236Y514D02*
X262Y514D01*
X239Y513D02*
X259Y513D01*
X244Y512D02*
X254Y512D01*
D02*
G04 End of Mask1*
M02*